<?xml version="1.0" encoding="UTF-8" standalone="no"?>
<svg
   xmlns:dc="http://purl.org/dc/elements/1.1/"
   xmlns:cc="http://creativecommons.org/ns#"
   xmlns:rdf="http://www.w3.org/1999/02/22-rdf-syntax-ns#"
   xmlns:svg="http://www.w3.org/2000/svg"
   xmlns="http://www.w3.org/2000/svg"
   version="1.1"
   id="svg31934"
   viewBox="0 0 200.00001 307.50332"
   height="86.784271mm"
   width="56.444447mm">
  <defs
     id="defs31936">
    <clipPath
       clipPathUnits="userSpaceOnUse"
       id="clipPath7640">
      <path
         d="m 0,0 595.276,0 0,841.89 L 0,841.89 0,0 Z"
         id="path7642" />
    </clipPath>
  </defs>
  <metadata
     id="metadata31939">
    <rdf:RDF>
      <cc:Work
         rdf:about="">
        <dc:format>image/svg+xml</dc:format>
        <dc:type
           rdf:resource="http://purl.org/dc/dcmitype/StillImage" />
        <dc:title></dc:title>
      </cc:Work>
    </rdf:RDF>
  </metadata>
  <g
     transform="translate(-214.28572,-515.75344)"
     id="layer1">
    <g
       transform="matrix(2.9080064,0,0,2.9080064,-3179.2733,1255.93)"
       id="g31871">
      <path
         id="path7586"
         style="fill:#000000;fill-opacity:1;fill-rule:nonzero;stroke:none"
         d="m 1198.4891,-254.41638 c 1.4938,0.2475 2.6763,1.74875 3.4125,3.06 0.1363,-0.475 0.039,-0.98875 0,-1.50125 l -0.1937,-0.97 0.077,0 c 0.66,0.93125 0.93,2.09125 0.8525,3.2125 -0.1538,-0.0375 -0.2713,-0.095 -0.4638,-0.0375 2.5,1.425 1.4725,4.6375 2.1513,6.97625 0.2712,1.615 0.6975,3.17375 1.2412,4.67625 1.8813,1.14 3.315,2.88875 4.245,4.80875 0.1363,0.5325 0.1563,1.16 -0.1925,1.59625 -1.0662,1.23625 -2.6762,1.2925 -4.1887,1.55875 -1.2025,0.19 -2.4438,0.17125 -3.6263,0.36125 -2.5775,2.87125 -4.3625,6.08375 -5.35,9.56125 -0.6212,0.45625 -1.1637,1.1025 -1.4162,1.73 0.485,-0.49375 0.9312,-1.08375 1.5512,-1.31125 0.97,-0.58875 1.9,-1.445 2.365,-2.4525 l 0.195,0.0575 c 0.019,0.475 -0.079,0.9125 -0.195,1.33 0.5438,-0.19 1.0675,-0.6075 1.63,-0.87375 0.057,-0.0575 0.135,-0.0375 0.1738,0.0375 l 0.059,0.0763 c -0.175,0.3425 -0.5437,0.60875 -0.6412,0.95125 2.1725,-0.21 4.15,-0.83625 6.0887,-1.57875 0.039,0.21 0.1163,0.4 0.2325,0.57 0.175,-0.15125 0.078,-0.53125 0.175,-0.77875 0.2525,-2.60375 2.0738,-4.58125 3.3925,-6.7475 0.8725,-1.5025 1.745,-3.00375 2.3075,-4.6575 0.078,0.1325 0.175,0.36125 0.3688,0.39875 -0.2525,-1.045 -0.1363,-2.2425 0.2525,-3.2125 0.3287,-0.77875 1.105,-1.1975 1.88,-1.33 2.055,-0.1525 3.84,0.74125 5.39,1.93875 l 0.019,-0.0188 c -1.3187,-1.4075 -3.0437,-2.1675 -5.0012,-2.24375 0.8525,-1.88125 3.2575,-1.4825 4.6337,-2.87 1.2988,-0.96875 2.4625,-2.28125 3.4513,-3.51625 0.31,-0.19 0.6012,-0.38 0.9887,-0.36125 0.5238,0.0375 0.8725,0.58875 1.0275,1.02625 0.31,1.35 0.2325,3.00375 -0.97,3.9725 -0.8525,0.79875 -1.9575,1.08375 -2.9075,1.6925 -0.175,0.0563 -0.3887,0.075 -0.5425,0.19 0.135,0.17125 0.4263,0.075 0.6388,0.095 0.039,0.7225 0.31,1.425 1.0087,1.78625 2.695,1.6725 5.7975,2.415 8.9,3.13625 1.7838,0.51375 3.78,1.73 4.1875,3.6875 0.078,0.55125 0.1163,1.1225 -0.2912,1.54 -0.6388,0.45625 -1.4338,0.0387 -2.055,-0.15125 0.485,-0.5325 0.64,-1.23625 0.485,-1.95875 -1.0463,-3.55375 -5.1188,-3.345 -8.1438,-3.95375 -0.91,-0.17125 -1.8037,-0.45625 -2.6375,-0.7225 0.7763,0.59 1.8238,0.79875 2.7925,1.04625 2.695,0.6275 6.205,0.3225 7.5038,3.345 0.155,0.59 0.2525,1.35 -0.155,1.84375 -0.4063,0.51375 -1.2013,0.285 -1.7063,0.21 -2.6175,-1.14125 -5.08,-2.68125 -7.8137,-3.555 -0.02,0.0187 -0.02,0.0375 -0.02,0.0762 2.4437,1.15875 4.8862,2.375 7.2712,3.66875 l 0.9888,0.34125 c 0.4075,0.8375 0.2525,2.03375 -0.2313,2.77625 -0.2337,0.2275 -0.5237,0.265 -0.8337,0.285 -1.4938,-0.36125 -1.94,-1.93875 -2.91,-2.9275 -1.7825,-2.11 -4.0525,-4.1825 -6.805,-4.67625 -2.1125,-0.5325 -4.6338,-0.60875 -6.805,-0.30375 0.3675,0.17 0.8525,0.17 1.2987,0.2275 -1.28,3.70625 -1.9587,7.68 -3.82,11.12 0.3888,-0.19 0.7563,-0.6275 0.97,-0.98875 l 0.2325,0.0762 c -0.175,0.76 -0.485,1.3875 -1.0087,1.99625 l 0.039,0.0575 c 0.485,-0.115 0.9125,-0.41875 1.3188,-0.59 l 0.1175,0.11375 c -0.5238,0.79875 -1.3975,1.40625 -2.25,1.7875 l 0.097,0.0762 c 0.5812,0.0563 1.1237,0.19 1.6475,0.38 -0.019,0.0763 0.039,0.17125 -0.039,0.20875 -5.0412,0.285 -9.6762,1.59625 -13.805,4.04875 -0.6012,0.55125 -1.2987,0.97 -1.88,1.59625 l 0.1538,-0.0375 c 0.5237,-0.3225 1.0287,-0.6275 1.5712,-0.9125 -0.2912,4.20125 0.7763,8.0025 2.405,11.52 1.0663,2.09125 2.5588,4.1425 4.575,5.645 l 0.019,-0.0188 -0.465,-0.66625 c 1.26,0.22875 2.2887,1.23625 3.2762,2.09125 l 0.02,-0.0188 c -0.64,-0.87375 -1.5312,-1.6725 -2.5012,-2.09125 0.3112,0 0.6787,0.17125 0.9887,0.19 -0.2712,-0.30375 -0.6775,-0.4175 -1.0862,-0.49375 1.28,-1.84375 1.8625,-4.39125 1.1062,-6.63375 2.4238,1.50125 3.2575,4.29625 3.6638,6.9375 0.2325,-0.87375 -0.078,-1.7675 0.155,-2.66 0.059,-0.0387 0.1362,-0.0575 0.2137,-0.0575 0.8725,1.6725 1.1825,3.61125 0.8913,5.645 l 0.039,0.0575 c 0.2138,-0.2275 0.3488,-0.49375 0.4663,-0.76 l 0.2137,0 c -0.1175,1.50125 -0.195,3.07875 -0.7187,4.42875 -0.155,0.2475 -0.2513,0.57 -0.465,0.76 -0.039,-0.55125 -0.058,-1.12125 -0.3875,-1.52125 0.5237,4.6775 -1.1438,8.89625 -4.13,12.31875 0.059,0.26625 0.3487,0.3225 0.5237,0.51375 0.31,0.1325 0.62,0.285 0.9688,0.36 -0.4263,0.22875 -0.9688,0.285 -1.4538,0.2475 0.057,0.285 0.7375,0.64625 0.2913,0.98875 -0.485,0.095 -0.8538,-0.17125 -1.2413,-0.32375 -0.1737,0.2275 0.2525,0.4 0.31,0.60875 0.059,0.20875 -0.097,0.36125 -0.2325,0.43625 -0.1937,0.02 -0.3875,-0.0187 -0.5425,-0.075 -1.9387,4.10625 -3.4712,8.345 -4.2662,12.88875 0,0.4925 -0.2513,1.10125 0.2712,1.40625 2.6375,1.15875 5.6038,1.615 8.5513,2.07125 l 7.2125,0.8175 c 2.6175,0.305 5.3712,0.38 7.6587,1.50125 0.2913,0.17125 0.4263,0.47625 0.33,0.78 -0.485,0.8175 -1.4362,1.045 -2.21,1.44375 -0.5237,0.285 -1.2225,0.305 -1.5712,0.85625 -0.1363,1.1025 -0.2913,2.35625 -1.3575,2.94625 -1.8038,0.57125 -3.7225,0.20875 -5.6225,0.57125 -1.745,0.22625 -2.5013,1.82375 -3.9175,2.775 -0.8138,0.2275 -1.6288,-0.115 -2.3063,-0.4575 -4.4975,-2.0325 -8.88,-4.61875 -12.6037,-8.1725 -0.1925,-0.2475 -0.3863,-0.495 -0.5038,-0.78 -0.4837,0.17125 -0.95,0.57 -1.4537,0.78 -3.5488,1.7475 -7.4063,2.755 -11.3425,3.5725 -1.0088,0.1525 -2.2688,0.0575 -3.2,-0.36 l -3.6825,-2.33875 c -1.8238,-0.36125 -3.7038,-0.6275 -5.2938,-1.54 -0.6987,-0.39875 -0.6387,-1.1975 -0.775,-1.8825 -1.0288,-1.00625 -2.1525,-1.92 -2.7537,-3.23125 -0.039,-0.24625 -0.135,-0.55125 0,-0.77875 0.5812,-0.6275 1.5125,-0.665 2.3662,-0.68375 l 4.245,0.1325 7.6975,0.45625 c 3.7038,0.115 7.2713,-0.0375 10.8575,-0.22875 l 1.3388,-0.17 0.1162,-0.21 c 1.105,-4.86625 1.105,-10.47375 0.8913,-15.51 -0.3875,0.285 -0.6,1.00625 -1.1625,0.9875 -0.3688,-0.475 -0.098,-1.17875 0,-1.65375 -0.35,0.17125 -0.66,0.475 -0.9313,0.74125 0.1363,-0.87375 0.465,-1.7675 1.2988,-2.2425 l 0,-0.0763 c -1.28,-1.14125 -2.2288,-2.585 -2.8875,-4.04875 l -0.1175,-0.0763 c -1.5313,-4.2775 -2.5013,-8.80125 -3.005,-13.49625 0.057,0.0375 0.155,0.095 0.1937,0.0188 -0.5625,-2.41375 -0.3887,-5.03625 -1.0475,-7.4125 -0.29,-1.1025 -0.465,-2.24375 -0.6587,-3.40375 l -0.059,-0.0375 c 0.059,-2.1675 0.9125,-4.03 1.8425,-5.83625 -0.7162,0.85625 -1.24,1.9775 -1.6675,3.02375 -0.31,0.96875 -0.5425,1.97625 -0.5237,3.04 -1.5313,1.04625 -2.675,2.6625 -3.4313,4.24 -0.7375,-0.26625 -1.59,-0.475 -2.405,-0.22875 0.7188,0.0763 1.455,0.11375 2.095,0.41875 0.057,0.0187 0.1163,0.0375 0.1738,0.11375 l 0,0.1525 c 1.92,1.69125 2.9287,4.0675 5.08,5.645 0.6212,4.77125 1.4737,9.42875 3.0637,13.83875 -0.7562,0.24625 -1.6862,-0.0575 -2.385,0.36125 -0.2912,0.3225 -0.6012,0.72125 -1.0275,0.78 -1.085,-0.22875 -2.0162,-1.065 -2.695,-1.92125 -1.5125,-2.07125 -2.1137,-4.5425 -2.075,-7.20375 0.096,-0.77875 0.2325,-1.76875 1.1438,-2.05375 0.31,-0.0375 0.5812,0.0388 0.815,0.21 1.1237,1.54 0.9112,3.63 1.395,5.455 l 0.039,-0.0763 c -0.135,-1.9575 -0.058,-3.9725 -1.1437,-5.56875 -0.2325,-0.1525 -0.135,-0.3425 0,-0.47625 0.2337,-0.20875 0.4662,-0.36 0.815,-0.30375 0.8137,0.32375 1.0475,1.1975 1.1237,1.99625 -0.5425,2.1675 -0.5812,4.3725 -0.2325,6.63375 0.059,-1.8825 0.02,-3.99125 0.3888,-5.835 0.2712,-0.76 0.5625,-1.5025 0.93,-2.22375 -1.105,-1.3125 -2.695,-1.71125 -4.1688,-2.30125 -1.5312,-0.475 -3.0437,-1.02625 -4.42,-1.8625 l -0.039,0.0375 0.4275,0.685 c -0.6988,-0.19 -1.4163,-0.6075 -1.96,-1.16 l -0.057,0.02 0.1162,0.8925 c -1.145,-0.6075 -1.6475,-1.9 -1.8037,-3.1175 -0.2513,0.17125 -0.3288,0.57 -0.5425,0.855 -0.6388,-1.88125 0.1362,-3.7825 1.3575,-5.17 3.4312,-3.45875 6.36,-7.3175 9.2875,-10.9675 0.6587,-0.685 1.2787,-1.36875 2.0937,-1.90125 -0.465,-0.11375 -0.815,0.0187 -1.26,0.0387 0,-0.0762 -0.097,-0.115 -0.079,-0.19125 0.9125,-0.68375 2.0362,-0.87375 3.2,-0.8925 -0.175,-0.17125 -0.4663,-0.2475 -0.6975,-0.30375 -0.059,-0.0388 -0.02,-0.115 -0.04,-0.1725 0.9125,-0.18875 1.8812,-0.0563 2.5412,0.495 -0.3113,0.6075 -0.7762,1.16 -1.145,1.74875 l 0.04,0.0375 c 1.8025,-1.805 3.0625,-3.89625 3.78,-6.1575 l -0.039,-0.0575 c -3.315,0.87375 -7.6,0.96875 -10.47,-0.95125 -0.039,-0.0563 -0.02,-0.15125 -0.096,-0.19 l -0.039,0.0962 c -1.3775,-0.76125 -2.3088,-2.0725 -3.5675,-3.15625 -3.5488,-1.16 -6.9225,-3.19375 -9.5213,-6.19625 -0.7362,-0.97 -1.5687,-2.18625 -0.9875,-3.46 0.9488,-0.855 2.5013,-0.36125 3.5675,-0.0763 1.9388,0.60875 3.645,1.7875 5.2738,3.04125 2.4425,0.38 5.1562,0.665 7.6775,0.45625 -0.35,-0.6075 -0.775,-1.36875 -0.4075,-2.0525 0.8537,-1.04625 2.21,-1.2925 3.51,-1.46375 l 1.5499,-0.0763 c 0.9126,-0.83625 0.6026,-2.1675 0.9701,-3.23125 0.2912,-1.1025 0.5437,-2.37625 1.6287,-3.0225 0.5813,-0.7225 1.1825,-1.84375 2.3075,-1.7675 0.4463,0.2275 0.3688,0.74125 0.3875,1.1975 0.155,0.0188 0.098,-0.19 0.1363,-0.285 0.076,-0.4375 0.019,-0.9125 -0.3488,-1.14125 l 0,-0.0762 c 1.1238,-1.12125 2.5388,-1.7675 3.9925,-2.26125 0.37,0.0763 0.6988,0.30375 1.0675,0.4175 -0.098,-0.36125 -0.6012,-0.39875 -0.795,-0.68375 -0.7362,-0.26625 -1.5125,-0.41875 -2.3463,-0.45625 l 0,-0.0762 c 0.9888,-0.36125 2.2301,-0.285 3.1601,0.11375 -0.3675,-1.1975 -1.435,-2.395 -2.5976,-2.9275 l 0,-0.075 c 0.1163,0.0375 0.2913,0.0188 0.3488,0.11375" />
      <path
         id="path7590"
         style="fill:#ffffff;fill-opacity:1;fill-rule:nonzero;stroke:none"
         d="m 1201.0685,-249.01813 c 0.6013,1.52125 0.096,3.4025 0.31,5.01875 -0.35,-1.3125 -0.2325,-2.77625 -0.3687,-4.16375 -0.039,-0.5125 -0.33,-1.045 -0.8538,-1.25375 l -0.795,-0.13375 c 0.5238,-0.20875 1.3388,-0.0187 1.7075,0.5325" />
      <path
         id="path7594"
         style="fill:#ffffff;fill-opacity:1;fill-rule:nonzero;stroke:none"
         d="m 1199.3615,-246.96513 c 0.7562,2.75625 0.098,5.7025 -0.8525,8.155 -0.02,-0.285 -0.1162,-0.59 -0.3687,-0.74125 -0.175,-0.0763 -0.4076,-0.0387 -0.5625,0.0563 -0.6788,0.60875 -0.62,1.54 -0.6,2.37625 -0.02,0.13375 0.096,0.2475 0.076,0.36125 -0.5425,0.4 -1.1238,0.875 -1.8225,0.70375 -0.3487,-1.825 -0.1162,-3.8775 0.2525,-5.62625 0.465,-1.825 1.1437,-3.57375 2.4238,-5.07625 0.3487,-0.36125 1.1437,-0.9125 1.4537,-0.20875" />
      <path
         id="path7598"
         style="fill:#ffffff;fill-opacity:1;fill-rule:nonzero;stroke:none"
         d="m 1193.797,-245.88163 c 0.2713,2.12875 -0.2712,4.23875 -0.7762,6.19625 -0.096,-0.095 -0.076,-0.4175 -0.3288,-0.475 -0.5812,0 -0.7762,0.6275 -0.93,1.0275 -0.079,0.38 -0.175,0.72125 -0.195,1.12125 -0.2325,-0.38 -0.135,-0.83625 -0.1537,-1.3125 0.135,-2.12875 0.3487,-4.3525 1.2975,-6.215 0.2137,-0.3425 0.8337,-0.98875 1.0862,-0.3425" />
      <path
         id="path7602"
         style="fill:#f7a800;fill-opacity:1;fill-rule:nonzero;stroke:none"
         d="m 1178.6543,-236.16813 c 0.7762,0.8175 1.5513,1.5775 2.2887,2.395 -0.4849,-0.98875 -1.3774,-1.92 -2.1524,-2.85125 3.4512,0.39875 6.96,0.74125 10.295,-0.11375 0.2712,-0.0762 0.6399,-0.21 0.6987,-0.55125 -0.3113,-0.76 -1.2225,-0.85625 -1.92,-1.065 0.4263,0.285 1.0662,0.41875 1.4537,0.89375 0.078,0.19 -0.1362,0.2275 -0.2324,0.30375 -0.8138,0.26625 -1.6863,0.41875 -2.5788,0.4375 -0.4462,-0.475 -0.95,-1.12125 -0.64,-1.80625 0.4075,-0.6275 1.1838,-0.77875 1.8425,-1.02625 0.795,-0.2275 1.6863,-0.30375 2.5775,-0.26625 0.7375,0.70375 0.4475,1.92 1.3,2.47125 0.7375,0.38 1.9963,-0.665 2.385,0.5325 0.31,0.5125 0.7363,1.08375 1.3388,1.21625 1.6075,-0.0575 2.6162,-1.4825 3.9537,-2.16625 1.5125,-1.19875 3.5875,-1.94 5.4875,-1.2175 2.0738,0.98875 3.8387,3.0225 4.7112,5.05625 0.1163,0.38 0.059,0.8175 -0.1937,1.14125 -1.435,1.36875 -3.5875,1.25375 -5.565,1.52 -1.8412,0.17125 -3.7213,0.305 -5.37,0.93125 0.5825,-1.71 0.9688,-3.51625 1.745,-5.15125 1.125,-0.3425 2.345,-0.45625 3.5675,-0.53125 l -0.096,-0.0763 c -2.2888,-0.305 -4.615,0.20875 -6.34,1.59625 0.7162,-0.3425 1.5312,-0.6275 2.3262,-0.83625 -0.99,2.33875 -1.3,4.92375 -2.735,7.0525 -1.9387,1.97625 -4.7687,2.22375 -7.6,2.28125 -2.4825,-0.0575 -4.6725,-0.83625 -6.5337,-2.32 -3.3738,-2.9275 -6.1075,-7.39375 -10.315,-9.295 -0.1938,-0.0762 -0.4075,-0.095 -0.6013,-0.15125 0.33,0.2275 0.8338,0.43625 1.2225,0.68375 2.5012,1.5775 4.4787,3.80125 6.34,6.02625 -2.89,-1.0275 -5.74,-2.8325 -7.9687,-5.095 -0.8538,-1.045 -1.9788,-2.1475 -1.6875,-3.5925 0.3874,-0.5325 1.2024,-0.41875 1.8412,-0.38 2.735,0.475 5.0613,2.03375 7.155,3.95375" />
      <path
         id="path7606"
         style="fill:#ffffff;fill-opacity:1;fill-rule:nonzero;stroke:none"
         d="m 1207.8733,-236.89063 c 0.019,0.0187 0,0.0187 -0.019,0.0375 l -0.039,-0.0375 0.057,0 z" />
      <path
         id="path7610"
         style="fill:#000000;fill-opacity:1;fill-rule:nonzero;stroke:none"
         d="m 1191.5866,-236.5105 c -0.2712,0.285 -0.62,0.60875 -1.0862,0.4375 -0.1538,-0.0762 -0.2125,-0.32375 -0.096,-0.45625 0.33,-0.22875 0.8725,-0.1525 1.1825,0.0187" />
      <path
         id="path7614"
         style="fill:#f7a800;fill-opacity:1;fill-rule:nonzero;stroke:none"
         d="m 1191.1606,-236.41538 c -0.175,0.095 -0.35,0.20875 -0.5625,0.1325 -0.039,-0.0187 -0.02,-0.075 -0.02,-0.11375 0.155,-0.0763 0.4075,-0.15125 0.5825,-0.0188" />
      <path
         id="path7618"
         style="fill:#000000;fill-opacity:1;fill-rule:nonzero;stroke:none"
         d="m 1193.2928,-234.57163 c -0.039,0.20875 -0.155,0.39875 -0.3675,0.45625 -0.1563,0 -0.3112,-0.0575 -0.3687,-0.20875 -0.1163,-0.4 0.2324,-0.74125 0.5037,-1.02625 l 0,-0.17125 c 0.2125,0.24625 0.3688,0.6075 0.2325,0.95" />
      <path
         id="path7622"
         style="fill:#f7a800;fill-opacity:1;fill-rule:nonzero;stroke:none"
         d="m 1193.0996,-235.02788 c 0,0.22875 0.039,0.58875 -0.1937,0.70375 -0.1163,0.0187 -0.1563,-0.115 -0.195,-0.17125 0.079,-0.22875 0.175,-0.475 0.3887,-0.5325" />
      <path
         id="path7626"
         style="fill:#ffffff;fill-opacity:1;fill-rule:nonzero;stroke:none"
         d="m 1197.8109,-225.33325 c -0.3688,0.87375 -0.7762,1.74875 -1.105,2.6425 -0.815,0.4175 -2.075,0.51375 -2.9088,0.0563 -0.2524,-0.19 -0.6012,-0.4175 -0.6199,-0.7225 0.4462,-0.8175 0.795,-1.6725 1.1824,-2.5275 1.0088,0.58875 2.2488,0.68375 3.4513,0.55125" />
      <path
         id="path7630"
         style="fill:#ffffff;fill-opacity:1;fill-rule:nonzero;stroke:none"
         d="m 1189.5706,-206.47651 c -0.9112,-2.89 -1.2987,-6.5775 0.4263,-9.2 -1.26,2.8125 -1.0863,6.21625 -0.4263,9.2" />
      <g
         id="g7632"
         transform="matrix(1.25,0,0,-1.25,1208.8815,-195.69925)">
        <path
           d="M 0,0 -0.061,0.06 0,0 Z"
           style="fill:#ffffff;fill-opacity:1;fill-rule:nonzero;stroke:none"
           id="path7634" />
      </g>
      <g
         id="g7636"
         transform="matrix(1.25,0,0,-1.25,570.80964,555.50712)">
        <g
           id="g7638"
           clip-path="url(#clipPath7640)">
          <g
             id="g7644"
             transform="translate(505.0912,588.3427)">
            <path
               d="m 0,0 c 0.139,0.107 0.233,0.289 0.372,0.365 -0.171,-0.623 -0.698,-1.186 -1.241,-1.673 0.403,-0.197 0.775,0.091 1.133,0.228 -0.9,-3.802 -2.249,-7.466 -3.801,-11.04 -0.17,0.486 -0.17,1.11 -0.233,1.703 -0.279,2.951 -0.124,6.372 0.125,9.337 0.108,0.015 0.248,0.046 0.278,0.168 0.031,0.213 -0.108,0.38 -0.232,0.516 l 0.031,0.503 0.078,0 0.698,-0.624 C -2.808,-0.045 -2.994,0.396 -3.273,0.791 -3.568,0.943 -3.894,1.019 -4.22,1.095 -2.715,1.004 -1.257,0.714 0,0"
               style="fill:#ffffff;fill-opacity:1;fill-rule:nonzero;stroke:none"
               id="path7646" />
          </g>
          <g
             id="g7648"
             transform="translate(501.0732,587.4001)">
            <path
               d="m 0,0 c -0.264,-3.893 -0.419,-7.954 0.202,-11.801 -0.481,-1.186 -1.086,-2.342 -1.582,-3.528 l -0.047,-0.699 c -2.978,-1.841 -6.375,-2.707 -9.819,-3.467 -0.884,-0.183 -1.891,-0.168 -2.698,0.197 l -2.916,1.87 c -1.459,0.29 -2.947,0.502 -4.219,1.217 -0.59,0.381 -0.295,1.171 -0.714,1.642 -0.822,0.7 -1.706,1.475 -2.032,2.494 -0.046,0.198 0.155,0.259 0.264,0.35 1.411,0.395 3.009,0.106 4.498,0.106 l 6.096,-0.365 c 3.366,-0.045 6.67,-0.03 10.005,0.275 0.046,-0.047 0,-0.122 0.046,-0.183 0.357,0.03 0.342,0.486 0.465,0.73 0.838,3.634 0.776,7.862 0.761,11.558 0.217,-0.153 0.434,-0.548 0.775,-0.457 0.263,0.182 -0.016,0.457 0.093,0.7 C -0.621,0.319 -0.294,0.152 0,0"
               style="fill:#f7a800;fill-opacity:1;fill-rule:nonzero;stroke:none"
               id="path7650" />
          </g>
          <g
             id="g7652"
             transform="translate(506.3625,586.0773)">
            <path
               d="M 0,0 C 0.465,0.091 0.419,0.624 0.543,0.973 0.698,0.639 1.009,0.243 1.381,0 c -1.52,-3.452 -2.932,-6.981 -3.444,-10.812 -0.046,-0.396 0,-0.837 0.388,-1.035 3.785,-1.581 8.128,-1.779 12.332,-2.296 0.031,0.045 0.092,0 0.123,0.045 l 0,-0.045 c 2.001,-0.289 4.126,-0.304 5.957,-1.034 0.17,-0.061 0.357,-0.182 0.465,-0.319 0,-0.213 -0.202,-0.366 -0.356,-0.472 -0.745,-0.41 -1.536,-0.715 -2.312,-1.079 -0.558,-0.228 -0.279,-0.852 -0.481,-1.247 -0.17,-0.487 -0.279,-1.035 -0.791,-1.323 -1.07,-0.366 -2.295,-0.183 -3.412,-0.32 -1.319,-0.046 -2.482,-0.502 -3.319,-1.536 -0.481,-0.364 -0.823,-1.11 -1.521,-0.836 -3.94,1.597 -7.584,3.726 -10.873,6.752 -0.357,0.364 -0.636,0.882 -0.481,1.459 2.373,5.019 4.483,10.159 5.786,15.634 C -0.527,0.988 -0.543,0.304 0,0"
               style="fill:#f7a800;fill-opacity:1;fill-rule:nonzero;stroke:none"
               id="path7654" />
          </g>
          <g
             id="g7656"
             transform="translate(517.3445,572.0713)">
            <path
               d="m 0,0 -0.077,0.015 0.108,0.03 C 0.046,0.015 0.015,0.015 0,0"
               style="fill:#ffffff;fill-opacity:1;fill-rule:nonzero;stroke:none"
               id="path7658" />
          </g>
        </g>
      </g>
      <path
         d="m 1223.6759,-158.70788 0.039,0 0,-0.0375 -0.039,0 0,0.0375 z"
         style="fill:#ffffff;fill-opacity:1;fill-rule:nonzero;stroke:none"
         id="path7660" />
    </g>
  </g>
</svg>
