<?xml version="1.0" encoding="UTF-8" standalone="no"?>
<svg
   xmlns:dc="http://purl.org/dc/elements/1.1/"
   xmlns:cc="http://creativecommons.org/ns#"
   xmlns:rdf="http://www.w3.org/1999/02/22-rdf-syntax-ns#"
   xmlns:svg="http://www.w3.org/2000/svg"
   xmlns="http://www.w3.org/2000/svg"
   version="1.1"
   id="svg20359"
   viewBox="0 0 159.83813 299.99999"
   height="84.666664mm"
   width="45.109871mm">
  <defs
     id="defs20361">
    <clipPath
       clipPathUnits="userSpaceOnUse"
       id="clipPath8648">
      <path
         d="m 473.4,33.137 27.221,0 0,49.653 -27.221,0 0,-49.653 z"
         id="path8650" />
    </clipPath>
  </defs>
  <metadata
     id="metadata20364">
    <rdf:RDF>
      <cc:Work
         rdf:about="">
        <dc:format>image/svg+xml</dc:format>
        <dc:type
           rdf:resource="http://purl.org/dc/dcmitype/StillImage" />
        <dc:title></dc:title>
      </cc:Work>
    </rdf:RDF>
  </metadata>
  <g
     transform="translate(-120.08091,83.352081)"
     id="layer1">
    <g
       transform="matrix(6.1912217,0,0,-6.1912217,-2815.1252,424.51919)"
       id="g8646"
       clip-path="url(#clipPath8648)">
      <g
         id="g8652"
         transform="translate(496.5591,43.3021)">
        <path
           d="m 0,0 c 0,0 0.523,0.103 0.387,-0.492 0,0 -0.098,-0.525 -0.439,-0.919 0,0 -0.348,-0.144 -0.421,0.341 0,0 0.453,1.037 0.473,1.07"
           style="fill:#fee4cd;fill-opacity:1;fill-rule:nonzero;stroke:none"
           id="path8654" />
      </g>
      <g
         id="g8656"
         transform="translate(496.5591,43.3021)">
        <path
           d="m 0,0 c 0,0 0.523,0.103 0.387,-0.492 0,0 -0.098,-0.525 -0.439,-0.919 0,0 -0.348,-0.144 -0.421,0.341 0,0 0.453,1.037 0.473,1.07 z"
           style="fill:none;stroke:#000000;stroke-width:0.148;stroke-linecap:butt;stroke-linejoin:miter;stroke-miterlimit:4;stroke-dasharray:none;stroke-opacity:1"
           id="path8658" />
      </g>
      <g
         id="g8660"
         transform="translate(496.2047,42.0486)">
        <path
           d="m 0,0 c 0,0 0.807,-0.368 1.647,0.512 0,0 -0.623,-1.549 -1.962,-1.03 0,0 0.164,0.367 0.315,0.518"
           style="fill:#fee4cd;fill-opacity:1;fill-rule:nonzero;stroke:none"
           id="path8662" />
      </g>
      <g
         id="g8664"
         transform="translate(496.2047,42.0486)">
        <path
           d="m 0,0 c 0,0 0.807,-0.368 1.647,0.512 0,0 -0.623,-1.549 -1.962,-1.03 0,0 0.164,0.367 0.315,0.518 z"
           style="fill:none;stroke:#000000;stroke-width:0.148;stroke-linecap:butt;stroke-linejoin:miter;stroke-miterlimit:6.25;stroke-dasharray:none;stroke-opacity:1"
           id="path8666" />
      </g>
      <g
         id="g8668"
         transform="translate(486.4725,35.6042)">
        <path
           d="m 0,0 c 0,0 -0.354,-0.558 -0.459,-0.912 0,0 -0.079,-0.177 0.026,-0.322 0,0 0.203,-0.367 1.437,-0.433 0,0 0.722,-0.092 1.503,0.204 0,0 0.663,0.256 1.345,0.977 0,0 -3.491,0.499 -3.852,0.486"
           style="fill:#000000;fill-opacity:1;fill-rule:nonzero;stroke:none"
           id="path8670" />
      </g>
      <g
         id="g8672"
         transform="translate(486.4725,35.6042)">
        <path
           d="m 0,0 c 0,0 -0.354,-0.558 -0.459,-0.912 0,0 -0.079,-0.177 0.026,-0.322 0,0 0.203,-0.367 1.437,-0.433 0,0 0.722,-0.092 1.503,0.204 0,0 0.663,0.255 1.345,0.977 0,0 -3.491,0.499 -3.852,0.486 z"
           style="fill:none;stroke:#000000;stroke-width:0.20999999;stroke-linecap:butt;stroke-linejoin:miter;stroke-miterlimit:4;stroke-dasharray:none;stroke-opacity:1"
           id="path8674" />
      </g>
      <g
         id="g8676"
         transform="translate(491.5322,35.4664)">
        <path
           d="m 0,0 c 0,0 -0.262,-0.394 -0.381,-0.952 0,0 -0.111,-0.459 0.125,-0.623 0,0 0.243,-0.23 1.562,-0.21 0,0 0.886,0 1.568,0.295 0,0 0.545,0.223 1.274,0.945 0,0 -3.931,0.643 -4.148,0.545"
           style="fill:#000000;fill-opacity:1;fill-rule:nonzero;stroke:none"
           id="path8678" />
      </g>
      <g
         id="g8680"
         transform="translate(491.5322,35.4664)">
        <path
           d="m 0,0 c 0,0 -0.263,-0.394 -0.381,-0.952 0,0 -0.111,-0.459 0.125,-0.623 0,0 0.243,-0.23 1.562,-0.21 0,0 0.886,0 1.568,0.295 0,0 0.545,0.223 1.273,0.945 0,0 -3.93,0.643 -4.147,0.545 z"
           style="fill:none;stroke:#000000;stroke-width:0.20999999;stroke-linecap:butt;stroke-linejoin:miter;stroke-miterlimit:4;stroke-dasharray:none;stroke-opacity:1"
           id="path8682" />
      </g>
      <g
         id="g8684"
         transform="translate(484.0951,46.685)">
        <path
           d="m 0,0 c 0,0 -0.031,-2.156 1.039,-3.777 0,0 -0.053,-2.69 1.352,-4.502 0,0 0.603,-0.813 1.443,-1.128 0,0 -1.089,-0.775 -1.693,-2.127 0,0 0.197,-0.8 1.798,-0.84 0,0 1.352,-0.091 2.113,0.617 0,0 0.722,0.604 1.05,1.444 0,0 0.289,0.604 0,1.024 0,0 -0.13,0.208 -0.383,0.377 0,0 -0.396,0.257 -0.548,0.496 0,0 -0.027,0.643 0.249,1.338 0,0 0.348,-0.866 0.827,-1.568 0,0 0.4,-0.637 1.483,-0.945 0,0 -0.932,-0.748 -1.391,-1.811 0,0 0.105,-0.867 1.142,-1.077 0,0 0.761,-0.196 1.706,-0.039 0,0 0.656,0.066 1.444,0.774 0,0 0.774,0.749 1.089,1.785 0,0 0.197,0.63 -0.066,0.985 0,0 -0.065,0.157 -0.538,0.525 0,0 -0.42,0.315 -0.879,0.748 0,0 -0.105,0.656 0.131,1.417 0,0 1.011,1.575 1.142,2.56 0,0 0.21,0.984 0.066,2.415 0,0 -3.479,7.927 -4.371,9.791 0,0 -2.389,0.578 -4.331,-0.341 0,0 -3.885,-3.675 -4.594,-7.166 0,0 0.484,-0.844 0.72,-0.975"
           style="fill:#fee4cd;fill-opacity:1;fill-rule:nonzero;stroke:none"
           id="path8686" />
      </g>
      <g
         id="g8688"
         transform="translate(484.0951,46.685)">
        <path
           d="m 0,0 c 0,0 -0.031,-2.156 1.039,-3.777 0,0 -0.053,-2.69 1.352,-4.502 0,0 0.603,-0.813 1.443,-1.128 0,0 -1.089,-0.775 -1.693,-2.127 0,0 0.197,-0.8 1.798,-0.84 0,0 1.352,-0.091 2.113,0.617 0,0 0.722,0.604 1.05,1.444 0,0 0.289,0.604 0,1.024 0,0 -0.13,0.208 -0.383,0.377 0,0 -0.396,0.257 -0.548,0.496 0,0 -0.027,0.643 0.249,1.338 0,0 0.348,-0.866 0.827,-1.568 0,0 0.4,-0.637 1.483,-0.945 0,0 -0.932,-0.748 -1.391,-1.811 0,0 0.105,-0.867 1.142,-1.077 0,0 0.761,-0.196 1.706,-0.039 0,0 0.656,0.066 1.444,0.774 0,0 0.774,0.749 1.089,1.785 0,0 0.197,0.63 -0.066,0.985 0,0 -0.065,0.157 -0.538,0.525 0,0 -0.42,0.315 -0.879,0.748 0,0 -0.105,0.656 0.131,1.417 0,0 1.011,1.575 1.142,2.56 0,0 0.21,0.984 0.066,2.415 0,0 -3.479,7.927 -4.371,9.791 0,0 -2.389,0.578 -4.331,-0.341 0,0 -3.885,-3.675 -4.594,-7.166 0,0 0.484,-0.844 0.72,-0.975 z"
           style="fill:none;stroke:#000000;stroke-width:0.20999999;stroke-linecap:butt;stroke-linejoin:miter;stroke-miterlimit:4;stroke-dasharray:none;stroke-opacity:1"
           id="path8690" />
      </g>
      <g
         id="g8692"
         transform="translate(481.1113,81.9178)">
        <path
           d="m 0,0 c 0,0 -2.776,0.169 -5.034,-2.246 0,0 -1.365,-1.313 -1.719,-2.822 0,0 -0.433,-1.221 0.118,-3.15 0,0 0.617,-2.284 2.586,-3.61 0,0 3.386,5.539 3.189,7.902 0,0 1.004,3.716 0.86,3.926"
           style="fill:#047cc1;fill-opacity:1;fill-rule:nonzero;stroke:none"
           id="path8694" />
      </g>
      <g
         id="g8696"
         transform="translate(481.1113,81.9178)">
        <path
           d="m 0,0 c 0,0 -2.776,0.169 -5.034,-2.246 0,0 -1.365,-1.313 -1.719,-2.822 0,0 -0.433,-1.221 0.118,-3.15 0,0 0.617,-2.284 2.586,-3.61 0,0 3.386,5.539 3.189,7.902 0,0 1.004,3.716 0.86,3.926 z"
           style="fill:none;stroke:#000000;stroke-width:0.20999999;stroke-linecap:butt;stroke-linejoin:miter;stroke-miterlimit:4;stroke-dasharray:none;stroke-opacity:1"
           id="path8698" />
      </g>
      <g
         id="g8700"
         transform="translate(481.8131,66.1658)">
        <path
           d="m 0,0 c 0,0 1.339,2.927 -0.538,5.617 0,0 -3.636,0.946 -4.305,-0.026 0,0 -0.341,-1.916 -0.131,-3.819 0,0 0.118,-1.72 1.352,-3.255 0,0 0.649,-0.853 1.207,-0.945 0,0 2.441,2.297 2.415,2.428"
           style="fill:#047cc1;fill-opacity:1;fill-rule:nonzero;stroke:none"
           id="path8702" />
      </g>
      <g
         id="g8704"
         transform="translate(481.8131,66.1658)">
        <path
           d="m 0,0 c 0,0 1.339,2.927 -0.538,5.617 0,0 -3.636,0.946 -4.305,-0.026 0,0 -0.341,-1.916 -0.131,-3.819 0,0 0.118,-1.72 1.352,-3.255 0,0 0.649,-0.853 1.207,-0.945 0,0 2.441,2.297 2.415,2.428 z"
           style="fill:none;stroke:#000000;stroke-width:0.20999999;stroke-linecap:butt;stroke-linejoin:miter;stroke-miterlimit:4;stroke-dasharray:none;stroke-opacity:1"
           id="path8706" />
      </g>
      <g
         id="g8708"
         transform="translate(487.575,58.9733)">
        <path
           d="m 0,0 c 0,0 -2.074,0.42 -3.911,2.861 0,0 -0.269,1.418 -2.166,-0.367 0,0 -0.827,-0.67 -1.142,-1.392 0,0 -0.289,-1.791 0.263,-2.303 0,0 0.131,-0.151 0.439,-0.138 0,0 2.291,-1.654 4.509,-4.37 0,0 -2.008,-2.271 -3.137,-4.738 0,0 -0.263,-0.499 -0.21,-0.814 0,0 0.121,-0.776 1.879,-1.222 0,0 -0.008,0.865 0.044,2.108 0,0 0.713,0.114 0.971,0.361 0,0 0.138,0.131 0.335,0.787 0,0 1.063,2.822 2.467,4.568 0,0 1.654,4.173 -0.341,4.659"
           style="fill:#047cc1;fill-opacity:1;fill-rule:nonzero;stroke:none"
           id="path8710" />
      </g>
      <g
         id="g8712"
         transform="translate(487.575,58.9733)">
        <path
           d="m 0,0 c 0,0 -2.074,0.42 -3.911,2.861 0,0 -0.269,1.418 -2.166,-0.367 0,0 -0.827,-0.67 -1.142,-1.392 0,0 -0.289,-1.791 0.263,-2.303 0,0 0.131,-0.151 0.439,-0.138 0,0 2.291,-1.654 4.509,-4.37 0,0 -2.008,-2.271 -3.137,-4.738 0,0 -0.263,-0.499 -0.21,-0.814 0,0 0.121,-0.776 1.879,-1.222 0,0 -0.008,0.865 0.044,2.108 0,0 0.713,0.114 0.971,0.361 0,0 0.138,0.131 0.335,0.787 0,0 1.063,2.822 2.467,4.568 0,0 1.654,4.173 -0.341,4.659 z"
           style="fill:none;stroke:#000000;stroke-width:0.20999999;stroke-linecap:butt;stroke-linejoin:miter;stroke-miterlimit:4;stroke-dasharray:none;stroke-opacity:1"
           id="path8714" />
      </g>
      <g
         id="g8716"
         transform="translate(488.2838,56.6896)">
        <path
           d="m 0,0 c 0,0 -0.315,-0.112 -0.459,-0.984 0,0 -0.184,-0.886 -0.105,-1.969 0,0 0.019,-0.354 0.157,-0.374 0,0 0.164,-0.099 0.505,0.302 0,0 1.07,1.096 1.602,1.476 0,0 0.387,1.437 -0.158,1.556 L 0,0 Z"
           style="fill:#ef3f42;fill-opacity:1;fill-rule:nonzero;stroke:none"
           id="path8718" />
      </g>
      <g
         id="g8720"
         transform="translate(488.2838,56.6896)">
        <path
           d="m 0,0 c 0,0 -0.315,-0.112 -0.459,-0.984 0,0 -0.184,-0.886 -0.105,-1.969 0,0 0.019,-0.354 0.157,-0.374 0,0 0.164,-0.099 0.505,0.302 0,0 1.07,1.096 1.602,1.476 0,0 0.387,1.437 -0.158,1.556 L 0,0 Z"
           style="fill:none;stroke:#000000;stroke-width:0.122;stroke-linecap:butt;stroke-linejoin:miter;stroke-miterlimit:4;stroke-dasharray:none;stroke-opacity:1"
           id="path8722" />
      </g>
      <g
         id="g8724"
         transform="translate(489.8784,56.3089)">
        <path
           d="m 0,0 c 0,0 -0.138,-0.249 -0.118,-0.761 0,0 -0.007,-0.479 0.19,-0.624 0,0 0.308,-0.339 0.945,-0.157 0,0 -0.006,0.938 0.44,1.7 0,0 -1.26,0.098 -1.457,-0.158"
           style="fill:#ef3f42;fill-opacity:1;fill-rule:nonzero;stroke:none"
           id="path8726" />
      </g>
      <g
         id="g8728"
         transform="translate(489.8784,56.3089)">
        <path
           d="m 0,0 c 0,0 -0.138,-0.249 -0.118,-0.761 0,0 -0.007,-0.479 0.19,-0.624 0,0 0.308,-0.339 0.945,-0.157 0,0 -0.006,0.938 0.44,1.7 0,0 -1.26,0.098 -1.457,-0.158 z"
           style="fill:none;stroke:#000000;stroke-width:0.122;stroke-linecap:butt;stroke-linejoin:miter;stroke-miterlimit:4;stroke-dasharray:none;stroke-opacity:1"
           id="path8730" />
      </g>
      <g
         id="g8732"
         transform="translate(485.6259,71.3699)">
        <path
           d="m 0,0 c 0,0 -0.374,0.072 -0.82,0.007 0,0 -0.164,0.131 -0.414,0.236 0,0 -0.485,0.21 -0.741,-0.033 0,0 -0.223,-0.157 -0.059,-0.761 0,0 0.223,-0.742 0.807,-1.267 0,0 1.864,1.47 1.227,1.818"
           style="fill:#fee4cd;fill-opacity:1;fill-rule:nonzero;stroke:none"
           id="path8734" />
      </g>
      <g
         id="g8736"
         transform="translate(485.6259,71.3699)">
        <path
           d="m 0,0 c 0,0 -0.374,0.072 -0.82,0.007 0,0 -0.164,0.131 -0.414,0.236 0,0 -0.485,0.21 -0.741,-0.033 0,0 -0.223,-0.157 -0.059,-0.761 0,0 0.223,-0.742 0.807,-1.267 0,0 1.864,1.47 1.227,1.818 z"
           style="fill:none;stroke:#000000;stroke-width:0.20999999;stroke-linecap:butt;stroke-linejoin:miter;stroke-miterlimit:4;stroke-dasharray:none;stroke-opacity:1"
           id="path8738" />
      </g>
      <g
         id="g8740"
         transform="translate(494.1375,74.5658)">
        <path
           d="m 0,0 c 0,0 -3.465,0.971 -6.563,-1.234 0,0 -2.651,-1.68 -3.832,-4.856 0,0 -0.919,-2.126 0.026,-4.279 0,0 0.525,-1.417 2.1,-2.73 0,0 1.168,-0.984 1.615,-1.535 0,0 -0.014,-0.552 -0.145,-1.05 0,0 -0.144,-0.486 -0.144,-0.722 0,0 -0.184,-0.945 0.814,-1.457 0,0 1.85,-1.037 4.397,-0.013 0,0 1.598,0.084 3.425,1.063 0,0 1.949,0.866 2.54,3.045 0,0 0.243,0.728 0.177,2.034 0,0 1.549,1.733 1.207,4.856 0,0 -0.209,2.914 -2.336,4.752 0,0 -0.103,1.333 -0.735,2.047 0,0 0.289,1.313 -0.249,1.47 0,0 -0.473,0.223 -1.142,-0.814 C 1.155,0.577 0.545,0.545 0,0"
           style="fill:#fee4cd;fill-opacity:1;fill-rule:nonzero;stroke:none"
           id="path8742" />
      </g>
      <g
         id="g8744"
         transform="translate(494.1375,74.5658)">
        <path
           d="m 0,0 c 0,0 -3.465,0.971 -6.563,-1.234 0,0 -2.651,-1.68 -3.832,-4.856 0,0 -0.919,-2.126 0.026,-4.279 0,0 0.525,-1.417 2.1,-2.73 0,0 1.168,-0.984 1.615,-1.535 0,0 -0.014,-0.552 -0.145,-1.05 0,0 -0.144,-0.486 -0.144,-0.722 0,0 -0.184,-0.945 0.814,-1.457 0,0 1.85,-1.037 4.396,-0.013 0,0 1.599,0.084 3.426,1.063 0,0 1.949,0.866 2.54,3.045 0,0 0.243,0.728 0.177,2.034 0,0 1.549,1.733 1.207,4.856 0,0 -0.209,2.914 -2.336,4.752 0,0 -0.103,1.333 -0.735,2.047 0,0 0.289,1.313 -0.249,1.47 0,0 -0.473,0.223 -1.142,-0.814 C 1.155,0.577 0.545,0.545 0,0 Z"
           style="fill:none;stroke:#000000;stroke-width:0.20999999;stroke-linecap:butt;stroke-linejoin:miter;stroke-miterlimit:4;stroke-dasharray:none;stroke-opacity:1"
           id="path8746" />
      </g>
      <g
         id="g8748"
         transform="translate(492.4641,56.8011)">
        <path
           d="m 0,0 c 0,0 -0.702,-0.02 -1.155,0.079 0,0 0.354,-0.256 0.866,-0.282 0,0 0.328,0.157 0.289,0.203"
           style="fill:#000000;fill-opacity:1;fill-rule:nonzero;stroke:none"
           id="path8750" />
      </g>
      <g
         id="g8752"
         transform="translate(498.4425,62.8649)">
        <path
           d="m 0,0 c 0,0 -0.013,0.368 -0.02,0.427 0,0 0.197,-0.086 0.21,-0.368 C 0.19,0.059 0.066,-0.066 0,0"
           style="fill:#000000;fill-opacity:1;fill-rule:nonzero;stroke:none"
           id="path8754" />
      </g>
      <g
         id="g8756"
         transform="translate(497.3137,72.433)">
        <path
           d="m 0,0 c 0,0 0.066,-0.755 0.026,-1.188 0,0 0.217,0.191 0.184,1.116 0,0 -0.171,0.118 -0.21,0.072"
           style="fill:#000000;fill-opacity:1;fill-rule:nonzero;stroke:none"
           id="path8758" />
      </g>
      <g
         id="g8760"
         transform="translate(496.6075,74.4165)">
        <path
           d="m 0,0 c 0,0 -0.072,0.066 -0.151,0.164 0,0 0.171,0.079 0.269,-0.02 C 0.118,0.144 0.039,-0.02 0,0"
           style="fill:#000000;fill-opacity:1;fill-rule:nonzero;stroke:none"
           id="path8762" />
      </g>
      <g
         id="g8764"
         transform="translate(495.3823,75.0908)">
        <path
           d="m 0,0 c 0,0 -0.105,-0.177 -0.19,-0.276 0,0 -0.099,0.112 -0.007,0.322 0,0 0.158,0 0.197,-0.046"
           style="fill:#000000;fill-opacity:1;fill-rule:nonzero;stroke:none"
           id="path8766" />
      </g>
      <g
         id="g8768"
         transform="translate(494.2256,74.5052)">
        <path
           d="m 0,0 c 0,0 -0.728,-0.702 -1.07,-1.444 0,0 0.02,0.571 0.893,1.556 0,0 0.184,0.006 0.177,-0.112"
           style="fill:#000000;fill-opacity:1;fill-rule:nonzero;stroke:none"
           id="path8770" />
      </g>
      <g
         id="g8772"
         transform="translate(496.1456,74.2508)">
        <path
           d="m 0,0 c 0,0 -0.689,-0.833 -0.965,-2.113 0,0 -0.118,1.194 0.965,2.113"
           style="fill:#000000;fill-opacity:1;fill-rule:nonzero;stroke:none"
           id="path8774" />
      </g>
      <g
         id="g8776"
         transform="translate(495.7125,73.6471)">
        <path
           d="m 0,0 c 0,0 0.44,-0.394 0.289,-1.838 0,0 0.367,1.418 -0.21,1.976 C 0.079,0.138 -0.007,0.033 0,0"
           style="fill:#000000;fill-opacity:1;fill-rule:nonzero;stroke:none"
           id="path8778" />
      </g>
      <g
         id="g8780"
         transform="translate(484.8056,71.278)">
        <path
           d="m 0,0 c 0,0 -0.197,-0.026 -0.433,-0.039 0,0 0.059,0.144 0.335,0.203 0,0 0.144,-0.118 0.098,-0.164"
           style="fill:#000000;fill-opacity:1;fill-rule:nonzero;stroke:none"
           id="path8782" />
      </g>
      <g
         id="g8784"
         transform="translate(485.4881,67.6621)">
        <path
           d="m 0,0 c 0,0 -0.499,0.125 -0.604,-0.125 0,0 -0.151,-0.216 -0.065,-0.958 0,0 -0.269,0.794 -0.033,1.09 0,0 0.184,0.262 0.702,-0.007"
           style="fill:#000000;fill-opacity:1;fill-rule:nonzero;stroke:none"
           id="path8786" />
      </g>
      <g
         id="g8788"
         transform="translate(489.8062,70.1624)">
        <path
           d="m 0,0 c 0,0 0.026,1.076 0.545,1.162 0,0 0.584,0.177 1.43,-1.352 0,0 -0.945,1.332 -1.437,1.181 C 0.538,0.991 0.184,0.938 0,0"
           style="fill:#000000;fill-opacity:1;fill-rule:nonzero;stroke:none"
           id="path8790" />
      </g>
      <g
         id="g8792"
         transform="translate(490.3837,72.0655)">
        <path
           d="M 0,0 C 0,0 0.513,-0.034 0.768,-0.276 0.768,-0.276 0.578,0.249 0,0"
           style="fill:#000000;fill-opacity:1;fill-rule:nonzero;stroke:none"
           id="path8794" />
      </g>
      <g
         id="g8796"
         transform="translate(489.5306,59.9839)">
        <path
           d="m 0,0 c 0,0 -0.079,1.273 -1.024,2.848 0,0 -1.155,1.956 -2.047,2.205 0,0 -0.42,0.013 -0.315,-0.84 0,0 0.131,-1.024 0.656,-1.982 0,0 0.302,-0.617 0.932,-1.234 0,0 0.814,-0.879 1.667,-1.338 0,0 0.183,0.262 0.131,0.341"
           style="fill:#ffffff;fill-opacity:1;fill-rule:nonzero;stroke:none"
           id="path8798" />
      </g>
      <g
         id="g8800"
         transform="translate(489.5306,59.9839)">
        <path
           d="m 0,0 c 0,0 -0.079,1.273 -1.024,2.848 0,0 -1.155,1.956 -2.047,2.205 0,0 -0.42,0.013 -0.315,-0.84 0,0 0.131,-1.024 0.656,-1.982 0,0 0.302,-0.617 0.932,-1.234 0,0 0.814,-0.879 1.667,-1.338 0,0 0.183,0.262 0.131,0.341 z"
           style="fill:none;stroke:#000000;stroke-width:0.148;stroke-linecap:butt;stroke-linejoin:miter;stroke-miterlimit:4;stroke-dasharray:none;stroke-opacity:1"
           id="path8802" />
      </g>
      <g
         id="g8804"
         transform="translate(486.6628,65.0371)">
        <path
           d="m 0,0 c 0,0 -0.558,0.295 -0.866,0.236 0,0 0.242,-0.078 0.571,-0.269 0,0 0.321,-0.046 0.295,0.033"
           style="fill:#000000;fill-opacity:1;fill-rule:nonzero;stroke:none"
           id="path8806" />
      </g>
      <g
         id="g8808"
         transform="translate(488.6184,61.6246)">
        <path
           d="m 0,0 c 0,0 -0.276,-0.19 0.079,-0.886 0,0 0.361,-0.676 0.722,-0.827 0,0 0.078,0.105 0.092,0.171 0,0 -0.066,0.715 -0.355,1.404 0,0 -0.335,0.289 -0.538,0.138"
           style="fill:#000000;fill-opacity:1;fill-rule:nonzero;stroke:none"
           id="path8810" />
      </g>
      <g
         id="g8812"
         transform="translate(492.5756,61.3358)">
        <path
           d="m 0,0 c 0,0 -0.814,0.604 -1.286,2.113 0,0 -0.355,0.788 -0.328,2.153 0,0 0.013,0.8 0.223,1.43 0,0 0.249,0.748 0.538,0.748 0,0 0.407,0.105 1.05,-1.299 0,0 0.289,-0.525 0.459,-1.221 0,0 0.302,-0.748 0.328,-3.018 C 0.984,0.906 0.459,0.551 0,0"
           style="fill:#ffffff;fill-opacity:1;fill-rule:nonzero;stroke:none"
           id="path8814" />
      </g>
      <g
         id="g8816"
         transform="translate(492.5756,61.3358)">
        <path
           d="m 0,0 c 0,0 -0.814,0.604 -1.286,2.113 0,0 -0.355,0.788 -0.328,2.153 0,0 0.013,0.8 0.223,1.43 0,0 0.249,0.748 0.538,0.748 0,0 0.407,0.105 1.05,-1.299 0,0 0.289,-0.525 0.459,-1.221 0,0 0.302,-0.748 0.328,-3.018 C 0.984,0.906 0.459,0.551 0,0 Z"
           style="fill:none;stroke:#000000;stroke-width:0.148;stroke-linecap:butt;stroke-linejoin:miter;stroke-miterlimit:4;stroke-dasharray:none;stroke-opacity:1"
           id="path8818" />
      </g>
      <g
         id="g8820"
         transform="translate(492.615,61.2702)">
        <path
           d="m 0,0 c 0,0 -0.21,-0.256 -0.302,-0.387 0,0 -0.033,0.17 0.197,0.492 0,0 0.092,-0.059 0.105,-0.105"
           style="fill:#000000;fill-opacity:1;fill-rule:nonzero;stroke:none"
           id="path8822" />
      </g>
      <g
         id="g8824"
         transform="translate(493.6125,62.1889)">
        <path
           d="m 0,0 c 0,0 0.518,0.4 0.997,0.709 0,0 -0.472,-0.112 -1.069,-0.571 0,0 0.006,-0.118 0.072,-0.138"
           style="fill:#000000;fill-opacity:1;fill-rule:nonzero;stroke:none"
           id="path8826" />
      </g>
      <g
         id="g8828"
         transform="translate(492.8119,64.0199)">
        <path
           d="m 0,0 c 0,0 -0.394,-0.118 -0.085,-1.083 0,0 0.203,-0.597 0.571,-0.892 0,0 0.249,0.144 0.262,0.197 0,0 0,0.531 -0.039,1.043 0,0 -0.29,0.844 -0.709,0.735"
           style="fill:#000000;fill-opacity:1;fill-rule:nonzero;stroke:none"
           id="path8830" />
      </g>
      <g
         id="g8832"
         transform="translate(489.9966,60.9158)">
        <path
           d="m 0,0 c 0,0 -0.354,-0.066 -0.663,-0.774 0,0 -0.249,-0.571 -0.223,-1.057 0,0 0,-0.302 0.164,-0.374 0,0 0.295,-0.19 1.188,-0.026 0,0 0.755,0.138 1.201,0.544 0,0 0.256,0.223 0.23,0.414 0,0 0.032,0.249 -0.453,0.63 0,0 -0.394,0.328 -0.847,0.531 0,0 -0.354,0.178 -0.597,0.112"
           style="fill:#fee4cd;fill-opacity:1;fill-rule:nonzero;stroke:none"
           id="path8834" />
      </g>
      <g
         id="g8836"
         transform="translate(489.9966,60.9158)">
        <path
           d="m 0,0 c 0,0 -0.354,-0.066 -0.663,-0.774 0,0 -0.249,-0.571 -0.223,-1.057 0,0 0,-0.302 0.164,-0.374 0,0 0.295,-0.19 1.188,-0.026 0,0 0.755,0.138 1.201,0.544 0,0 0.256,0.223 0.23,0.414 0,0 0.032,0.249 -0.453,0.63 0,0 -0.394,0.328 -0.847,0.531 0,0 -0.354,0.178 -0.597,0.112 z"
           style="fill:none;stroke:#000000;stroke-width:0.122;stroke-linecap:butt;stroke-linejoin:miter;stroke-miterlimit:4;stroke-dasharray:none;stroke-opacity:1"
           id="path8838" />
      </g>
      <g
         id="g8840"
         transform="translate(490.3509,60.8961)">
        <path
           d="m 0,0 c 0,0 0.341,0.131 0.643,0.368 0,0 -0.039,-0.263 -0.44,-0.46 0,0 -0.183,0.085 -0.203,0.092"
           style="fill:#000000;fill-opacity:1;fill-rule:nonzero;stroke:none"
           id="path8842" />
      </g>
      <g
         id="g8844"
         transform="translate(489.6947,58.6058)">
        <path
           d="m 0,0 c 0,0 -0.177,-0.315 -0.774,-0.577 0,0 0.649,0.045 0.984,0.584 C 0.21,0.007 0.033,0.059 0,0"
           style="fill:#000000;fill-opacity:1;fill-rule:nonzero;stroke:none"
           id="path8846" />
      </g>
      <g
         id="g8848"
         transform="translate(491.0197,58.5624)">
        <path
           d="m 0,0 c 0,0 1.569,0.096 2.087,1.461 0,0 0.565,-0.066 1.28,0.111 0,0 -0.472,-2.933 -2.638,-2.736 0,0 -0.217,0.606 -0.729,1.164"
           style="fill:#a64239;fill-opacity:1;fill-rule:nonzero;stroke:none"
           id="path8850" />
      </g>
      <g
         id="g8852"
         transform="translate(491.0197,58.5624)">
        <path
           d="m 0,0 c 0,0 1.569,0.096 2.087,1.461 0,0 0.565,-0.066 1.28,0.111 0,0 -0.472,-2.933 -2.638,-2.736 0,0 -0.217,0.606 -0.729,1.164 z"
           style="fill:none;stroke:#000000;stroke-width:0.148;stroke-linecap:butt;stroke-linejoin:miter;stroke-miterlimit:4;stroke-dasharray:none;stroke-opacity:1"
           id="path8854" />
      </g>
      <g
         id="g8856"
         transform="translate(491.0353,58.5644)">
        <path
           d="M 0,0 C 0,0 -0.717,-0.054 -1.111,0.048"
           style="fill:none;stroke:#000000;stroke-width:0.148;stroke-linecap:butt;stroke-linejoin:miter;stroke-miterlimit:4;stroke-dasharray:none;stroke-opacity:1"
           id="path8858" />
      </g>
      <g
         id="g8860"
         transform="translate(491.7422,57.3261)">
        <path
           d="m 0,0 c 0,0 -0.249,0.013 -0.348,0.066 0,0 0.099,0.059 0.322,0.072 0,0 0.059,-0.086 0.026,-0.138"
           style="fill:#000000;fill-opacity:1;fill-rule:nonzero;stroke:none"
           id="path8862" />
      </g>
      <g
         id="g8864"
         transform="translate(494.2622,59.6296)">
        <path
           d="m 0,0 c 0,0 -0.341,0 -0.676,-0.348 0,0 -0.446,0.138 -0.892,-0.485 0,0 -0.525,-0.709 -0.355,-1.372 0,0 1.306,0.112 1.923,2.205"
           style="fill:#f79c85;fill-opacity:1;fill-rule:nonzero;stroke:none"
           id="path8866" />
      </g>
      <g
         id="g8868"
         transform="translate(494.2622,59.6296)">
        <path
           d="m 0,0 c 0,0 -0.341,0 -0.676,-0.348 0,0 -0.446,0.138 -0.892,-0.485 0,0 -0.525,-0.709 -0.355,-1.372 0,0 1.306,0.112 1.923,2.205 z"
           style="fill:none;stroke:#000000;stroke-width:0.148;stroke-linecap:butt;stroke-linejoin:miter;stroke-miterlimit:4;stroke-dasharray:none;stroke-opacity:1"
           id="path8870" />
      </g>
      <g
         id="g8872"
         transform="translate(493.6125,59.2096)">
        <path
           d="m 0,0 c 0,0 -0.302,-0.348 -0.532,-0.847 0,0 0.007,0.42 0.427,0.932 0,0 0.138,-0.033 0.105,-0.085"
           style="fill:#000000;fill-opacity:1;fill-rule:nonzero;stroke:none"
           id="path8874" />
      </g>
      <g
         id="g8876"
         transform="translate(493.0875,60.0955)">
        <path
           d="m 0,0 c 0,0 -0.197,0.02 -0.381,0.072 0,0 0.059,-0.184 0.374,-0.23 0,0 0.033,0.125 0.007,0.158"
           style="fill:#000000;fill-opacity:1;fill-rule:nonzero;stroke:none"
           id="path8878" />
      </g>
      <g
         id="g8880"
         transform="translate(494.3934,60.2071)">
        <path
           d="m 0,0 c 0,0 0.545,0.112 1.083,0.446 0,0 -0.328,-0.433 -1.076,-0.597 0,0 -0.033,0.105 -0.007,0.151"
           style="fill:#000000;fill-opacity:1;fill-rule:nonzero;stroke:none"
           id="path8882" />
      </g>
      <g
         id="g8884"
         transform="translate(489.8259,59.6624)">
        <path
           d="m 0,0 c 0,0 0.107,-0.115 0.151,-0.256 0,0 0.125,-0.4 -0.092,-0.394 0,0 -0.138,-0.019 -0.151,0.289 0,0 -0.006,0.236 0.092,0.361"
           style="fill:#fee4cd;fill-opacity:1;fill-rule:nonzero;stroke:none"
           id="path8886" />
      </g>
      <g
         id="g8888"
         transform="translate(489.8259,59.6624)">
        <path
           d="m 0,0 c 0,0 0.107,-0.115 0.151,-0.256 0,0 0.125,-0.4 -0.092,-0.394 0,0 -0.138,-0.019 -0.151,0.289 0,0 -0.006,0.236 0.092,0.361 z"
           style="fill:none;stroke:#000000;stroke-width:0.081;stroke-linecap:butt;stroke-linejoin:miter;stroke-miterlimit:4;stroke-dasharray:none;stroke-opacity:1"
           id="path8890" />
      </g>
      <g
         id="g8892"
         transform="translate(489.8587,59.6804)">
        <path
           d="m 0,0 c 0,0 -0.085,0.138 -0.282,0.21 0,0 0.131,-0.125 0.236,-0.282 0,0 0.066,0.046 0.046,0.072"
           style="fill:#000000;fill-opacity:1;fill-rule:nonzero;stroke:none"
           id="path8894" />
      </g>
      <g
         id="g8896"
         transform="translate(490.7119,60.043)">
        <path
           d="m 0,0 c 0,0 0.187,-0.131 0.269,-0.361 0,0 0.117,-0.33 -0.092,-0.335 0,0 -0.157,-0.006 -0.216,0.263 0,0 -0.053,0.268 0.039,0.433"
           style="fill:#fee4cd;fill-opacity:1;fill-rule:nonzero;stroke:none"
           id="path8898" />
      </g>
      <g
         id="g8900"
         transform="translate(490.7119,60.043)">
        <path
           d="m 0,0 c 0,0 0.187,-0.131 0.269,-0.361 0,0 0.117,-0.33 -0.092,-0.335 0,0 -0.157,-0.006 -0.216,0.263 0,0 -0.053,0.268 0.039,0.433 z"
           style="fill:none;stroke:#000000;stroke-width:0.081;stroke-linecap:butt;stroke-linejoin:miter;stroke-miterlimit:4;stroke-dasharray:none;stroke-opacity:1"
           id="path8902" />
      </g>
      <g
         id="g8904"
         transform="translate(490.7611,60.0545)">
        <path
           d="m 0,0 c 0,0 -0.171,0.171 -0.341,0.197 0,0 0.164,-0.118 0.308,-0.263 0,0 0.053,0.053 0.033,0.066"
           style="fill:#000000;fill-opacity:1;fill-rule:nonzero;stroke:none"
           id="path8906" />
      </g>
      <g
         id="g8908"
         transform="translate(489.7603,55.528)">
        <path
           d="m 0,0 c 0,0 -0.505,0 -0.912,-0.289 0,0 0.203,0.368 0.899,0.447 C -0.013,0.158 0.02,0.02 0,0"
           style="fill:#000000;fill-opacity:1;fill-rule:nonzero;stroke:none"
           id="path8910" />
      </g>
      <g
         id="g8912"
         transform="translate(494.0391,57.0177)">
        <path
           d="m 0,0 c 0,0 0.558,1.116 1.444,1.247 0,0 1.043,0.184 1.975,-1.628 0,0 1.181,-2.034 1.693,-4.278 0,0 0.499,-1.759 -0.446,-3.78 0,0 -0.525,-1.129 -1.706,-1.838 0,0 0.288,-0.577 0.997,-0.997 0,0 -0.617,-0.932 -3.281,-0.762 0,0 -1.916,0 -3.373,0.998 0,0 -0.617,0.367 -0.906,0.919 0,0 -0.459,0.669 -0.341,3.018 0,0 0.131,2.94 1.444,4.725 0,0 1.26,1.838 1.312,2.1 0,0 0.526,0.057 1.188,0.276"
           style="fill:#047cc1;fill-opacity:1;fill-rule:nonzero;stroke:none"
           id="path8914" />
      </g>
      <g
         id="g8916"
         transform="translate(494.0391,57.0177)">
        <path
           d="m 0,0 c 0,0 0.558,1.116 1.444,1.247 0,0 1.043,0.184 1.975,-1.628 0,0 1.181,-2.034 1.693,-4.278 0,0 0.499,-1.759 -0.446,-3.78 0,0 -0.525,-1.129 -1.706,-1.838 0,0 0.289,-0.577 0.997,-0.997 0,0 -0.617,-0.932 -3.281,-0.762 0,0 -1.916,0 -3.373,0.998 0,0 -0.617,0.367 -0.906,0.919 0,0 -0.459,0.669 -0.341,3.018 0,0 0.131,2.94 1.444,4.725 0,0 1.26,1.838 1.312,2.1 0,0 0.526,0.057 1.188,0.276 z"
           style="fill:none;stroke:#000000;stroke-width:0.20999999;stroke-linecap:butt;stroke-linejoin:miter;stroke-miterlimit:4;stroke-dasharray:none;stroke-opacity:1"
           id="path8918" />
      </g>
      <g
         id="g8920"
         transform="translate(493.1203,56.7946)">
        <path
           d="m 0,0 c 0,0 0.401,-1.08 0.033,-2.796 0,0 -0.145,-0.695 -0.42,-1.135 0,0 -0.079,-0.164 -0.236,-0.111 0,0 -0.119,-0.007 -0.276,0.328 0,0 -0.335,0.649 -0.637,1.063 0,0 -0.302,0.497 -0.689,0.623 0,0 -0.052,0.702 0.381,1.582 0,0 0.597,0.111 1.129,0.341 0,0 0.361,0.013 0.715,0.105"
           style="fill:#ef3f42;fill-opacity:1;fill-rule:nonzero;stroke:none"
           id="path8922" />
      </g>
      <g
         id="g8924"
         transform="translate(493.1203,56.7946)">
        <path
           d="m 0,0 c 0,0 0.401,-1.08 0.033,-2.796 0,0 -0.145,-0.695 -0.42,-1.135 0,0 -0.079,-0.164 -0.237,-0.111 0,0 -0.118,-0.007 -0.275,0.328 0,0 -0.335,0.649 -0.637,1.063 0,0 -0.302,0.497 -0.689,0.623 0,0 -0.052,0.702 0.381,1.582 0,0 0.597,0.111 1.129,0.341 0,0 0.361,0.013 0.715,0.105 z"
           style="fill:none;stroke:#000000;stroke-width:0.122;stroke-linecap:butt;stroke-linejoin:miter;stroke-miterlimit:4;stroke-dasharray:none;stroke-opacity:1"
           id="path8926" />
      </g>
      <g
         id="g8928"
         transform="translate(491.0991,55.9546)">
        <path
           d="m 0,0 c 0,0 0.544,0.078 0.991,0.072 0,0 -0.21,0.158 -0.919,0.086 C 0.072,0.158 -0.013,0.026 0,0"
           style="fill:#000000;fill-opacity:1;fill-rule:nonzero;stroke:none"
           id="path8930" />
      </g>
      <g
         id="g8932"
         transform="translate(491.0137,55.6199)">
        <path
           d="m 0,0 c 0,0 0.551,0 0.833,-0.236 0,0 -0.479,0.085 -0.885,0.092 0,0 0.019,0.131 0.052,0.144"
           style="fill:#000000;fill-opacity:1;fill-rule:nonzero;stroke:none"
           id="path8934" />
      </g>
      <g
         id="g8936"
         transform="translate(491.2303,56.3418)">
        <path
           d="m 0,0 c 0,0 0.604,0.105 1.175,0.348 0,0 0.558,0.039 1.174,0.197"
           style="fill:none;stroke:#000000;stroke-width:0.20999999;stroke-linecap:butt;stroke-linejoin:miter;stroke-miterlimit:4;stroke-dasharray:none;stroke-opacity:1"
           id="path8938" />
      </g>
      <g
         id="g8940"
         transform="translate(494.144,56.998)">
        <path
           d="m 0,0 c 0,0 -0.387,-0.709 -0.61,-1.634 0,0 -0.105,0.558 0.367,1.595 0,0 0.23,0.164 0.243,0.039"
           style="fill:#000000;fill-opacity:1;fill-rule:nonzero;stroke:none"
           id="path8942" />
      </g>
      <g
         id="g8944"
         transform="translate(496.9462,46.813)">
        <path
           d="m 0,0 c 0,0 -0.243,-0.118 -0.341,-0.079 0,0 -1.07,0.23 -1.05,6.491 0,0 -0.328,-5.579 0.814,-6.583 0,0 0.157,-0.151 0.308,-0.131 0,0 0.151,-0.006 0.374,0.131 C 0.105,-0.171 0.053,0 0,0"
           style="fill:#000000;fill-opacity:1;fill-rule:nonzero;stroke:none"
           id="path8946" />
      </g>
      <g
         id="g8948"
         transform="translate(487.5684,59.9839)">
        <path
           d="m 0,0 c 0,0 0.289,-0.249 0.341,-0.656 0,0 -0.223,0.216 -0.426,0.433 0,0 0.039,0.249 0.085,0.223"
           style="fill:#000000;fill-opacity:1;fill-rule:nonzero;stroke:none"
           id="path8950" />
      </g>
      <g
         id="g8952"
         transform="translate(485.685,53.2442)">
        <path
           d="m 0,0 c 0,0 1.004,1.129 1.542,1.575 0,0 -0.597,-0.21 -1.719,-1.47 0,0 0.059,-0.177 0.177,-0.105"
           style="fill:#000000;fill-opacity:1;fill-rule:nonzero;stroke:none"
           id="path8954" />
      </g>
      <g
         id="g8956"
         transform="translate(483.6637,61.3752)">
        <path
           d="m 0,0 c 0,0 -0.341,0.407 -0.545,0.637 0,0 -1.634,-0.65 -2.356,-2.054 0,0 -0.236,-0.683 0.014,-0.906 0,0 0.078,-0.085 0.21,-0.092 0,0 0.328,-0.472 0.866,-0.906 0,0 1.509,1.234 1.811,3.321"
           style="fill:#ffffff;fill-opacity:1;fill-rule:nonzero;stroke:none"
           id="path8958" />
      </g>
      <g
         id="g8960"
         transform="translate(483.6637,61.3752)">
        <path
           d="m 0,0 c 0,0 -0.341,0.407 -0.545,0.637 0,0 -1.634,-0.65 -2.356,-2.054 0,0 -0.236,-0.683 0.013,-0.906 0,0 0.079,-0.085 0.211,-0.092 0,0 0.328,-0.472 0.866,-0.906 0,0 1.509,1.234 1.811,3.321 z"
           style="fill:none;stroke:#000000;stroke-width:0.122;stroke-linecap:butt;stroke-linejoin:miter;stroke-miterlimit:4;stroke-dasharray:none;stroke-opacity:1"
           id="path8962" />
      </g>
      <g
         id="g8964"
         transform="translate(480.9862,58.9602)">
        <path
           d="m 0,0 c 0,0 0.546,-0.05 1.339,0.945 0,0 0.84,1.011 0.997,1.877"
           style="fill:none;stroke:#000000;stroke-width:0.122;stroke-linecap:butt;stroke-linejoin:miter;stroke-miterlimit:4;stroke-dasharray:none;stroke-opacity:1"
           id="path8966" />
      </g>
      <g
         id="g8968"
         transform="translate(483.3223,61.7757)">
        <path
           d="m 0,0 c 0,0 -0.232,0.268 -0.328,0.374 0,0 0.105,1.089 -0.184,2.362 0,0 -0.247,1.25 -0.958,1.825 0,0 -0.328,0.289 -0.787,0.197 0,0 -0.88,-0.132 -1.523,-1.287 0,0 -0.35,-0.611 -0.433,-1.404 0,0 -0.932,0.473 -1.706,2.113 0,0 -0.302,-0.079 -0.289,-0.984 0,0 0.007,-0.414 0.072,-0.742 0,0 -0.479,-0.111 -0.059,-1.384 0,0 0.42,-1.195 1.365,-1.536 0,0 0.276,-0.144 0.709,-0.144 0,0 0.249,-0.617 0.774,-0.932 0,0 0.31,-0.201 0.748,-0.158 0,0 0.393,-0.512 0.832,-0.899 0,0 1.265,0.81 1.767,2.599"
           style="fill:#fee4cd;fill-opacity:1;fill-rule:nonzero;stroke:none"
           id="path8970" />
      </g>
      <g
         id="g8972"
         transform="translate(483.3223,61.7757)">
        <path
           d="m 0,0 c 0,0 -0.232,0.268 -0.328,0.374 0,0 0.105,1.089 -0.184,2.362 0,0 -0.247,1.25 -0.958,1.825 0,0 -0.328,0.289 -0.787,0.197 0,0 -0.88,-0.132 -1.523,-1.287 0,0 -0.35,-0.611 -0.433,-1.404 0,0 -0.932,0.473 -1.706,2.113 0,0 -0.302,-0.079 -0.289,-0.984 0,0 0.007,-0.414 0.072,-0.742 0,0 -0.479,-0.111 -0.059,-1.384 0,0 0.42,-1.195 1.365,-1.536 0,0 0.276,-0.144 0.709,-0.144 0,0 0.249,-0.617 0.774,-0.932 0,0 0.31,-0.201 0.748,-0.158 0,0 0.393,-0.512 0.832,-0.899 0,0 1.265,0.81 1.767,2.599 z"
           style="fill:none;stroke:#000000;stroke-width:0.122;stroke-linecap:butt;stroke-linejoin:miter;stroke-miterlimit:4;stroke-dasharray:none;stroke-opacity:1"
           id="path8974" />
      </g>
      <g
         id="g8976"
         transform="translate(481.0584,57.6346)">
        <path
           d="m 0,0 c 0,0 0.589,0.006 1.437,1.116 0,0 0.748,0.84 1.09,2.198 0,0 0.144,0.551 0.078,0.886"
           style="fill:none;stroke:#000000;stroke-width:0.20999999;stroke-linecap:butt;stroke-linejoin:miter;stroke-miterlimit:4;stroke-dasharray:none;stroke-opacity:1"
           id="path8978" />
      </g>
      <g
         id="g8980"
         transform="translate(482.9374,62.1804)">
        <path
           d="m 0,0 c 0,0 -0.033,-0.272 -0.046,-0.436 0,0 0.154,0.166 0.166,0.409 0,0 -0.087,0.053 -0.12,0.027"
           style="fill:#000000;fill-opacity:1;fill-rule:nonzero;stroke:none"
           id="path8982" />
      </g>
      <g
         id="g8984"
         transform="translate(479.1094,63.8427)">
        <path
           d="m 0,0 c 0,0 -0.072,-0.623 0.118,-1.043 0,0 0.125,-0.309 0.355,-0.335 0,0 0.288,-0.099 0.544,0.361 0,0 0.086,0.138 0.125,0.236 0,0 0.138,0.289 0.223,0.42"
           style="fill:none;stroke:#000000;stroke-width:0.122;stroke-linecap:butt;stroke-linejoin:miter;stroke-miterlimit:4;stroke-dasharray:none;stroke-opacity:1"
           id="path8986" />
      </g>
      <g
         id="g8988"
         transform="translate(480.4981,63.4093)">
        <path
           d="m 0,0 c 0,0 0.506,0.919 1.181,1.589 0,0 -0.662,-0.4 -1.306,-1.569 0,0 0.059,-0.046 0.125,-0.02"
           style="fill:#000000;fill-opacity:1;fill-rule:nonzero;stroke:none"
           id="path8990" />
      </g>
      <g
         id="g8992"
         transform="translate(477.1866,64.2299)">
        <path
           d="m 0,0 c 0,0 0.164,-0.952 0.709,-1.549 0,0 0.722,-0.827 1.234,-0.459 0,0 0.199,0.168 0.113,0.547"
           style="fill:none;stroke:#000000;stroke-width:0.122;stroke-linecap:butt;stroke-linejoin:miter;stroke-miterlimit:4;stroke-dasharray:none;stroke-opacity:1"
           id="path8994" />
      </g>
      <g
         id="g8996"
         transform="translate(479.2012,61.1652)">
        <path
           d="m 0,0 c 0,0 0.801,0.013 0.965,0.65 0,0 0.118,0.466 -0.269,0.722"
           style="fill:none;stroke:#000000;stroke-width:0.122;stroke-linecap:butt;stroke-linejoin:miter;stroke-miterlimit:4;stroke-dasharray:none;stroke-opacity:1"
           id="path8998" />
      </g>
      <g
         id="g9000"
         transform="translate(480.5269,63.4883)">
        <path
           d="m 0,0 c 0,0 -0.158,-1.457 0.853,-2.258 0,0 -0.962,0.456 -0.983,2.09 0,0 0.091,0.168 0.13,0.168"
           style="fill:#000000;fill-opacity:1;fill-rule:nonzero;stroke:none"
           id="path9002" />
      </g>
      <g
         id="g9004"
         transform="translate(477.3637,66.0542)">
        <path
           d="M 0,0 C 0,0 0.637,-1.555 1.746,-2.212"
           style="fill:none;stroke:#000000;stroke-width:0.20999999;stroke-linecap:butt;stroke-linejoin:miter;stroke-miterlimit:4;stroke-dasharray:none;stroke-opacity:1"
           id="path9006" />
      </g>
      <g
         id="g9008"
         transform="translate(478.274,69.3124)">
        <path
           d="M 0,0 C 1.459,-0.349 3.315,2.184 4.146,5.656 4.976,9.129 4.45,12.203 3.009,12.577 1.557,12.953 -0.306,10.393 -1.137,6.92 -1.968,3.447 -1.459,0.349 0,0"
           style="fill:#047cc1;fill-opacity:1;fill-rule:nonzero;stroke:none"
           id="path9010" />
      </g>
      <g
         id="g9012"
         transform="translate(478.274,69.3124)">
        <path
           d="M 0,0 C 1.459,-0.349 3.315,2.184 4.146,5.656 4.976,9.129 4.45,12.203 3.009,12.577 1.557,12.953 -0.306,10.393 -1.137,6.92 -1.968,3.447 -1.459,0.349 0,0 Z"
           style="fill:none;stroke:#000000;stroke-width:0.20999999;stroke-linecap:butt;stroke-linejoin:miter;stroke-miterlimit:4;stroke-dasharray:none;stroke-opacity:1"
           id="path9014" />
      </g>
      <g
         id="g9016"
         transform="translate(474.2137,75.7077)">
        <path
           d="M 0,0 C 0,0 0.407,-1.641 2.52,-2.756"
           style="fill:none;stroke:#000000;stroke-width:0.148;stroke-linecap:butt;stroke-linejoin:miter;stroke-miterlimit:4;stroke-dasharray:none;stroke-opacity:1"
           id="path9018" />
      </g>
      <g
         id="g9020"
         transform="translate(476.865,74.8414)">
        <path
           d="M 0,0 C 0,0 0.735,-2.691 4.069,-3.583"
           style="fill:none;stroke:#000000;stroke-width:0.148;stroke-linecap:butt;stroke-linejoin:miter;stroke-miterlimit:4;stroke-dasharray:none;stroke-opacity:1"
           id="path9022" />
      </g>
      <g
         id="g9024"
         transform="translate(477.8494,78.4246)">
        <path
           d="M 0,0 C 0,0 1.798,1.562 4.83,1.286"
           style="fill:none;stroke:#000000;stroke-width:0.148;stroke-linecap:butt;stroke-linejoin:miter;stroke-miterlimit:4;stroke-dasharray:none;stroke-opacity:1"
           id="path9026" />
      </g>
      <g
         id="g9028"
         transform="translate(478.8337,80.2883)">
        <path
           d="M 0,0 C 0,0 -2.756,-0.433 -4.253,-2.796"
           style="fill:none;stroke:#000000;stroke-width:0.148;stroke-linecap:butt;stroke-linejoin:miter;stroke-miterlimit:4;stroke-dasharray:none;stroke-opacity:1"
           id="path9030" />
      </g>
      <g
         id="g9032"
         transform="translate(495.3882,40.4786)">
        <path
           d="m 0,0 c 0,0 -0.243,-0.348 -0.453,-0.597 0,0 0.184,-0.02 0.499,0.315 0,0 0,0.262 -0.046,0.282"
           style="fill:#000000;fill-opacity:1;fill-rule:nonzero;stroke:none"
           id="path9034" />
      </g>
      <g
         id="g9036"
         transform="translate(495.2257,38.99)">
        <path
           d="m 0,0 c 0,0 0.059,-0.597 0.23,-0.735 0,0 -0.007,0.354 -0.027,0.663 0,0 -0.19,0.118 -0.203,0.072"
           style="fill:#000000;fill-opacity:1;fill-rule:nonzero;stroke:none"
           id="path9038" />
      </g>
      <g
         id="g9040"
         transform="translate(492.9266,37.1711)">
        <path
           d="m 0,0 c 0,0 0.479,-0.138 1.221,-0.197 0,0 -0.447,-0.197 -1.464,0.039 0,0 0.191,0.132 0.243,0.158"
           style="fill:#000000;fill-opacity:1;fill-rule:nonzero;stroke:none"
           id="path9042" />
      </g>
      <g
         id="g9044"
         transform="translate(490.6266,39.5959)">
        <path
           d="m 0,0 c 0,0 -0.345,0.907 -0.42,1.153 0,0 -0.084,-0.45 0.238,-1.264 0,0 0.2,0.071 0.182,0.111"
           style="fill:#000000;fill-opacity:1;fill-rule:nonzero;stroke:none"
           id="path9046" />
      </g>
      <g
         id="g9048"
         transform="translate(490.4373,39.8425)">
        <path
           d="m 0,0 c 0,0 -0.959,-0.005 -2.042,0.5 0,0 0.676,-0.656 2.126,-0.702 0,0 -0.058,0.163 -0.084,0.202"
           style="fill:#000000;fill-opacity:1;fill-rule:nonzero;stroke:none"
           id="path9050" />
      </g>
      <g
         id="g9052"
         transform="translate(490.1606,38.3075)">
        <path
           d="m 0,0 c 0,0 0,-0.551 0.085,-0.761 0,0 0.099,0.164 0.125,0.61 0,0 -0.171,0.21 -0.21,0.151"
           style="fill:#000000;fill-opacity:1;fill-rule:nonzero;stroke:none"
           id="path9054" />
      </g>
      <g
         id="g9056"
         transform="translate(488.0245,37.3521)">
        <path
           d="m 0,0 c 0,0 0.4,-0.184 1.194,-0.184 0,0 -0.577,-0.275 -1.384,0.026 0,0 0.137,0.125 0.19,0.158"
           style="fill:#000000;fill-opacity:1;fill-rule:nonzero;stroke:none"
           id="path9058" />
      </g>
      <g
         id="g9060"
         transform="translate(485.2256,42.9543)">
        <path
           d="m 0,0 c 0,0 0.722,-1.221 1.483,-1.916 0,0 -0.787,0.38 -1.568,1.673 0,0 0.032,0.276 0.085,0.243"
           style="fill:#000000;fill-opacity:1;fill-rule:nonzero;stroke:none"
           id="path9062" />
      </g>
      <g
         id="g9064"
         transform="translate(484.1685,48.6044)">
        <path
           d="m 0,0 c 0,0 -0.527,-0.095 -0.83,-0.177 0,0 -0.712,-0.171 -0.968,-0.44 0,0 -0.21,-0.183 -0.072,-0.459"
           style="fill:none;stroke:#000000;stroke-width:0.20999999;stroke-linecap:butt;stroke-linejoin:miter;stroke-miterlimit:4;stroke-dasharray:none;stroke-opacity:1"
           id="path9066" />
      </g>
      <g
         id="g9068"
         transform="translate(480.7148,60.1347)">
        <path
           d="m 0,0 c 0,0 0.208,0.026 0.336,0.044 0,0 -0.133,-0.15 -0.341,-0.164 0,0 -0.008,0.061 0.005,0.12"
           style="fill:#000000;fill-opacity:1;fill-rule:nonzero;stroke:none"
           id="path9070" />
      </g>
      <g
         id="g9072"
         transform="translate(492.1556,67.6161)">
        <path
           d="m 0,0 c 0,0 -0.374,0.459 -0.768,0.532 0,0 0.315,-0.276 0.401,-0.388 0,0 0.374,-0.17 0.367,-0.144"
           style="fill:#000000;fill-opacity:1;fill-rule:nonzero;stroke:none"
           id="path9074" />
      </g>
    </g>
  </g>
</svg>
