<?xml version="1.0" encoding="UTF-8" standalone="no"?>
<svg
   xmlns:dc="http://purl.org/dc/elements/1.1/"
   xmlns:cc="http://creativecommons.org/ns#"
   xmlns:rdf="http://www.w3.org/1999/02/22-rdf-syntax-ns#"
   xmlns:svg="http://www.w3.org/2000/svg"
   xmlns="http://www.w3.org/2000/svg"
   version="1.1"
   id="svg35727"
   viewBox="0 0 200.00001 250.77567"
   height="70.774467mm"
   width="56.444447mm">
  <defs
     id="defs35729" />
  <metadata
     id="metadata35732">
    <rdf:RDF>
      <cc:Work
         rdf:about="">
        <dc:format>image/svg+xml</dc:format>
        <dc:type
           rdf:resource="http://purl.org/dc/dcmitype/StillImage" />
        <dc:title></dc:title>
      </cc:Work>
    </rdf:RDF>
  </metadata>
  <g
     transform="translate(383.57143,-406.97436)"
     id="layer1">
    <g
       transform="matrix(2.449725,0,0,2.449725,-990.49208,-883.76624)"
       id="g35658">
      <path
         id="path13316"
         style="fill:#000000;fill-opacity:1;fill-rule:nonzero;stroke:none"
         d="m 304.66707,536.34345 c 1.0625,2.73125 2.23625,5.46375 3.2625,8.23125 3.08,-1.9775 6.23375,-3.95375 10.23,-3.66625 0.73375,0.0712 1.43,0.575 1.75875,1.2225 0.5875,2.44375 -0.695,4.52875 -1.75875,6.47 -1.87,2.91125 -3.74,5.78625 -5.17,8.8425 1.98,4.025 4.36375,8.555 8.8725,10.7475 1.94375,0.93375 3.92375,1.8325 5.75625,3.01875 0.9175,0.79125 1.35625,1.83375 1.06375,2.98375 -1.46625,3.99 -5.86625,6.72125 -9.38625,8.69875 -2.01625,1.07875 -4.10625,2.0125 -6.19625,2.98375 3.04375,0.5025 6.05,1.0775 9.02,1.68875 -3.04375,-0.575 -6.34375,-1.15 -9.57,-1.51 -0.99,0.39625 -1.98,0.79125 -2.96875,1.15125 0.5125,0.8625 1.54,0.79 2.1625,1.40125 -0.0738,1.00625 -0.95375,1.7975 -1.79625,2.22875 0.47625,0.61125 1.24625,1.2225 1.9425,1.68875 -1.0625,0.57625 -2.82375,0.61125 -3.96,0.14375 -0.29375,0.32375 -0.4025,0.72 -0.80625,1.00625 -2.53,0 -4.5825,1.2225 -6.59875,2.445 -0.77125,4.4575 -2.20125,8.6625 -3.8875,12.76 -0.22,0.39625 -1.20875,0.2525 -0.87875,0.97125 0.76875,2.7675 2.455,5.10375 4.6925,7.26125 -0.0362,0.17875 -0.22,0.2875 -0.29375,0.43 0.77,0.97125 1.54,1.94125 2.53,2.80375 7.07625,-0.575 13.3825,-3.63 20.78875,-2.73125 2.09,0.32375 3.95875,1.18625 5.49875,2.73125 0.33,0.32375 0.51375,0.755 0.36625,1.2225 -1.09875,1.0425 -2.8225,0.8275 -4.3625,0.97125 -7.4425,-0.18 -15.215,-0.54 -22.475,-0.21625 -0.21875,-0.0362 -0.47625,-0.0713 -0.65875,-0.18 -1.06375,-1.22125 -2.2375,-2.48 -3.4475,-3.59375 -0.58625,0.035 -1.13625,0.1075 -1.65,-0.10875 -2.52875,-3.9175 -6.6725,-7.08125 -11.40125,-7.29625 -2.49375,-0.1075 -5.24375,-0.0725 -7.44375,0.97 0.51375,0.79125 1.32,1.36625 2.12625,1.76125 0.0375,0.36 -0.1825,0.6475 -0.47625,0.8275 1.50375,1.4375 3.19,3.01875 4.54625,4.52875 0.18375,0.25125 0.40375,0.61125 0.18375,0.935 -0.58625,0.64625 -1.5775,0.395 -2.3825,0.575 -8.21375,0.1075 -16.53625,1.0425 -24.85875,0.53875 -0.33,-0.0362 -0.77,-0.18 -0.88,-0.575 -0.44,-0.1075 -1.02625,-0.14375 -1.21,-0.6475 0.25625,-1.545 1.98,-2.1925 3.15375,-2.875 3.95875,-2.04875 8.68875,-0.32375 12.795,0.18 3.22625,0.6825 6.52625,1.365 10.00875,1.11375 -1.1725,-1.365 -2.67625,-2.3725 -3.995,-3.48625 -0.73375,-0.0362 -1.50375,-0.0362 -2.1275,-0.32375 -0.4025,-0.6825 -0.6225,-1.4375 -1.0625,-2.085 -7.18625,3.09125 -15.65625,3.1275 -22.54875,6.9375 -0.88,0.575 -2.01625,1.2225 -2.38375,2.265 0.22125,0.89875 1.28375,1.15 2.05375,1.365 5.72,1.15125 11.65875,0.72 17.415,1.54625 4.84,0.32375 9.6425,0.89875 14.00625,2.48 0.7325,0.36 1.68625,0.755 1.9425,1.6175 -0.0738,0.18 -0.0362,0.4675 -0.22,0.4675 -0.44,-1.83375 -2.56625,-2.0125 -4.06875,-2.51625 -8.17625,-1.905 -17.04875,-1.7975 -25.81125,-2.15625 -2.16375,-0.2525 -4.36375,-0.39625 -6.08625,-1.72625 -0.44,-0.61 -0.29375,-1.47375 0.0725,-2.08375 2.38375,-2.66 5.75625,-3.63125 8.91,-4.745 5.60875,-1.43875 11.365,-2.51625 16.60875,-4.88875 0.29375,-0.79125 1.1725,-1.29375 1.8325,-1.7975 1.50375,-1.0775 3.22625,-1.76125 4.54625,-3.19875 -0.25625,-0.21625 -0.69625,-0.1075 -1.02625,-0.0725 0.77,-2.4075 3.2625,-3.99 4.65625,-6.14625 -0.44,-0.14375 -1.06375,-0.0725 -1.54,-0.0362 -0.44,2.1925 -2.49375,4.20625 -4.73,4.67375 0.84375,-1.15125 1.50375,-2.58875 0.95375,-4.09875 -0.58625,0.10875 -1.13625,0.2525 -1.72375,0.39625 -0.1825,-0.32375 -0.25625,-0.68375 -0.33,-1.0425 -1.20875,-0.21625 -2.97,0.18 -3.84875,-0.8625 -0.0362,-0.4675 0.1825,-0.79125 0.55,-1.07875 1.13625,-0.64625 2.34625,-1.36625 3.40875,-2.12125 0.55125,-1.22125 0.8075,-2.5875 0.77125,-4.025 0,-0.21625 0.21875,-0.39625 0.47625,-0.36 1.46625,0.21625 2.75,1.07875 3.77625,2.22875 1.24625,-0.32375 2.56625,-0.575 3.77625,-0.89875 -3.15375,-0.2875 -6.19625,-0.89875 -8.6525,-2.80375 -3.96,2.91125 -7.81,6.61375 -11,10.31625 3.15375,-3.8825 6.82,-7.5125 10.7425,-10.53125 -0.65875,-0.71875 -1.09875,-1.69 -0.7325,-2.69625 -1.57625,0.32375 -3.1525,0.935 -4.6925,1.47375 -3.19,1.2575 -6.34375,2.5875 -9.3125,4.34875 4.325,-2.8025 9.3125,-4.74375 14.29875,-6.325 -4.2175,-1.51 -8.39625,-3.73875 -11.40375,-7.585 -4.6925,-5.75125 -4.105,-14.27 -2.3825,-21.17125 4.0325,-11.8625 13.23625,-24.37125 25.665,-29.655 3.0425,-1.2575 7.5525,-1.94125 10.44875,0.18 3.08,1.9775 5.09625,5.0675 6.52625,8.0875" />
      <path
         id="path13320"
         style="fill:#fdfd41;fill-opacity:1;fill-rule:nonzero;stroke:none"
         d="m 303.45744,535.1212 c 4.6925,9.4175 6.37875,20.02125 12.64875,28.7925 2.78625,4.0975 7.2225,5.14 10.9625,7.47625 0.6225,0.4675 1.02625,1.11375 1.17375,1.7975 -0.18375,2.515 -2.20125,4.34875 -4.14375,6.0025 -3.7025,2.91125 -7.8825,4.8525 -12.09875,6.5775 -0.77,-0.18 -1.65,-0.18 -2.45625,-0.35875 0.2925,-0.97125 0.87875,-1.7975 1.32,-2.7325 0.11,-0.32375 -0.1475,-0.575 -0.40375,-0.6825 -1.68625,-0.0363 -3.04375,0.8625 -4.47375,1.51 -0.8425,0.3225 -0.5125,1.58125 -1.57625,1.40125 -0.87875,-0.0362 -1.68625,-0.14375 -2.52875,-0.215 1.09875,-1.25875 2.01625,-2.58875 2.85875,-3.955 0.0375,-0.035 0.11,-0.035 0.18375,-0.0713 3.9225,-0.36 8.03,-0.36 11.915,-0.6475 -3.95875,-0.0713 -7.91875,0.10875 -11.7675,0.36 0.0363,-0.50375 0.4025,-0.97125 0.54875,-1.47375 0.44,-1.15125 0.77,-2.3725 0.9175,-3.63125 2.19875,0.28875 4.0325,-1.0775 5.27875,-2.83875 2.49375,-3.66625 2.01625,-9.3825 -0.25625,-12.97625 -0.51375,-0.68375 -1.1,-1.36625 -1.87,-1.6175 -1.32,-0.2875 -2.27375,0.71875 -3.0425,1.6175 -1.61375,2.1925 -2.31125,4.78 -3.85,7.00875 -4.80375,-0.0713 -9.71625,-0.79 -14.51875,-0.035 -3.04375,0.46625 -6.05,1.04125 -8.87375,2.0125 -0.0362,0.14375 0.0375,0.25125 0.1475,0.32375 1.2825,-0.10875 2.6025,-0.0725 3.88625,-0.145 -5.31625,1.83375 -10.23,5.465 -13.9325,10.065 0,0.0725 0.11,0.14375 0.18375,0.21625 l 0.11,0 c 2.56625,-2.40875 5.49875,-3.99 8.57875,-5.17625 -1.35625,1.545 -2.78625,3.1275 -3.63,4.92375 0.11,0.0725 0.18375,0.21625 0.33125,0.14375 0.91625,-0.97 1.87,-1.86875 2.85875,-2.66 -0.22,2.58875 -0.25625,4.925 -0.2925,7.585 -0.33,0.8625 -0.99,1.51 -1.5775,2.265 -6.1225,-1.69 -12.72125,-6.83 -14.18875,-13.22875 -1.43,-6.5775 -0.25625,-13.335 2.27375,-19.08625 4.50875,-10.5675 14.2625,-22.21375 25.81125,-25.84375 3.77625,-1.295 7.8825,-0.0363 10.4125,2.9475 1.32,1.33 2.23625,2.8025 3.08,4.34875" />
      <path
         id="path13324"
         style="fill:#fdfd41;fill-opacity:1;fill-rule:nonzero;stroke:none"
         d="m 319.36932,542.13057 c 0.69625,2.1925 -0.58625,4.0975 -1.46625,5.93125 -1.87,2.83875 -3.63,5.75125 -5.20625,8.69875 -1.90625,-3.66625 -3.11625,-7.72875 -4.54625,-11.64625 2.6025,-2.01375 5.535,-3.4875 8.90875,-3.84625 0.91625,-0.0362 1.76,0.14375 2.31,0.8625" />
      <path
         id="path13328"
         style="fill:#d48d00;fill-opacity:1;fill-rule:nonzero;stroke:none"
         d="m 311.30344,560.10295 c -0.3675,-0.18 -1.06375,-0.6475 -1.7225,-0.395 -1.5775,0.755 -2.4575,2.4075 -3.3375,3.7375 -0.8425,1.72625 -1.79625,3.4875 -1.90625,5.3925 0,0.35875 0.14625,0.71875 0.44,0.89875 0.44,0.17875 0.80625,-0.0725 1.1725,-0.2525 -0.33,0.8275 -1.0625,2.01375 -0.6225,3.16375 0.2925,0.25125 0.6225,0.43125 1.0625,0.32375 -0.4025,0.71875 -0.33,1.68875 -0.4025,2.48 -0.3675,1.725 -0.84375,3.45 -1.72375,4.96 -2.41875,0.21625 -4.87625,0.36 -7.2225,0.71875 -0.0362,-0.43125 0.22,-0.8625 0.44,-1.29375 1.13625,-0.53875 2.31,-1.07875 3.22625,-2.15625 -1.3925,0.89875 -2.86,1.76125 -4.54625,2.085 -2.2,0.3225 -4.73,0.43125 -5.94,2.5875 0.3675,0.18 0.73375,-0.89875 0.99125,-0.1075 -0.5875,0.3225 -1.2475,0.395 -1.76,0.79 -0.0738,0.14375 0.0725,0.21625 0.14625,0.2525 0.58625,-0.2875 1.1725,-0.50375 1.8325,-0.6475 0.29375,0.50375 0.29375,1.15 0.33,1.76125 -0.80625,-0.0362 -1.54,0.0713 -2.30875,0.1075 -0.22,0.0725 -0.11125,0.2525 0.0362,0.2875 0.7325,-0.0713 1.50375,0 2.2725,-0.035 -0.14625,2.04875 -1.2825,4.24125 -3.40875,4.92375 -1.87,0.50375 -3.92375,0.18 -5.39,-1.07875 -0.51375,-0.5025 -0.88,-1.0425 -1.13625,-1.6525 -0.0738,-0.18 0.1825,-0.21625 0.0738,-0.39625 -0.33125,0.14375 -0.29375,-0.6825 -0.55125,-0.14375 0,0.0725 0,0.18 -0.0362,0.2525 -1.6125,0.6825 -3.1525,1.58125 -4.5825,2.66 -0.62375,-0.50375 -1.02625,-1.295 -0.6975,-2.12125 0.0738,-0.43125 0.40375,-0.50375 0.77,-0.6475 1.43,-0.3225 2.86,-0.75375 4.32625,-1.00625 1.0275,1.29375 2.64,2.085 4.4,1.76125 1.46625,-0.43125 2.71375,-1.905 2.97,-3.37875 0.11,-0.61125 -0.11,-1.18625 -0.66,-1.51 -1.35625,-0.43125 -3.1525,-0.2875 -4.43625,0.21625 0.14625,-1.8325 -0.11,-3.775 -1.13625,-5.2475 -0.29375,-0.2525 -0.62375,-0.39625 -1.0275,-0.39625 -0.0362,0.10875 0.11,0.18 0.18375,0.25125 -1.13625,1.54625 -1.21,3.99125 -0.55,5.7875 0.11,0.32375 0.36625,0.575 0.55,0.8625 -0.36625,0.36 -0.51375,0.79125 -0.44,1.295 -1.46625,0.35875 -2.97,0.64625 -4.4,1.0775 0.8075,-1.0775 1.83375,-2.085 1.72375,-3.5225 0,-0.82625 0,-1.33 -0.0362,-2.12 -0.18375,-0.0725 -0.0375,-0.18 0,-0.2525 0,-1.68875 0.11,-3.3425 0.47625,-4.88875 4.0325,-3.19875 8.35875,-5.75 13.16125,-7.26 -0.0725,0.1075 -0.10875,0.53875 0.11,0.2875 0.2575,-0.25125 0.6975,-0.43125 0.99125,-0.18 0.43875,0.2875 0.6225,0.71875 0.91625,1.115 -0.0362,-0.57625 -0.3675,-1.18625 -0.88,-1.54625 2.82375,-0.8625 6.05,-1.2225 9.23875,-0.8625 0,0.25125 -0.32875,0.53875 -0.47625,0.82625 0.84375,-0.17875 1.46625,-1.11375 1.98,-1.8325 1.61375,-2.51625 2.09,-5.715 4.8025,-7.62 0.58625,-0.32375 1.21,0.035 1.68625,0.3225 0.3675,0.43125 0.84375,0.8625 1.0275,1.36625" />
      <path
         id="path13332"
         style="fill:#fee9d5;fill-opacity:1;fill-rule:nonzero;stroke:none"
         d="m 312.03632,561.75632 c 1.35625,3.45125 1.28375,8.16 -1.1725,11.07125 -1.13625,1.18625 -2.53,2.265 -4.18,1.8325 -0.33,-0.6825 0.22,-1.365 0.5125,-1.97625 0.40375,-0.53875 1.06375,-1.00625 1.43,-1.54625 -0.0362,-0.14375 -0.21875,-0.25125 -0.36625,-0.35875 -0.77,0.4675 -1.2825,1.7975 -2.38375,1.6525 -0.2925,-0.61 0,-1.4375 0.29375,-2.04875 0.40375,-0.97 1.1,-1.86875 1.79625,-2.73125 -0.33,-0.82625 -0.88,0.14375 -1.24625,0.32375 -0.55,0.43125 -0.91625,1.2225 -1.65,1.29375 -0.2925,-1.94125 0.77,-3.66625 1.54,-5.35625 0.80625,-1.365 1.76,-2.9825 3.3,-3.77375 0.91625,0.0362 1.65,0.935 2.12625,1.6175" />
      <path
         id="path13336"
         style="fill:#000000;fill-opacity:1;fill-rule:nonzero;stroke:none"
         d="m 293.66807,572.53995 c 0.47625,1.4375 0.55,3.055 0.44,4.6725 0.0363,0.0725 0.14625,0.0362 0.22,0 0.80625,-0.64625 1.68625,-1.15 2.64,-1.545 -1.76,1.11375 -3.63,2.48 -4.8775,4.16875 -0.11,-0.395 -0.69625,-0.1075 -0.98875,-0.25125 -1.94375,-0.89875 -2.09,-3.235 -1.94375,-5.17625 0.3675,-1.40125 0.84375,-3.01875 2.38375,-3.66625 -0.0375,-0.25125 -0.33,-0.2875 -0.44,-0.4675 1.1725,0.21625 2.12625,1.2225 2.56625,2.265" />
      <path
         id="path13340"
         style="fill:#ffffff;fill-opacity:1;fill-rule:nonzero;stroke:none"
         d="m 293.74132,575.23583 c -0.22,-0.14375 -0.51375,-0.32375 -0.73375,-0.14375 -0.77,0.4675 -0.55,1.47375 -0.55,2.265 0.0738,0.35875 0.18375,0.6825 0.51375,0.93375 -0.55,0.39625 -0.77,1.43875 -1.65,1.0425 -1.46625,-0.575 -1.79625,-2.22875 -1.8325,-3.66625 0,-1.905 0.54875,-3.99 2.45625,-4.70875 1.46625,0.935 1.7225,2.62375 1.79625,4.2775" />
      <path
         id="path13344"
         style="fill:#000000;fill-opacity:1;fill-rule:nonzero;stroke:none"
         d="m 281.38557,575.05582 c -0.33,-0.0713 -0.62375,-0.43125 -0.95375,-0.18 -0.91625,0.935 -0.84375,2.265 -0.9525,3.4875 -0.11,-1.36625 -0.2575,-3.05625 0.99,-3.8825 0.4025,-0.0362 0.7325,0.25125 0.91625,0.575" />
      <path
         id="path13348"
         style="fill:#ffffff;fill-opacity:1;fill-rule:nonzero;stroke:none"
         d="m 282.26544,578.03945 c 0.4025,0.8625 0.66,1.76125 0.73375,2.7675 -0.18375,-0.14375 -0.40375,-0.25125 -0.66,-0.14375 -0.58625,0.575 -0.47625,1.65375 -0.1475,2.33625 0,0.0725 0.11,0.14375 0.0737,0.2525 -0.18375,0.0713 -0.36625,0.25125 -0.5125,0.35875 -1.17375,-1.29375 -0.99125,-3.235 -0.66125,-4.8525 0.11,-0.35875 0.6975,-2.0125 1.17375,-0.71875" />
      <path
         id="path13352"
         style="fill:#a64338;fill-opacity:1;fill-rule:nonzero;stroke:none"
         d="m 296.52744,581.16682 c -1.65,0.32375 -3.33625,0.575 -4.95,1.00625 -0.0362,-0.215 -0.2925,-0.32375 -0.36625,-0.5025 1.5775,-1.36625 3.7025,-1.33125 5.72,-1.69 -0.14625,0.395 -0.29375,0.79125 -0.40375,1.18625" />
      <path
         id="path13356"
         style="fill:#000000;fill-opacity:1;fill-rule:nonzero;stroke:none"
         d="m 288.64482,580.66345 c -1.43,0.14375 -2.78625,0.4675 -3.95875,1.2225 0.98875,-1.07875 2.4925,-1.4025 3.95875,-1.2225" />
      <path
         id="path13360"
         style="fill:#d48d00;fill-opacity:1;fill-rule:nonzero;stroke:none"
         d="m 304.04369,580.7352 c -0.77,1.4025 -1.76,2.66 -2.86,3.8825 -1.46625,0.035 -2.93375,-0.14375 -4.43625,-0.14375 -0.11,-0.97125 -0.0362,-1.9775 0.11,-2.9125 2.34625,-0.395 4.76625,-0.61 7.18625,-0.82625" />
      <path
         id="path13364"
         style="fill:#a64338;fill-opacity:1;fill-rule:nonzero;stroke:none"
         d="m 296.30769,584.32982 c -0.0362,0.0712 -0.14625,0.0712 -0.18375,0.14375 -1.2825,-0.1075 -2.6025,-0.0362 -3.9225,-0.0725 0,-0.64625 -0.11,-1.2575 -0.40375,-1.8325 1.43,-0.53875 3.08,-0.68375 4.62,-0.97 -0.11,0.8975 -0.14625,1.79625 -0.11,2.73125" />
      <path
         id="path13368"
         style="fill:#d48d00;fill-opacity:1;fill-rule:nonzero;stroke:none"
         d="m 310.42307,582.42482 c -0.22,0.89875 -0.77,1.6175 -1.13625,2.40875 -0.29375,0.71875 -0.58625,1.6175 -0.2575,2.33625 0.62375,0.79 1.50375,1.15 2.3475,1.50875 -0.18375,0.79125 -0.88,1.61875 -1.65,1.87 -0.55,-0.43125 -0.88,-0.97125 -1.1,-1.54625 0.25625,0.2875 0.47625,0.8275 0.95375,0.68375 -0.29375,-0.2525 -0.51375,-0.54 -0.55125,-0.8625 0.18375,-0.18 0.4775,-0.18 0.55125,-0.4675 -0.51375,0.14375 -1.1375,0.35875 -1.7975,0.3225 -0.29375,-0.3225 -0.18375,-0.82625 -0.25625,-1.2575 0.18375,-0.0713 0.44,-0.14375 0.55,-0.32375 -1.6125,-0.32375 -2.56625,1.33 -3.66625,2.1575 -0.2575,-0.0725 -0.1475,-0.50375 -0.11,-0.68375 0.29375,-0.755 0.73375,-1.6175 1.54,-2.0125 0.88,-0.0362 1.75875,-0.14375 2.3825,-0.755 -0.55,0.1075 -1.13625,0.43125 -1.8325,0.395 0.25625,-0.8625 1.13625,-1.65375 1.90625,-2.12 -1.02625,0.1075 -1.90625,1.18625 -2.42,2.04875 -0.22,0.18 -0.47625,0.215 -0.7325,0.36 0.0362,-1.07875 0.2925,-2.22875 1.2825,-2.805 1.24625,-0.53875 2.42,-1.29375 3.9225,-1.32875 0,0.035 0.0375,0.0713 0.0738,0.0713" />
      <path
         id="path13372"
         style="fill:#a64338;fill-opacity:1;fill-rule:nonzero;stroke:none"
         d="m 295.64819,584.79707 c -0.66,0.79125 -1.1,1.65375 -1.43,2.5525 -1.46625,0.395 -1.43,2.04875 -1.61375,3.27 -0.11,0.50375 0,1.07875 -0.0725,1.54625 -0.0738,0.0362 -0.1475,0.0713 -0.22,0.0713 -0.2575,-1.29375 -0.8075,-2.48 -1.76125,-3.45 0.95375,-1.18625 1.5775,-2.51625 1.65125,-4.02625 1.13625,0.0362 2.30875,-0.035 3.44625,0.0362" />
      <path
         id="path13376"
         style="fill:#d48d00;fill-opacity:1;fill-rule:nonzero;stroke:none"
         d="m 300.74419,585.01282 c -0.58625,0.755 -1.35625,1.4375 -2.12625,1.94125 0.0725,-0.61125 0.36625,-1.18625 0.5125,-1.72625 -1.5025,1.47375 -1.32,3.55875 -1.86875,5.42875 -1.2475,1.50875 -2.97,2.4075 -4.73,2.91125 -0.95375,0.215 -0.5875,-0.8275 -0.99,-1.2225 -0.36625,-0.4675 -0.88,-1.07875 -1.50375,-1.07875 0.25625,0.21625 0.44,0.4675 0.5875,0.68375 -4.73,0.61125 -9.86375,0.35875 -13.6025,-2.265 l 0,-0.14375 c 1.43,-0.93375 2.86,-1.8325 4.3625,-2.55125 0.84375,2.15625 3.15375,3.3425 5.4625,3.30625 1.28375,-0.0362 2.38375,-0.53875 3.37375,-1.2575 0.91625,0.89875 1.43,2.04875 1.68625,3.27 0.0738,0.18 -0.44,0.39625 0,0.43125 1.87,-0.53875 4.25375,-1.725 4.73,-3.81 0.18375,-1.29375 0.0725,-2.73125 0.11,-4.0975 1.32,-0.0362 2.64,0.14375 3.99625,0.18" />
      <path
         id="path13380"
         style="fill:#f3a188;fill-opacity:1;fill-rule:nonzero;stroke:none"
         d="m 296.27107,584.83295 c -0.0362,2.445 0.73375,5.0325 -1.87,6.39875 -0.44,0.2875 -0.91625,0.53875 -1.3925,0.71875 0,-1.4025 -0.0738,-3.1275 0.99,-4.17 l 0.11,0 c -0.1475,0.6825 -0.33,1.29375 -0.1475,1.9775 0.51375,-1.72625 0.80625,-3.63125 2.31,-4.925" />
      <path
         id="path13384"
         style="fill:#ffffff;fill-opacity:1;fill-rule:nonzero;stroke:none"
         d="m 303.64069,585.19245 c -1.72375,0.89875 -3.2625,2.15625 -4.95,3.09125 -0.55,0.25125 -0.33,-0.36 -0.2925,-0.53875 1.13625,-0.71875 2.23625,-1.65375 3.1525,-2.69625 0.69625,0.0725 1.3925,0.1075 2.09,0.14375" />
      <path
         id="path13388"
         style="fill:#e20040;fill-opacity:1;fill-rule:nonzero;stroke:none"
         d="m 304.88744,585.3362 c -0.2575,0.8625 0,1.905 -0.77,2.5875 -0.22,0.39625 -0.29375,0.89875 -0.2575,1.36625 0.11,0.2875 0.4775,0.32375 0.69625,0.2875 0.99125,-0.395 1.43,-1.79625 2.5675,-2.0125 0.11,0.43125 -0.11,1.0425 0.36625,1.33 0.14625,0.18 0.44,0.18 0.6975,0.18 0.6225,1.29375 1.79625,2.44375 2.96875,3.37875 -1.5025,0.4675 -3.3725,0.18 -4.43625,-1.07875 0.3675,-0.0725 0.77,0.0362 1.06375,-0.18 -1.1,-0.14375 -2.23625,-0.32375 -3.04375,-1.0425 0.55,-0.1075 1.13625,-0.14375 1.6875,-0.2875 -4.07,-0.14375 -7.48,1.47375 -10.7425,3.27125 -0.0738,-0.1075 -0.0362,-0.25125 -0.0362,-0.35875 0.805,-0.50375 1.68625,-1.18625 2.235,-1.9775 1.72375,-1.25875 3.63,-2.12125 5.5,-3.01875 -1.9425,0.3225 -3.59375,1.50875 -5.31625,2.44375 0,-0.43125 0.1825,-0.79125 0.1825,-1.2225 2.1275,-1.15 4.07125,-2.875 6.30625,-3.77375 0.0738,0.1075 0.2575,0 0.33125,0.1075" />
      <path
         id="path13392"
         style="fill:#ffffff;fill-opacity:1;fill-rule:nonzero;stroke:none"
         d="m 311.37682,585.91145 c -0.66,0.32375 -1.35625,0.6825 -2.09,0.82625 0,-0.32375 -0.0362,-0.71875 0.18375,-1.0425 0.58625,0.14375 1.32,0.10875 1.90625,0.21625" />
      <path
         id="path13396"
         style="fill:#ffffff;fill-opacity:1;fill-rule:nonzero;stroke:none"
         d="m 306.24369,591.4467 c 0.0738,0.575 0,1.2225 0.22,1.76125 -2.16375,0.2525 -4.0325,1.15 -5.86625,2.1925 0.11,-1.33 0.25625,-2.73125 -0.11,-3.99 -0.0362,0.0362 -0.0725,0.0362 -0.11,0.0725 -0.0725,6.25375 -2.09,11.75375 -4.21625,17.18125 -3.3,1.7975 -8.13875,1.905 -11.21875,-0.43125 -1.61375,-1.11375 -3.26375,-2.26375 -5.17,-2.69625 1.54,-2.65875 4.32625,-4.74375 5.93875,-7.40375 0.3675,-0.6475 0.77125,-1.25875 1.0275,-1.94125 1.76,-0.6825 3.62875,-1.115 5.5725,-1.36625 0.2575,0.43125 0.84375,0.4675 1.3575,0.36 0.44,-0.43125 1.13625,0.18 1.64875,-0.21625 0.8075,-0.2875 1.1,-1.11375 1.21,-1.8325 2.31,-1.4025 4.91375,-2.33625 7.6625,-2.9125 0.5875,0.61125 1.43,0.755 2.05375,1.2225" />
      <path
         id="path13400"
         style="fill:#d48d00;fill-opacity:1;fill-rule:nonzero;stroke:none"
         d="m 281.34894,594.5382 c -0.73375,-0.71875 -1.54,-1.4375 -2.45625,-1.58125 0.80625,0.575 1.8325,1.11375 2.23625,2.085 -0.62375,-0.4675 -1.68625,-0.935 -2.67625,-0.6475 1.35625,0.1075 2.7125,0.79125 3.3725,2.04875 0.11,0.2875 0.1475,0.61125 0.1475,0.97 -0.8075,0.0362 -1.2475,-1.00625 -1.90625,-1.365 -0.1475,-0.14375 -0.77125,-0.10875 -0.44125,-0.4675 -0.8425,0.0712 -1.42875,1.0425 -1.90625,1.68875 -0.0738,0.32375 -0.2925,0.68375 -0.58625,0.8625 -0.40375,0 -0.73375,-0.17875 -1.02625,-0.43125 -0.0738,0.0725 -0.0375,0.2525 0.0725,0.28875 -0.33,0.25125 -0.8425,0.53875 -0.80625,0.97 0.44,-0.2875 0.9525,-0.89875 1.46625,-0.53875 0.73375,-0.21625 0.29375,0.61 0.40375,0.93375 -0.0362,0 -0.0362,0.0362 -0.0738,0.0725 -1.46625,0.0712 -3.00625,0.0712 -4.29,-0.39625 -0.14625,-0.1075 -0.14625,-0.35875 -0.0725,-0.5025 0.91625,-0.935 2.12625,-1.33 3.1525,-2.085 -0.43875,0.79125 0.47625,0.0363 0.55,-0.21625 0.8075,-1.29375 0.99,-2.83875 0.99,-4.4925 0.40375,-0.18 0.77,0.14375 1.17375,0.21625 0.98875,0.64625 2.52875,1.2575 2.67625,2.5875" />
      <path
         id="path13404"
         style="fill:#e20040;fill-opacity:1;fill-rule:nonzero;stroke:none"
         d="m 291.24832,593.2082 c -1.50375,0.395 -3.1525,0.43125 -4.5825,1.0425 1.54,-0.18 3.07875,-0.53875 4.65625,-0.6825 0.14625,0.43125 0.91625,0.25125 0.76875,0.8625 -4.105,0.82625 -8.24875,1.76125 -11.32875,4.8525 0.0362,0.035 0.0362,0.035 0.0362,0.0713 0.40375,-0.18 0.73375,-0.43125 1.06375,-0.61125 -0.11,2.1925 -1.5025,4.42125 -3.7025,5.2125 0.9525,-1.33 0.91625,-3.45125 0.0725,-4.81625 -0.18375,-0.32375 -0.55,-0.575 -0.58625,-0.935 0.44,-0.71875 0.84375,-1.545 1.57625,-2.085 1.1375,0.0725 1.65,1.94125 2.86,1.6175 0.44,-0.18 0.33,-0.79 0.22,-1.15 -0.2925,-0.8625 -0.44,-1.7975 -0.73375,-2.62375 2.16375,-0.61125 4.32625,-1.15 6.71,-1.2225 0.91625,-0.0362 1.79625,-0.1075 2.64,-0.25125 0.14625,0.215 0.29375,0.43125 0.33,0.71875" />
      <path
         id="path13408"
         style="fill:#e20040;fill-opacity:1;fill-rule:nonzero;stroke:none"
         d="m 295.24407,593.02857 c 0.0375,0.36 0.0738,0.71875 0.29375,1.00625 0.25625,-0.18 0.0738,-0.61125 0.44,-0.64625 0,0.28625 -0.11,0.64625 -0.2925,0.8975 -0.2575,0.2875 -0.625,0.43125 -0.95375,0.4675 -0.40375,-0.0362 -0.8075,-0.1075 -0.95375,-0.5025 -0.0738,-0.10875 0,-0.2875 -0.11,-0.39625 -0.51375,0.36 0.4775,1.00625 -0.36625,1.0425 -0.33,0.0725 -0.66,-0.0713 -0.73375,-0.395 -0.0362,-0.1075 -0.11,-0.25125 -0.14625,-0.395 0.99,-0.14375 1.90625,-0.6475 2.8225,-1.07875" />
      <path
         id="path13412"
         style="fill:#ffffff;fill-opacity:1;fill-rule:nonzero;stroke:none"
         d="m 286.48207,596.26357 c -0.6975,1.11375 -1.50375,2.15625 -2.42,3.1625 -0.58625,-0.035 -1.21,-0.035 -1.83375,-0.035 0.0375,-0.32375 0.11,-0.6475 0.0738,-1.00625 1.28375,-0.97125 2.71375,-1.5825 4.18,-2.12125" />
      <path
         id="path13416"
         style="fill:#ffffff;fill-opacity:1;fill-rule:nonzero;stroke:none"
         d="m 291.06519,610.49758 c 1.3925,-0.0713 2.8225,-0.2875 4.10625,-0.79 0.66,2.62375 2.2725,4.96 4.21625,7.1525 -0.91625,0 -1.90625,0.18 -2.31,1.07875 0.1475,0.3225 0.66,-0.4675 0.84375,0.17875 -1.21125,0.36 -1.3575,-1.18625 -2.05375,-1.725 -3.0425,-3.63 -7.07625,-5.96625 -11.98875,-5.75125 -2.49375,-0.0713 -4.87625,0.2875 -6.8925,1.36625 -0.11,0.14375 -0.2575,0.215 -0.29375,0.36 0.91625,-0.4675 1.1,0.82625 1.68625,1.0775 -1.1725,-0.1075 -2.3825,-0.0362 -3.37375,0.43125 -0.25625,-1.00625 -1.53875,-1.97625 -0.6225,-3.055 1.9425,-1.83375 4.32625,-2.5525 6.19625,-4.49375 3.4825,1.43875 6.30625,4.60125 10.48625,4.17" />
      <path
         id="path13420"
         style="fill:#d48d00;fill-opacity:1;fill-rule:nonzero;stroke:none"
         d="m 273.61282,612.18707 c -7.25875,3.3075 -15.9125,3.27125 -22.87875,7.225 -0.91625,0.61125 -2.45625,1.47375 -2.2725,2.73125 0.8425,1.2225 2.31,1.18625 3.52,1.5825 3.66625,0.64625 7.515,0.43125 11.32875,0.8625 -4.54625,-0.43125 -9.60625,0.215 -13.8225,-1.2225 -0.5125,-0.18 -1.02625,-0.5025 -1.32,-0.935 -0.33,-2.08375 2.05375,-3.01875 3.44625,-3.88125 6.78375,-3.4875 14.9225,-3.73875 21.85125,-6.90125 0.0375,0.17875 0.0738,0.35875 0.1475,0.53875" />
      <path
         id="path13424"
         style="fill:#d48d00;fill-opacity:1;fill-rule:nonzero;stroke:none"
         d="m 277.86569,613.94857 c 2.01625,1.725 4.25375,3.77375 5.94,5.7875 0.0725,0.3225 -0.29375,0.25125 -0.44,0.395 -8.25,0.215 -16.4625,1.00625 -24.455,0.82625 -0.73375,-0.1075 -1.6125,0.0725 -2.2,-0.35875 -0.0362,-0.61125 0.62375,-1.0075 1.06375,-1.36625 1.64875,-0.97 3.4825,-1.58125 5.5725,-1.4375 l 0,-0.0362 c -2.71375,-0.53875 -5.39,0.2875 -7.1125,2.33625 -0.0738,0.14375 -0.36625,0.0725 -0.51375,0.0362 -0.1825,-0.0362 -0.33,-0.25125 -0.22,-0.43125 1.3575,-1.6175 3.37375,-2.48 5.39,-2.9475 1.65,-0.18 3.3725,-0.0362 4.95,0.215 5.20625,0.61125 9.89875,2.3375 15.47125,2.05 0.18375,0.1075 0.33125,0.3225 0.55,0.2875 -0.14625,-1.15125 -1.5025,-2.01375 -2.3825,-2.87625 -0.95375,-0.79125 -1.94375,-1.545 -2.8975,-2.40875 0.44125,-0.035 0.84375,-0.17875 1.28375,-0.0713" />
      <path
         id="path13428"
         style="fill:#d48d00;fill-opacity:1;fill-rule:nonzero;stroke:none"
         d="m 299.38744,617.3632 c 1.0275,1.33 2.2,2.875 3.62875,3.77375 0.1475,-0.1075 -0.10875,-0.25125 0.0738,-0.3225 6.67375,-0.68375 12.65,-3.34375 19.725,-2.80375 1.3575,0.215 2.71375,0.46625 3.85,1.185 -1.57625,-0.3225 -3.63,-0.575 -5.2425,0.0362 2.23625,-0.18 4.65625,0 6.6,0.97125 0.33,0.215 0.69625,0.53875 0.8425,0.8625 0.11,0.4675 -0.47625,0.5025 -0.69625,0.64625 -2.2,0.50375 -4.73,0.39625 -7.04,0.2875 -6.41625,-0.395 -12.53875,-0.14375 -18.99125,-0.215 -1.28375,-1.47375 -2.53,-2.84 -3.8875,-4.24125 0.33125,-0.10875 0.6975,-0.21625 1.1375,-0.18" />
    </g>
  </g>
</svg>
