<?xml version="1.0" encoding="UTF-8" standalone="no"?>
<!-- Generator: Adobe Illustrator 13.0.1, SVG Export Plug-In . SVG Version: 6.00 Build 14948)  -->

<svg
   xmlns:dc="http://purl.org/dc/elements/1.1/"
   xmlns:cc="http://creativecommons.org/ns#"
   xmlns:rdf="http://www.w3.org/1999/02/22-rdf-syntax-ns#"
   xmlns:svg="http://www.w3.org/2000/svg"
   xmlns="http://www.w3.org/2000/svg"
   xmlns:sodipodi="http://sodipodi.sourceforge.net/DTD/sodipodi-0.dtd"
   xmlns:inkscape="http://www.inkscape.org/namespaces/inkscape"
   version="1.1"
   id="Layer_2"
   x="0px"
   y="0px"
   width="172.08797"
   height="328.82999"
   viewBox="0 0 172.08796 328.82998"
   enable-background="new 0 0 329.088 628.83"
   xml:space="preserve"
   inkscape:version="0.47 r22583"
   sodipodi:docname="Sylvester_the_Cat.svg"><metadata
   id="metadata202"><rdf:RDF><cc:Work
       rdf:about=""><dc:format>image/svg+xml</dc:format><dc:type
         rdf:resource="http://purl.org/dc/dcmitype/StillImage" /></cc:Work></rdf:RDF></metadata><defs
   id="defs200"><inkscape:perspective
     sodipodi:type="inkscape:persp3d"
     inkscape:vp_x="0 : 314.41501 : 1"
     inkscape:vp_y="0 : 1000 : 0"
     inkscape:vp_z="329.08801 : 314.41501 : 1"
     inkscape:persp3d-origin="164.54401 : 209.61001 : 1"
     id="perspective204" /></defs><sodipodi:namedview
   pagecolor="#ffffff"
   bordercolor="#666666"
   borderopacity="1"
   objecttolerance="10"
   gridtolerance="10"
   guidetolerance="10"
   inkscape:pageopacity="0"
   inkscape:pageshadow="2"
   inkscape:window-width="1280"
   inkscape:window-height="714"
   id="namedview198"
   showgrid="false"
   inkscape:zoom="0.37530015"
   inkscape:cx="164.544"
   inkscape:cy="314.41501"
   inkscape:window-x="-4"
   inkscape:window-y="-4"
   inkscape:window-maximized="1"
   inkscape:current-layer="Layer_2" />
<g
   id="XMLID_1_"
   transform="matrix(0.52292351,0,0,0.52292351,-1.8758097e-6,0)">
	<g
   id="g4">
		<path
   d="m 291.62,612.88 c 1.76,1.37 0.76,3.5 -0.37,3.87 l 0.01,0.03 c -9.75,3.56 -19.92,5.779 -27.09,6.39 -15.67,1.33 -51.34,3.33 -59.67,2.66 -8.33,-0.66 -24.33,2 -30,2 6,-6 10,-10 52,-17.33 13.92,-2.43 23.67,-5.04 30.87,-7.77 l 0.01,0.02 c 7.74,-0.63 15.12,-1.5 16.24,-1.25 1.13,0.25 1.399,1.96 -1.5,4.5 -3,2.62 -3.5,2.62 -4.74,3.62 2.87,-0.37 14.5,-3.37 18.24,-4.12 3.76,-0.75 6,0.75 2.38,3.12 -3.62,2.38 -12.5,5.63 -14.38,6.5 5,-1 16.26,-3.62 18,-2.24 z"
   id="path6"
   style="fill:#ffffff" />
		<path
   d="m 166.5,36 c -2,3 -6.75,11.5 -9.5,9 l -0.08,0.05 c -2.3,-3.7 -3.17,-7.72 -3.17,-11.05 0,-3.68 5.7,-20.66 15.18,-30.57 L 169,3.5 c 1,3.25 -0.5,25.25 -1.25,28.5 1.89,-0.15 4.03,0.72 5.64,1.87 1.16,0.82 2.051,1.79 2.36,2.63 C 171.5,34.75 168.5,33 166.5,36 z"
   id="path8"
   style="fill:#ffffff" />
		<path
   d="m 185.76,99.23 c -2.029,-1.33 -4.25,-2.5 -6.62,-3.47 l 0.11,-0.26 c 8.25,-4.25 8,-10.75 7.25,-13.25 -0.8,-2.68 -2.5,-3.25 -5.75,-2.5 3.25,-8.5 7.25,-16.5 12.25,-21.5 3.97,-3.97 9.22,-6.74 10.25,-3.25 2,6.75 0.25,15.75 -3.25,23.25 -2.95,6.33 -5.73,12.66 -11.48,17.03 l 0.461,0.57 c -1.531,1.19 -2.671,2.35 -3.221,3.38 z"
   id="path10"
   style="fill:#ffffff" />
		<path
   d="m 167.94,92.91 c -3.311,-0.45 -6.5,-0.67 -9.47,-0.61 v -0.13 c -0.95,-1.58 -1.96,-3.09 -3,-4.53 -1.7,-5.32 -0.46,-18.43 0.28,-23.89 0.75,-5.5 3,-11.5 8.25,-16 4.59,-3.94 7.5,-1.25 8.5,1.75 1,3 1.37,20.32 0,26.25 -2,-0.5 -5.19,-0.11 -6.75,3 -1.5,3 -2.25,8.17 2.21,14 l -0.02,0.16 z"
   id="path12"
   style="fill:#ffffff" />
		<path
   d="m 185.76,99.23 c 8.36,5.45 13.36,13.47 11.49,20.52 -2.86,10.76 -18.22,16.99 -34.56,12.64 C 146.35,128.05 135.97,114.71 139,104 c 2.35,-8.34 9.81,-11.51 19.47,-11.7 2.97,-0.06 6.16,0.16 9.47,0.61 0.76,0.1 1.529,0.22 2.31,0.34 3.11,0.5 6.11,1.37 8.89,2.51 2.37,0.97 4.59,2.14 6.62,3.47 z"
   id="path14"
   style="fill:#c90409" />
		<path
   d="m 36.67,553.25 c -0.61,-5.36 -0.89,-17.17 9.06,-24.22 l -0.11,-0.15 c 0.26,-3.38 6.25,-13 18.38,-13.13 11.62,-0.13 24.27,9.23 29.62,10 5.21,0.75 9.61,0.12 8.88,-2.92 3.5,0.09 3.25,2.92 5.5,4.42 2.25,1.5 1,-3 1.75,-4.5 0.75,-1.5 4,4.25 6.5,5.75 2.5,1.5 5,2.25 4,0.25 -1,-2 -1.5,-2.25 -2.5,-5.5 -1.05,-3.42 0.41,-2.55 3.25,0 7.25,6.5 14.25,7.25 22.75,9 h 0.01 c -0.02,1.25 -0.04,2.43 -0.06,3.5 -0.04,3.09 -0.03,5.38 0.05,6.5 0.39,5.5 0.48,8.84 2.93,12.45 l -0.18,0.13 c -10.33,10.34 -40.95,24.47 -65,24 C 64.38,578.5 58.62,573.5 56.12,570.5 l -0.1,-0.28 c 1.27,-0.47 2.57,-0.8 3.86,-0.97 0,-4 -2.87,-8.03 -5.63,-7 -0.94,0.35 -1.93,0.96 -2.91,1.79 -0.98,0.82 -1.93,1.85 -2.81,3.06 l -0.36,-0.27 C 44.08,564.37 42.5,562.67 40,559.62 l -0.03,-0.061 c 0.93,-0.43 1.87,-0.68 2.78,-0.68 -0.63,-4.26 -2.25,-6.63 -4.63,-6.88 -0.48,0.39 -0.96,0.81 -1.42,1.28 l -0.03,-0.029 z"
   id="path16"
   style="fill:#ffffff" />
		<path
   d="m 219.75,481 0.45,2.95 c -0.82,0 -1.41,0.819 -1.7,1.55 -0.5,1.25 -4.5,13.75 -9,17.5 -3.5,2.92 -16.25,16.07 -20.77,22.46 l -0.11,-0.08 c -0.12,-1.63 -0.87,-4 -3.62,-2.13 -2.75,1.87 -9.62,7.25 -11.25,8.13 1,-4 0.8,-6.189 -1,-4 -2.37,2.87 -11.13,8.5 -21.5,10.74 -3.54,0.77 -1.24,-1.65 0,-3.37 1.63,-2.25 4.25,-8 1,-5.75 -3.25,2.25 -6.87,5.38 -8.5,6.75 h -0.05 c 0.02,-1.07 0.04,-2.25 0.06,-3.5 0.01,-0.41 0.02,-0.83 0.03,-1.25 0.26,-12.39 0.98,-31.57 1.39,-43.76 0.19,-5.53 0.32,-9.62 0.32,-10.99 0,-5.75 -1.75,-9.75 -6.75,-13 C 168.75,454.5 178,417 177,408.67 v -0.34 c 9.33,0.11 19.51,-9.16 22,-9.83 -2,3.33 -4,4.83 -6.33,7.5 3.16,0.17 9,-2.67 13,-4.67 0.5,0 -2.17,2.84 -5.34,5 1,1.84 4.8,4.8 10.84,4.84 2.07,0.01 3.87,-0.22 5.47,-0.68 l 2.11,1.51 c 2.75,11 3,60.5 1,69 z"
   id="path18" />
		<path
   d="m 198.5,333.25 c 3.05,6.91 5.25,1.75 5.25,-0.5 0,-2.25 1,-30.5 -3,-41.5 -4,-11 -19.01,-33.54 -25.75,-37.75 -2,-1.25 -1.96,-0.75 -1.75,3.75 0.5,10.5 20.5,65.25 25.25,76 z m -48,-112 c 5.25,-25 16.25,-59.5 41.25,-68.25 1.1,-0.39 2.21,-0.71 3.32,-0.97 0.25,0.36 0.5,0.73 0.75,1.09 -1.851,0.5 -3.761,1.26 -6.07,2.38 -7.75,3.75 -23,25.75 -23.25,38.25 2.75,-4 6.25,-6.3 10,-6.5 4.75,-0.25 11.75,2.25 18,10.5 6.25,8.25 30.79,48.63 38.5,79.75 7,28.25 3.58,72.42 -2.83,80.33 0.05,0.1 0.1,0.21 0.14,0.35 l -0.189,0.07 c -5.24,-1.5 -6.811,-11.51 -7,-13 -0.12,-1 -2.5,-3.25 -2.62,-2.25 -0.3,2.37 0.25,6.88 0.38,9.12 -1.38,0 -3.5,-5.24 -4.63,-7.37 -1.13,-2.13 -1.63,-1 -2,-1 -0.37,0 -1,4.25 -1.25,8.25 -5.75,-2.12 -5.5,-13.12 -6.62,-13 -1.13,0.12 -3.5,12 -3.76,9.62 -0.24,-2.37 0.13,-7.24 0.13,-8.62 0,-1.38 -4.5,-4.12 -8,-4.12 -3.5,0 -7.5,3.12 -12.75,8 -5.25,4.87 -5.88,10.37 -5.38,13.24 0.5,2.88 7.5,7.63 13.5,10.63 h 0.01 c -0.24,1.36 -0.56,2.65 -0.96,3.75 0.66,-2.33 -2.34,-6 -9.67,-6 -2,0 -4.21,0.51 -6.36,1.54 l -0.02,-0.04 c -1,-4.38 -18.62,-57.75 -20.37,-70.25 -1.75,-12.5 -7.501,-50.5 -2.251,-75.5 z"
   id="path20" />
		<path
   d="m 134.5,68.25 c 6.5,3 11.75,-5.75 16.75,-11.5 -0.25,3 1.25,0.75 2.75,-0.75 1.5,-1.5 4.5,-8.75 4.5,-8.75 -0.59,-0.72 -1.11,-1.45 -1.58,-2.2 L 157,45 c 2.75,2.5 7.5,-6 9.5,-9 2,-3 5,-1.25 9.25,0.5 -0.31,-0.84 -1.2,-1.81 -2.36,-2.63 l 2.011,-0.32 c 0.449,0.34 0.71,0.2 1.6,-1.05 2.5,-3.5 15.5,-14.5 17.25,-16 -1.75,2.5 -13,18.25 -11,17 2,-1.25 9.93,-5.92 16.75,-8.5 1.64,-0.62 3.43,-1.22 5.31,-1.79 1.75,-0.52 3.58,-1.02 5.45,-1.48 1.73,-0.42 3.5,-0.81 5.26,-1.16 0.061,0.76 0.11,1.52 0.15,2.3 -2.34,0.47 -4.63,0.98 -6.79,1.53 -2.439,0.61 -4.71,1.26 -6.74,1.96 v 0.01 c -6.54,2.25 -10.479,5 -8.64,8.38 0.63,-0.02 1.3,-0.04 2,-0.07 2.56,-0.1 5.56,-0.24 8.61,-0.32 4.029,-0.11 8.14,-0.14 11.409,0.13 -0.02,0.4 -0.039,0.79 -0.069,1.17 -3.78,0 -8.5,-0.07 -12.17,-0.01 -3.73,0.06 -6.36,0.27 -5.78,0.85 1.18,1.18 1.89,2.98 1.42,4.42 -0.13,0.39 -0.35,0.76 -0.67,1.08 -1.5,1.5 -0.5,4.25 0.75,2.5 1.96,-2.74 3,-4.75 5,-4 2,0.75 3.5,3.25 3.75,6.75 0.25,3.5 0.25,12.25 4,5.5 l 0.13,0.07 c -1.11,2.18 -2.28,4.25 -2.88,5.93 -1.25,3.5 -3,11 -3.25,13.75 0.75,0 1,-0.25 2.5,-3.75 -0.5,3.5 2,17.01 3.75,16.75 -7.23,1.17 -17.98,6.01 -23.52,10.35 l -0.461,-0.57 c 5.75,-4.37 8.53,-10.7 11.48,-17.03 3.5,-7.5 5.25,-16.5 3.25,-23.25 -1.03,-3.49 -6.28,-0.72 -10.25,3.25 -5,5 -9,13 -12.25,21.5 3.25,-0.75 4.95,-0.18 5.75,2.5 0.75,2.5 1,9 -7.25,13.25 l -0.11,0.26 c -2.779,-1.14 -5.779,-2.01 -8.89,-2.51 -0.78,-0.12 -1.55,-0.24 -2.31,-0.34 l 0.02,-0.16 c -4.46,-5.83 -3.71,-11 -2.21,-14 1.56,-3.11 4.75,-3.5 6.75,-3 1.37,-5.93 1,-23.25 0,-26.25 -1,-3 -3.91,-5.69 -8.5,-1.75 -5.25,4.5 -7.5,10.5 -8.25,16 -0.74,5.46 -1.98,18.57 -0.28,23.89 -7.97,-11 -18.18,-18.04 -22.98,-20.23 l 0.02,-0.05 c 0.66,0.28 1.32,0.58 1.99,0.89 z"
   id="path22" />
		<path
   d="m 38.12,552 c 2.38,0.25 4,2.62 4.63,6.88 -0.91,0 -1.85,0.25 -2.78,0.68 -3.27,1.5 -6.37,5.11 -7.35,7.061 -0.42,-6.86 1.57,-10.78 4.08,-13.34 0.46,-0.471 0.94,-0.891 1.42,-1.281 z"
   id="path24"
   style="fill:#ffffff" />
		<path
   d="m 196,34.67 c 1.24,-1.14 4.29,-4.89 6.7,-8.14 l -0.061,-0.16 v -0.01 c 2.03,-0.7 4.301,-1.35 6.74,-1.96 l 0.07,0.28 c -1.37,3.24 -3,6.65 -4.84,9.67 v 0.01 c -3.051,0.08 -6.051,0.22 -8.61,0.32 v -0.01 z"
   id="path26" />
		<path
   d="m 243.33,570.34 c -1.47,-0.28 -2.78,-0.79 -2.66,-2.17 0.16,-1.92 2.16,-6.17 3.75,-5.75 0.811,0.29 2.39,0.89 3.99,2.42 2.05,1.98 4.12,5.5 4.59,11.91 -3,-3.33 -6.08,-5.92 -8,-6.17 -0.53,-0.07 -1.11,-0.14 -1.67,-0.24 z"
   id="path28"
   style="fill:#ffffff" />
		<path
   d="m 228.76,572.49 c 1.311,1.21 2.55,2.85 3.49,4.76 h 0.01 c 1.21,2.44 1.96,5.35 1.82,8.42 -4.23,-3.87 -6.55,-6.979 -10.92,-6.68 -0.62,0.05 -1.28,0.16 -1.99,0.34 -0.59,-2.58 0.33,-8.75 4.33,-8.91 1.07,0.37 2.19,1.08 3.26,2.07 z"
   id="path30"
   style="fill:#ffffff" />
		<path
   d="m 51.34,564.04 c 0.98,-0.83 1.97,-1.44 2.91,-1.79 2.76,-1.03 5.63,3 5.63,7 -1.29,0.17 -2.59,0.5 -3.86,0.97 -4.41,1.601 -8.55,4.681 -11.27,7.4 0.27,-4.11 1.8,-7.771 3.78,-10.521 0.88,-1.209 1.83,-2.239 2.81,-3.059 z"
   id="path32"
   style="fill:#ffffff" />
		<path
   d="m 250.81,552.01 c -0.04,4.99 -0.979,9.67 -2.14,12.57 l -0.26,0.26 c -1.601,-1.53 -3.18,-2.13 -3.99,-2.42 -1.59,-0.42 -3.59,3.83 -3.75,5.75 -0.12,1.38 1.19,1.89 2.66,2.17 -1.51,3.09 -4.58,7.65 -11.07,6.91 h -0.01 c -0.94,-1.91 -2.18,-3.55 -3.49,-4.76 -1.069,-0.99 -2.189,-1.7 -3.26,-2.07 -4,0.16 -4.92,6.33 -4.33,8.91 0.71,-0.18 1.37,-0.29 1.99,-0.34 -9.51,9.5 -24.74,8.479 -38.41,2.51 -16.16,-7.05 -30.5,-18.75 -35.5,-23.75 -1.07,-1.07 -1.91,-2.07 -2.57,-3.05 -2.45,-3.61 -2.54,-6.95 -2.93,-12.45 -0.08,-1.12 -0.09,-3.41 -0.05,-6.5 h 0.05 c 1.63,-1.37 5.25,-4.5 8.5,-6.75 3.25,-2.25 0.63,3.5 -1,5.75 -1.24,1.72 -3.54,4.14 0,3.37 10.37,-2.24 19.13,-7.87 21.5,-10.74 1.8,-2.189 2,0 1,4 1.63,-0.88 8.5,-6.26 11.25,-8.13 2.75,-1.87 3.5,0.5 3.62,2.13 l 0.11,0.08 c -1.301,1.82 -1.921,3.09 -1.48,3.42 2,1.5 3.77,2.05 8.75,1.62 13.12,-1.12 19.73,-5.14 31,-5 10,0.12 18.62,5.12 22.25,15.75 1.15,3.37 1.59,7.15 1.56,10.76 z"
   id="path34"
   style="fill:#ffffff" />
		<path
   d="m 224.25,445 c 0.25,14.5 -1.5,31.5 -4.5,36 2,-8.5 1.75,-58 -1,-69 3.25,1.75 5.25,18.5 5.5,33 z"
   id="path36"
   style="fill:#ffffff" />
		<path
   d="m 189.17,371.5 c 0.4,-1.1 0.72,-2.39 0.96,-3.75 h -0.01 c -6,-3 -13,-7.75 -13.5,-10.63 -0.5,-2.87 0.13,-8.37 5.38,-13.24 5.25,-4.88 9.25,-8 12.75,-8 3.5,0 8,2.74 8,4.12 0,1.38 -0.37,6.25 -0.13,8.62 0.26,2.38 2.63,-9.5 3.76,-9.62 1.12,-0.12 0.87,10.88 6.62,13 0.25,-4 0.88,-8.25 1.25,-8.25 0.37,0 0.87,-1.13 2,1 1.13,2.13 3.25,7.37 4.63,7.37 -0.13,-2.24 -0.68,-6.75 -0.38,-9.12 0.12,-1 2.5,1.25 2.62,2.25 0.189,1.49 1.76,11.5 7,13 l 0.189,-0.07 c 1.171,3.53 0.87,19.21 1.021,24.99 0.17,6 -1.73,15.63 -6.33,21.33 -2.39,2.95 -4.93,5 -8.36,5.99 -1.6,0.46 -3.399,0.689 -5.47,0.68 -6.04,-0.04 -9.84,-3 -10.84,-4.84 3.17,-2.16 5.84,-5 5.34,-5 -4,2 -9.84,4.84 -13,4.67 2.33,-2.67 4.33,-4.17 6.33,-7.5 -2.49,0.67 -12.67,9.94 -22,9.83 -0.06,0 -0.11,0 -0.17,0 -7,-0.16 -14.66,-5.83 -14.66,-22 0,-10.23 5.28,-16.59 10.97,-19.29 2.15,-1.03 4.36,-1.54 6.36,-1.54 7.33,0 10.33,3.67 9.67,6 z"
   id="path38"
   style="fill:#ffffff" />
		<path
   d="m 217.39,153.5 c -1.529,-0.5 -3.069,-0.94 -4.63,-1.29 -5.8,-1.33 -11.779,-1.59 -17.689,-0.18 -0.891,-1.27 -1.83,-2.5 -2.771,-3.63 1.45,-0.6 2.811,-1.34 4.16,-2.15 2.65,-1.59 5.38,-4.41 7.24,-7.26 4.12,3.19 9.13,7.93 13.69,14.51 z"
   id="path40"
   style="fill:#ffffff" />
		<path
   d="m 192.3,148.4 c 0.94,1.13 1.88,2.36 2.771,3.63 -1.11,0.26 -2.221,0.58 -3.32,0.97 -25,8.75 -36,43.25 -41.25,68.25 -5.25,25 0.5,63 2.25,75.5 1.75,12.5 19.37,65.87 20.37,70.25 l 0.02,0.04 c -5.689,2.7 -10.97,9.06 -10.97,19.29 0,16.17 7.66,21.84 14.66,22 0.06,0 0.11,0 0.17,0 v 0.34 c 1,8.33 -8.25,45.83 -38.25,54.58 5,3.25 6.75,7.25 6.75,13 0,1.37 -0.13,5.46 -0.32,10.99 l -2.47,-0.07 c 0.15,-5.34 0,-10.86 -0.71,-12.42 -1.25,-2.75 -3,-8.75 -9.5,-9.25 -6.5,-0.5 -15.08,-2.98 -23.75,-10.25 -9.25,-7.75 -27.08,-32.33 -29.92,-49.42 -1,-9.66 -2.16,-25.97 -1.66,-37.66 0.69,-16.36 10.94,-58.54 18.41,-87.53 3.34,-12.94 6.12,-23.25 7.25,-27.47 2.06,-7.66 9.69,-27.91 15.62,-39.82 1.64,-3.29 3.15,-5.95 4.38,-7.52 7.67,-9.83 17.34,-18.33 17.34,-20 1,-5.66 1.33,-19 0.33,-23 -0.71,-2.83 -5.23,-15.53 -16.36,-22.69 2.16,-1.88 4.41,-3.67 6.53,-5.27 3.14,3.79 7.37,6.49 13.5,6.96 6.79,0.53 11.66,-0.5 21,-2.66 1,2.83 4.29,9.58 12.91,10.71 6.209,0.82 10.509,0.08 14.219,-1.48 z"
   id="path42"
   style="fill:#ffffff" />
		<path
   d="m 203.7,138.99 c -1.86,2.85 -4.59,5.67 -7.24,7.26 -1.35,0.81 -2.71,1.55 -4.16,2.15 -3.71,1.56 -8.01,2.3 -14.22,1.48 -8.62,-1.13 -11.91,-7.88 -12.91,-10.71 -9.34,2.16 -14.21,3.19 -21,2.66 -6.13,-0.47 -10.36,-3.17 -13.5,-6.96 -2.12,1.6 -4.37,3.39 -6.53,5.27 -4.58,-2.96 -10.29,-4.97 -17.31,-4.97 -12.69,0 -23.15,2.86 -27.36,6.71 C 77.62,126.65 66.88,119.91 63,119 65.25,103 72,97.5 80.75,87.75 74.75,90 72.5,92 63.75,99.75 79,70 103.25,63.83 114,63.5 c 7.4,-0.22 12.78,1.36 18.51,3.86 l -0.02,0.05 c 4.8,2.19 15.01,9.23 22.98,20.23 1.04,1.44 2.05,2.95 3,4.53 v 0.13 c -9.66,0.19 -17.12,3.36 -19.47,11.7 -3.03,10.71 7.35,24.05 23.69,28.39 16.34,4.35 31.699,-1.88 34.56,-12.64 1.87,-7.05 -3.13,-15.07 -11.49,-20.52 0.55,-1.03 1.69,-2.19 3.221,-3.38 5.539,-4.34 16.289,-9.18 23.52,-10.35 42,-6.25 50.75,24.25 55.5,36.5 -2.75,-3.75 -4.75,-6.5 -11,-10.75 20,22.25 7,57.5 3.25,66 -0.15,-4.03 -3.51,-9.05 -7.42,-13.55 0.68,2.42 1.38,7.99 1.17,13.55 -6.74,-6.24 -20.71,-18.54 -36.61,-23.75 -4.561,-6.58 -9.571,-11.32 -13.691,-14.51 z m -12.2,0.89 c 0,-0.76 -0.67,-1.38 -1.5,-1.38 -0.83,0 -1.5,0.62 -1.5,1.38 0,0.75 0.67,1.37 1.5,1.37 0.83,0 1.5,-0.62 1.5,-1.37 z M 139,124.62 c 0,-0.75 -0.5,-1.37 -1.12,-1.37 -0.63,0 -1.13,0.62 -1.13,1.37 0,0.76 0.5,1.38 1.13,1.38 0.62,0 1.12,-0.62 1.12,-1.38 z m -4,-8.5 c 0,-0.48 -0.45,-0.87 -1,-0.87 -0.55,0 -1,0.39 -1,0.87 0,0.49 0.45,0.88 1,0.88 0.55,0 1,-0.39 1,-0.88 z"
   id="path44"
   style="fill:#ffffff" />
		<path
   d="m 23,192.25 0.47,0.27 c -1.35,1.76 -2.37,4.04 -2.41,6.74 -2.69,0.15 -5.03,0.04 -7.06,-0.28 C 3.28,197.27 1,189.42 1,180 1,168.75 14.5,162 20.25,161.75 l 0.16,0.08 c -2.89,5.6 -5.26,15.91 -3.41,21.92 2,6.5 4,6.75 6,8.5 z"
   id="path46"
   style="fill:#ffffff" />
		<path
   d="m 79.47,141.88 c 0.18,1.46 0.28,3 0.28,4.62 0,15.75 -3.17,21.67 -5.42,26.17 l -0.18,0.24 c -4.05,-2.98 -9.93,-5.16 -18.4,-4.91 -24.26,0.72 -27,17.25 -27.25,20.25 l 0.1,0.32 c -1.37,0.42 -3.49,1.8 -5.13,3.95 L 23,192.25 c -2,-1.75 -4,-2 -6,-8.5 -1.85,-6.01 0.52,-16.32 3.41,-21.92 0.36,-0.69 0.73,-1.3 1.09,-1.83 3.43,-4.98 7.25,-7.68 12.5,-8 8.25,-0.5 15.25,3.75 18.5,12.25 -1.5,-6.5 -2.25,-10.5 -7,-16 -3,-3.48 -3.75,-5.75 -4,-10.5 -0.2,-3.88 1.5,-9.5 4.5,-11.5 l 0.17,-0.47 c 1.05,0.93 1.95,1.92 2.66,2.89 4.84,-2.25 4.84,-7 4.84,-8.5 -0.05,-0.05 -0.12,-0.11 -0.23,-0.16 V 120 l 0.06,-0.08 c 3,-1.5 7,-1.42 9.5,-0.92 3.88,0.91 14.62,7.65 16.47,22.88 z"
   id="path48"
   style="fill:#ffffff" />
		<path
   d="m 82.5,186.75 c 0,3 1.5,13.5 -19.25,18.5 -0.28,0.91 -0.54,2.2 -0.75,3.77 L 62.38,209 c -2.88,5.5 -11,12.5 -13.5,13.5 -2.5,1 -5.13,-0.12 -4.13,-1.88 1,-1.74 4.25,-5.87 5,-6.74 -2.75,1.5 -7.37,6.74 -11.25,8.74 -3.88,2 -8.12,1.38 -9,-1.74 -0.05,-3.69 -0.05,-6.45 0,-7.63 C 11.33,216.67 14,202 14,199 v -0.02 c 2.03,0.32 4.37,0.43 7.06,0.28 -0.01,0.94 0.1,1.94 0.36,2.99 0,-1.25 2.58,-3.92 4.66,-4.92 1.76,-0.84 2.75,-0.66 5.17,-1.08 2.1,-0.36 1.75,-1.73 1.75,-3.25 0,-2 -1.58,-3.75 -3.25,-4.5 -0.24,-0.11 -0.65,-0.08 -1.15,0.07 l -0.1,-0.32 c 0.25,-3 2.99,-19.53 27.25,-20.25 8.47,-0.25 14.35,1.93 18.4,4.91 6.67,4.91 8.35,11.97 8.35,13.84 z"
   id="path50"
   style="fill:#ffffff" />
		<path
   d="m 21.06,199.26 c 0.04,-2.7 1.06,-4.98 2.41,-6.74 1.64,-2.15 3.76,-3.53 5.13,-3.95 0.5,-0.15 0.91,-0.18 1.15,-0.07 1.67,0.75 3.25,2.5 3.25,4.5 0,1.52 0.35,2.89 -1.75,3.25 -2.42,0.42 -3.41,0.24 -5.17,1.08 -2.08,1 -4.66,3.67 -4.66,4.92 -0.26,-1.05 -0.37,-2.05 -0.36,-2.99 z"
   id="path52"
   style="fill:#ffffff" />
		<path
   d="m 53.44,120.01 c 0.11,0.05 0.18,0.11 0.23,0.16 0,1.5 0,6.25 -4.84,8.5 -0.71,-0.97 -1.61,-1.96 -2.66,-2.89 -3.39,-3.01 -8.39,-5.49 -13.92,-5.11 2.67,-1.34 8.86,-3.28 12.75,-2.92 4.74,0.44 7.58,1.68 8.44,2.25 v 0.01 z"
   id="path54"
   style="fill:#ffffff" />
		<path
   d="m 134,115.25 c 0.55,0 1,0.39 1,0.87 0,0.49 -0.45,0.88 -1,0.88 -0.55,0 -1,-0.39 -1,-0.88 0,-0.48 0.45,-0.87 1,-0.87 z"
   id="path56" />
		<path
   d="m 137.88,123.25 c 0.62,0 1.12,0.62 1.12,1.37 0,0.76 -0.5,1.38 -1.12,1.38 -0.63,0 -1.13,-0.62 -1.13,-1.38 0,-0.75 0.5,-1.37 1.13,-1.37 z"
   id="path58" />
		<path
   d="m 190,138.5 c 0.83,0 1.5,0.62 1.5,1.38 0,0.75 -0.67,1.37 -1.5,1.37 -0.83,0 -1.5,-0.62 -1.5,-1.37 0,-0.76 0.67,-1.38 1.5,-1.38 z"
   id="path60" />
		<path
   d="M 214.25,11.97 214.17,12 c -0.35,0.8 -1.56,4.73 -3.45,9.56 l 0.04,0.17 c -1.87,0.46 -3.7,0.96 -5.45,1.48 L 205.25,23 c 1.75,-3.75 3.5,-8 7.75,-13.25 0.48,0.61 0.9,1.36 1.25,2.22 z"
   id="path62" />
		<path
   d="m 203.78,35.65 c -1.351,2.07 -2.82,3.89 -4.36,5.27 0.47,-1.44 -0.24,-3.24 -1.42,-4.42 -0.58,-0.58 2.05,-0.79 5.78,-0.85 z"
   id="path64" />
		<path
   d="m 203.78,35.65 c 3.67,-0.06 8.39,0.01 12.17,0.01 -0.311,4.75 -0.78,8.63 -0.95,10.09 -0.26,2.22 -1.4,4.7 -2.62,7.07 l -0.13,-0.07 c -3.75,6.75 -3.75,-2 -4,-5.5 -0.25,-3.5 -1.75,-6 -3.75,-6.75 -2,-0.75 -3.04,1.26 -5,4 -1.25,1.75 -2.25,-1 -0.75,-2.5 0.32,-0.32 0.54,-0.69 0.67,-1.08 1.54,-1.38 3.01,-3.2 4.36,-5.27 z"
   id="path66"
   style="fill:#ffffff" />
		<path
   d="m 214.25,11.97 c 0.95,2.26 1.49,5.28 1.77,8.6 -1.76,0.35 -3.529,0.74 -5.26,1.16 l -0.04,-0.17 c 1.891,-4.83 3.101,-8.76 3.45,-9.56 l 0.08,-0.03 z"
   id="path68"
   style="fill:#ffffff" />
		<path
   d="m 216.17,22.87 c 0.19,3.85 0.08,7.95 -0.15,11.62 -3.27,-0.27 -7.38,-0.24 -11.409,-0.13 v -0.01 c 1.84,-3.02 3.47,-6.43 4.84,-9.67 l -0.07,-0.28 c 2.159,-0.55 4.449,-1.06 6.789,-1.53 z"
   id="path70"
   style="fill:#ffffff" />
		<path
   d="m 175.4,33.55 -2.011,0.32 C 171.78,32.72 169.639,31.85 167.749,32 168.5,28.75 170,6.75 169,3.5 l -0.07,-0.07 c 0.82,-0.87 1.681,-1.68 2.57,-2.43 0.75,7.5 2,28.5 3,31.75 0.42,0.33 0.69,0.62 0.9,0.8 z"
   id="path72" />
		<path
   d="m 221.25,35.5 c -1.14,0.11 -3.05,0.15 -5.3,0.16 0.03,-0.38 0.05,-0.77 0.069,-1.17 2.231,0.18 4.071,0.49 5.231,1.01 z"
   id="path74" />
		<path
   d="m 216.02,20.57 c 8.29,-1.64 16.601,-2.36 21.48,-1.32 -6.3,0.96 -14.08,2.14 -21.33,3.62 -0.04,-0.78 -0.09,-1.54 -0.15,-2.3 z"
   id="path76" />
		<path
   d="m 327.83,567.5 c 1,9.67 -0.66,17.33 -9.33,31.33 -4.7,7.59 -15.68,13.72 -27.24,17.95 l -0.01,-0.03 c 1.13,-0.37 2.13,-2.5 0.37,-3.87 -1.74,-1.38 -13,1.24 -18,2.24 1.88,-0.87 10.76,-4.12 14.38,-6.5 3.62,-2.37 1.38,-3.87 -2.38,-3.12 -3.74,0.75 -15.37,3.75 -18.24,4.12 1.24,-1 1.74,-1 4.74,-3.62 2.899,-2.54 2.63,-4.25 1.5,-4.5 -1.12,-0.25 -8.5,0.62 -16.24,1.25 l -0.01,-0.02 c 14.52,-5.49 18.67,-11.431 25.8,-17.23 10.66,-8.67 10.66,-19.33 9.66,-22 -0.66,1.67 -1.33,5.33 -3,10.67 0.67,-5.34 -6.33,-25.67 -17.66,-36.67 -8.33,-8.08 -25.34,-25.67 -30,-29.67 -4.67,-4 -11.92,-10.58 -19.92,-22.33 -0.78,-1.14 -1.47,-1.55 -2.05,-1.55 L 219.75,481 c 3,-4.5 4.75,-21.5 4.5,-36 -0.25,-14.5 -2.25,-31.25 -5.5,-33 l -2.11,-1.51 c 3.431,-0.99 5.971,-3.04 8.36,-5.99 h 0.83 c 5,12 41.67,75.67 47,84 5.34,8.33 26.34,34.33 35.34,43.67 9,9.33 18.66,25.66 19.66,35.33 z"
   id="path78" />
		<path
   d="m 212.76,152.21 -0.01,0.04 c -8.43,-0.18 -12.54,-0.35 -16.93,0.87 -0.25,-0.36 -0.5,-0.73 -0.75,-1.09 5.91,-1.41 11.89,-1.15 17.69,0.18 z"
   id="path80" />
		<path
   d="m 143.75,531 h 0.04 c -0.01,0.42 -0.02,0.84 -0.03,1.25 h -0.01 c -8.5,-1.75 -15.5,-2.5 -22.75,-9 -2.84,-2.55 -4.3,-3.42 -3.25,0 1,3.25 1.5,3.5 2.5,5.5 1,2 -1.5,1.25 -4,-0.25 -2.5,-1.5 -5.75,-7.25 -6.5,-5.75 -0.75,1.5 0.5,6 -1.75,4.5 -2.25,-1.5 -2,-4.33 -5.5,-4.42 -1.5,-6.21 -6.67,-16.66 -10.33,-22 -3.67,-5.33 -12.48,-17.69 -13.67,-24.66 -5.67,-33.34 0.33,-62.67 0.33,-70.34 2.84,17.09 20.67,41.67 29.92,49.42 8.67,7.27 17.25,9.75 23.75,10.25 6.5,0.5 8.25,6.5 9.5,9.25 0.71,1.56 0.86,7.08 0.71,12.42 -0.11,4.07 -0.39,8.03 -0.71,10.08 -0.75,4.75 -1.25,11 -1.5,18.25 -0.25,7.25 1,11.75 3.25,15.5 z"
   id="path82" />
		<path
   d="m 118.25,213.25 0.2,0.1 c -5.93,11.91 -13.56,32.16 -15.62,39.82 -1.13,4.22 -3.91,14.53 -7.25,27.47 L 95.5,280.62 C 92.25,284.88 71.75,299.25 54,299.75 36.25,300.25 32.25,279 31.25,268.5 c -0.78,-8.24 -1.57,-34.17 -1.75,-47.62 0.88,3.12 5.12,3.74 9,1.74 3.88,-2 8.5,-7.24 11.25,-8.74 -0.75,0.87 -4,5 -5,6.74 -1,1.76 1.63,2.88 4.13,1.88 2.5,-1 10.62,-8 13.5,-13.5 l 0.12,0.02 c -0.71,5.34 -0.85,13.88 0.5,21.23 1.75,9.5 5,20 5.5,22.25 2.25,-2 0.75,-3.75 2.75,-4.5 2,-0.75 11.75,-3.25 21,-9.75 9.25,-6.5 21.25,-18.25 26,-25 z"
   id="path84" />
	</g>
	<g
   id="g86">
		<path
   d="m 225.83,404.5 c 5,12 41.67,75.67 47,84 5.34,8.33 26.34,34.33 35.34,43.67 9,9.33 18.66,25.66 19.66,35.33 1,9.67 -0.66,17.33 -9.33,31.33 -4.7,7.59 -15.68,13.72 -27.24,17.95 -9.75,3.56 -19.92,5.779 -27.09,6.39 -15.67,1.33 -51.34,3.33 -59.67,2.66 -8.33,-0.66 -24.33,2 -30,2 6,-6 10,-10 52,-17.33 13.92,-2.43 23.67,-5.04 30.87,-7.77 14.52,-5.49 18.67,-11.431 25.8,-17.23 10.66,-8.67 10.66,-19.33 9.66,-22 -0.66,1.67 -1.33,5.33 -3,10.67 0.67,-5.34 -6.33,-25.67 -17.66,-36.67 -8.33,-8.08 -25.34,-25.67 -30,-29.67 -4.67,-4 -11.92,-10.58 -19.92,-22.33 -0.78,-1.14 -1.47,-1.55 -2.05,-1.55 -0.82,0 -1.41,0.819 -1.7,1.55 -0.5,1.25 -4.5,13.75 -9,17.5 -3.5,2.92 -16.25,16.07 -20.77,22.46 -1.301,1.82 -1.921,3.09 -1.48,3.42 2,1.5 3.77,2.05 8.75,1.62 13.12,-1.12 19.73,-5.14 31,-5 10,0.12 18.62,5.12 22.25,15.75 1.15,3.37 1.59,7.15 1.56,10.76 -0.04,4.99 -0.979,9.67 -2.14,12.57"
   id="path88"
   style="fill:none;stroke:#000000;stroke-width:2;stroke-linecap:round;stroke-linejoin:round" />
		<path
   d="m 146.5,554.83 c -10.33,10.34 -40.95,24.47 -65,24 C 64.38,578.5 58.62,573.5 56.12,570.5"
   id="path90"
   style="fill:none;stroke:#000000;stroke-width:2;stroke-linecap:round;stroke-linejoin:round" />
		<path
   d="m 51.5,564.5 c -0.06,-0.14 -0.11,-0.3 -0.16,-0.46 -2.19,-6.68 -2.24,-29.81 22.49,-27.21"
   id="path92"
   style="fill:none;stroke:#000000;stroke-width:2;stroke-linecap:round;stroke-linejoin:round" />
		<path
   d="M 48.17,566.83 C 44.08,564.37 42.5,562.67 40,559.62"
   id="path94"
   style="fill:none;stroke:#000000;stroke-width:2;stroke-linecap:round;stroke-linejoin:round" />
		<path
   d="m 36.67,553.25 c -0.61,-5.36 -0.89,-17.17 9.06,-24.22 3.66,-2.59 8.72,-4.54 15.65,-5.28"
   id="path96"
   style="fill:none;stroke:#000000;stroke-width:2;stroke-linecap:round;stroke-linejoin:round" />
		<path
   d="m 45.62,528.88 c 0.26,-3.38 6.25,-13 18.38,-13.13 11.62,-0.13 24.27,9.23 29.62,10 5.21,0.75 9.61,0.12 8.88,-2.92 -1.5,-6.21 -6.67,-16.66 -10.33,-22 -3.67,-5.33 -12.48,-17.69 -13.67,-24.66 -5.67,-33.34 0.33,-62.67 0.33,-70.34 -1,-9.66 -2.16,-25.97 -1.66,-37.66 0.69,-16.36 10.94,-58.54 18.41,-87.53 3.34,-12.94 6.12,-23.25 7.25,-27.47 2.06,-7.66 9.69,-27.91 15.62,-39.82 1.64,-3.29 3.15,-5.95 4.38,-7.52 7.67,-9.83 17.34,-18.33 17.34,-20 1,-5.66 1.33,-19 0.33,-23 -0.71,-2.83 -5.23,-15.53 -16.36,-22.69 -4.58,-2.96 -10.29,-4.97 -17.31,-4.97 -12.69,0 -23.15,2.86 -27.36,6.71 -0.1,0.1 -0.2,0.19 -0.3,0.29"
   id="path98"
   style="fill:none;stroke:#000000;stroke-width:2;stroke-linecap:round;stroke-linejoin:round" />
		<path
   d="m 235.96,117.88 c -6.58,-5.45 -18.16,-11.12 -33.14,-7.26 3.18,3.18 3.399,4.77 3.399,8.17 0,3.4 -1.13,6.35 -4.31,6.35 3.18,2.96 4.31,4.32 4.09,8.18 -0.1,1.6 -0.98,3.64 -2.3,5.67 -1.86,2.85 -4.59,5.67 -7.24,7.26 -1.35,0.81 -2.71,1.55 -4.16,2.15 -3.71,1.56 -8.01,2.3 -14.22,1.48 -8.62,-1.13 -11.91,-7.88 -12.91,-10.71 -9.34,2.16 -14.21,3.19 -21,2.66 -6.13,-0.47 -10.36,-3.17 -13.5,-6.96 -1.31,-1.57 -2.43,-3.33 -3.43,-5.19 -1.64,-3.05 -2.65,-6.57 -3.1,-9.61 -0.37,-2.41 -0.38,-4.52 -0.08,-5.82 0.68,-2.95 3.18,-7.72 6.58,-7.72 -1.81,-1.13 -1.81,-4.31 -0.45,-7.03 1.13,-2.27 2.72,-4.32 6.81,-6.36 -3.63,-2.72 -10.67,-9.08 -32.68,-7.71"
   id="path100"
   style="fill:none;stroke:#000000;stroke-width:2;stroke-linecap:round;stroke-linejoin:round" />
		<path
   d="m 132.5,219.25 c -4,5 -8,13.75 -8,26"
   id="path102"
   style="fill:none;stroke:#000000;stroke-width:2;stroke-linecap:round;stroke-linejoin:round" />
		<path
   d="m 186.5,142.75 c 1.47,0.83 3.63,2.99 5.8,5.65 0.94,1.13 1.88,2.36 2.771,3.63 0.25,0.36 0.5,0.73 0.75,1.09 2.35,3.47 4.25,7.02 4.68,9.38"
   id="path104"
   style="fill:none;stroke:#000000;stroke-width:2;stroke-linecap:round;stroke-linejoin:round" />
		<path
   d="m 197,134.5 c 1.53,0.85 3.91,2.31 6.7,4.49 4.12,3.19 9.13,7.93 13.689,14.51 1.431,2.07 2.811,4.31 4.11,6.75"
   id="path106"
   style="fill:none;stroke:#000000;stroke-width:2;stroke-linecap:round;stroke-linejoin:round" />
		<path
   d="m 138.75,129.25 c -1.82,1.11 -4.79,3.13 -8.08,5.62 -2.12,1.6 -4.37,3.39 -6.53,5.27 -2.77,2.41 -5.39,4.94 -7.39,7.36"
   id="path108"
   style="fill:none;stroke:#000000;stroke-width:2;stroke-linecap:round;stroke-linejoin:round" />
		<path
   d="m 132,118.75 c -2.29,0.31 -4.99,0.73 -7.86,1.32 -8.69,1.77 -19,5.1 -24.64,11.68"
   id="path110"
   style="fill:none;stroke:#000000;stroke-width:2;stroke-linecap:round;stroke-linejoin:round" />
		<path
   d="m 135,116.12 c 0,0.49 -0.45,0.88 -1,0.88 -0.55,0 -1,-0.39 -1,-0.88 0,-0.48 0.45,-0.87 1,-0.87 0.55,0 1,0.39 1,0.87 z"
   id="path112"
   style="fill:none;stroke:#000000;stroke-width:2;stroke-linecap:round;stroke-linejoin:round" />
		<path
   d="m 139,124.62 c 0,0.76 -0.5,1.38 -1.12,1.38 -0.63,0 -1.13,-0.62 -1.13,-1.38 0,-0.75 0.5,-1.37 1.13,-1.37 0.62,0 1.12,0.62 1.12,1.37 z"
   id="path114"
   style="fill:none;stroke:#000000;stroke-width:2;stroke-linecap:round;stroke-linejoin:round" />
		<path
   d="m 191.5,139.88 c 0,0.75 -0.67,1.37 -1.5,1.37 -0.83,0 -1.5,-0.62 -1.5,-1.37 0,-0.76 0.67,-1.38 1.5,-1.38 0.83,0 1.5,0.62 1.5,1.38 z"
   id="path116"
   style="fill:none;stroke:#000000;stroke-width:2;stroke-linecap:round;stroke-linejoin:round" />
		<path
   d="m 212.25,52.75 c -3.75,6.75 -3.75,-2 -4,-5.5 -0.25,-3.5 -1.75,-6 -3.75,-6.75 -2,-0.75 -3.04,1.26 -5,4 -1.25,1.75 -2.25,-1 -0.75,-2.5 0.32,-0.32 0.54,-0.69 0.67,-1.08 0.47,-1.44 -0.24,-3.24 -1.42,-4.42 -0.58,-0.58 2.05,-0.79 5.78,-0.85 3.67,-0.06 8.39,0.01 12.17,0.01 2.25,-0.01 4.16,-0.05 5.3,-0.16 -1.16,-0.52 -3,-0.83 -5.23,-1.01 -3.27,-0.27 -7.38,-0.24 -11.409,-0.13 -3.051,0.08 -6.051,0.22 -8.61,0.32 -0.7,0.03 -1.37,0.05 -2,0.07 -1.84,-3.38 2.1,-6.13 8.64,-8.38 v -0.01 c 2.03,-0.7 4.301,-1.35 6.74,-1.96 2.16,-0.55 4.45,-1.06 6.79,-1.53 7.25,-1.48 15.03,-2.66 21.33,-3.62 -4.88,-1.04 -13.19,-0.32 -21.48,1.32 -1.76,0.35 -3.529,0.74 -5.26,1.16 -1.87,0.46 -3.7,0.96 -5.45,1.48 -1.88,0.57 -3.67,1.17 -5.31,1.79 -6.82,2.58 -14.75,7.25 -16.75,8.5 -2,1.25 9.25,-14.5 11,-17 C 192.5,18 179.5,29 177,32.5 c -0.89,1.25 -1.15,1.39 -1.6,1.05 -0.21,-0.18 -0.48,-0.47 -0.9,-0.8 -1,-3.25 -2.25,-24.25 -3,-31.75 -0.89,0.75 -1.75,1.56 -2.57,2.43 -9.479,9.91 -15.18,26.89 -15.18,30.57 0,3.33 0.87,7.35 3.17,11.05 0.47,0.75 0.99,1.48 1.58,2.2 0,0 -3,7.25 -4.5,8.75 -1.5,1.5 -3,3.75 -2.75,0.75 -5,5.75 -10.25,14.5 -16.75,11.5 -0.67,-0.31 -1.33,-0.61 -1.99,-0.89 C 126.78,64.86 121.4,63.28 114,63.5 103.25,63.83 79,70 63.75,99.75 72.5,92 74.75,90 80.75,87.75 72,97.5 65.25,103 63,119 c -2.5,-0.5 -6.5,-0.58 -9.5,0.92"
   id="path118"
   style="fill:none;stroke:#000000;stroke-width:2;stroke-linecap:round;stroke-linejoin:round" />
		<path
   d="m 46,126.25 c -3,2 -4.7,7.62 -4.5,11.5 0.25,4.75 1,7.02 4,10.5 4.75,5.5 5.5,9.5 7,16 C 49.25,155.75 42.25,151.5 34,152 c -5.25,0.32 -9.07,3.02 -12.5,8 -0.36,0.53 -0.73,1.14 -1.09,1.83 -2.89,5.6 -5.26,15.91 -3.41,21.92 2,6.5 4,6.75 6,8.5"
   id="path120"
   style="fill:none;stroke:#000000;stroke-width:2;stroke-linecap:round;stroke-linejoin:round" />
		<path
   d="m 31.5,196.5 c 1.25,2.5 8.5,6 14.5,6 6,0 11.75,-0.75 15,-1.75"
   id="path122"
   style="fill:none;stroke:#000000;stroke-width:2;stroke-linecap:round;stroke-linejoin:round" />
		<path
   d="m 28.5,188.25 c 0.25,-3 2.99,-19.53 27.25,-20.25 8.47,-0.25 14.35,1.93 18.4,4.91 6.67,4.91 8.35,11.97 8.35,13.84 0,3 1.5,13.5 -19.25,18.5 -0.28,0.91 -0.54,2.2 -0.75,3.77 -0.71,5.34 -0.85,13.88 0.5,21.23 1.75,9.5 5,20 5.5,22.25 2.25,-2 0.75,-3.75 2.75,-4.5 2,-0.75 11.75,-3.25 21,-9.75 9.25,-6.5 21.25,-18.25 26,-25"
   id="path124"
   style="fill:none;stroke:#000000;stroke-width:2;stroke-linecap:round;stroke-linejoin:round" />
		<path
   d="M 20.25,161.75 C 14.5,162 1,168.75 1,180 c 0,9.42 2.28,17.27 13,18.98 2.03,0.32 4.37,0.43 7.06,0.28 0.06,0 0.13,-0.01 0.19,-0.01"
   id="path126"
   style="fill:none;stroke:#000000;stroke-width:2;stroke-linecap:round;stroke-linejoin:round" />
		<path
   d="m 14,199 c 0,3 -2.67,17.67 15.5,14.25 -0.05,1.18 -0.05,3.94 0,7.63 0.18,13.45 0.97,39.38 1.75,47.62 1,10.5 5,31.75 22.75,31.25 17.75,-0.5 38.25,-14.87 41.5,-19.13"
   id="path128"
   style="fill:none;stroke:#000000;stroke-width:2;stroke-linecap:round;stroke-linejoin:round" />
		<path
   d="m 63,119 c 3.88,0.91 14.62,7.65 16.47,22.88 0.18,1.46 0.28,3 0.28,4.62 0,15.75 -3.17,21.67 -5.42,26.17"
   id="path130"
   style="fill:none;stroke:#000000;stroke-width:2;stroke-linecap:round;stroke-linejoin:round" />
		<path
   d="m 62.38,209 c -2.88,5.5 -11,12.5 -13.5,13.5 -2.5,1 -5.13,-0.12 -4.13,-1.88 1,-1.74 4.25,-5.87 5,-6.74 -2.75,1.5 -7.37,6.74 -11.25,8.74 -3.88,2 -8.12,1.38 -9,-1.74"
   id="path132"
   style="fill:none;stroke:#000000;stroke-width:2;stroke-linecap:round;stroke-linejoin:round" />
		<path
   d="m 190.67,360.17 c 0.1,2.18 -0.07,5 -0.54,7.58 -0.24,1.36 -0.56,2.65 -0.96,3.75"
   id="path134"
   style="fill:none;stroke:#000000;stroke-width:2;stroke-linecap:round;stroke-linejoin:round" />
		<path
   d="m 173.12,367 c -1,-4.38 -18.62,-57.75 -20.37,-70.25 -1.75,-12.5 -7.5,-50.5 -2.25,-75.5 5.25,-25 16.25,-59.5 41.25,-68.25 1.1,-0.39 2.21,-0.71 3.32,-0.97 5.91,-1.41 11.89,-1.15 17.689,0.18 1.561,0.35 3.101,0.79 4.63,1.29 15.9,5.21 29.87,17.51 36.61,23.75 0.21,-5.56 -0.49,-11.13 -1.17,-13.55 -0.11,-0.41 -0.22,-0.73 -0.33,-0.95"
   id="path136"
   style="fill:none;stroke:#000000;stroke-width:2;stroke-linecap:round;stroke-linejoin:round" />
		<path
   d="m 245,155.75 c 2.32,2.12 5.2,4.92 7.83,7.95 3.91,4.5 7.27,9.52 7.42,13.55 3.75,-8.5 16.75,-43.75 -3.25,-66 6.25,4.25 8.25,7 11,10.75 -4.75,-12.25 -13.5,-42.75 -55.5,-36.5 -1.75,0.26 -4.25,-13.25 -3.75,-16.75 -1.5,3.5 -1.75,3.75 -2.5,3.75 0.25,-2.75 2,-10.25 3.25,-13.75 0.6,-1.68 1.77,-3.75 2.88,-5.93 1.22,-2.37 2.36,-4.85 2.62,-7.07 0.17,-1.46 0.64,-5.34 0.95,-10.09 0.03,-0.38 0.05,-0.77 0.069,-1.17 0.23,-3.67 0.341,-7.77 0.15,-11.62 -0.04,-0.78 -0.09,-1.54 -0.15,-2.3 -0.279,-3.32 -0.819,-6.34 -1.77,-8.6 -0.35,-0.86 -0.77,-1.61 -1.25,-2.22 -4.25,5.25 -6,9.5 -7.75,13.25"
   id="path138"
   style="fill:none;stroke:#000000;stroke-width:2;stroke-linecap:round;stroke-linejoin:round" />
		<path
   d="m 212.5,85.5 c -7.23,1.17 -17.98,6.01 -23.52,10.35 -1.53,1.19 -2.671,2.35 -3.221,3.38 0,0.01 -0.01,0.01 -0.01,0.02"
   id="path140"
   style="fill:none;stroke:#000000;stroke-width:2;stroke-linecap:round;stroke-linejoin:round" />
		<path
   d="m 131.5,67 c 0.3,0.11 0.63,0.25 0.99,0.41 4.8,2.19 15.01,9.23 22.98,20.23 1.04,1.44 2.05,2.95 3,4.53"
   id="path142"
   style="fill:none;stroke:#000000;stroke-width:2;stroke-linecap:round;stroke-linejoin:round" />
		<path
   d="m 212.75,152.25 c -8.43,-0.18 -12.54,-0.35 -16.93,0.87 -1.851,0.5 -3.761,1.26 -6.07,2.38 -7.75,3.75 -23,25.75 -23.25,38.25 2.75,-4 6.25,-6.3 10,-6.5 4.75,-0.25 11.75,2.25 18,10.5 6.25,8.25 30.79,48.63 38.5,79.75 7,28.25 3.58,72.42 -2.83,80.33 0.05,0.1 0.1,0.21 0.14,0.35 1.171,3.53 0.87,19.21 1.021,24.99 0.17,6 -1.73,15.63 -6.33,21.33 -2.39,2.95 -4.93,5 -8.36,5.99 -1.6,0.46 -3.399,0.689 -5.47,0.68 -6.04,-0.04 -9.84,-3 -10.84,-4.84 3.17,-2.16 5.84,-5 5.34,-5 -4,2 -9.84,4.84 -13,4.67 2.33,-2.67 4.33,-4.17 6.33,-7.5 -2.49,0.67 -12.67,9.94 -22,9.83 -0.06,0 -0.11,0 -0.17,0 -7,-0.16 -14.66,-5.83 -14.66,-22 0,-10.23 5.28,-16.59 10.97,-19.29 2.15,-1.03 4.36,-1.54 6.36,-1.54 7.33,0 10.33,3.67 9.67,6 -0.67,2.33 -2.5,6 -7.17,9.67"
   id="path144"
   style="fill:none;stroke:#000000;stroke-width:2;stroke-linecap:round;stroke-linejoin:round" />
		<path
   d="m 173.25,257.25 c 0.5,10.5 20.5,65.25 25.25,76 3.05,6.91 5.25,1.75 5.25,-0.5 0,-2.25 1,-30.5 -3,-41.5 -4,-11 -19.01,-33.54 -25.75,-37.75 -2,-1.25 -1.96,-0.75 -1.75,3.75 z"
   id="path146"
   style="fill:none;stroke:#000000;stroke-width:2;stroke-linecap:round;stroke-linejoin:round" />
		<path
   d="m 28.6,188.57 c 0.5,-0.15 0.91,-0.18 1.15,-0.07 1.67,0.75 3.25,2.5 3.25,4.5 0,1.52 0.35,2.89 -1.75,3.25 -2.42,0.42 -3.41,0.24 -5.17,1.08 -2.08,1 -4.66,3.67 -4.66,4.92 -0.26,-1.05 -0.37,-2.05 -0.36,-2.99 0.04,-2.7 1.06,-4.98 2.41,-6.74 1.64,-2.15 3.76,-3.53 5.13,-3.95 z"
   id="path148"
   style="fill:none;stroke:#000000;stroke-width:2;stroke-linecap:round;stroke-linejoin:round" />
		<path
   d="m 53.44,120.01 c 0.11,0.05 0.18,0.11 0.23,0.16 0,1.5 0,6.25 -4.84,8.5 -0.71,-0.97 -1.61,-1.96 -2.66,-2.89 -3.39,-3.01 -8.39,-5.49 -13.92,-5.11 2.67,-1.34 8.86,-3.28 12.75,-2.92 4.74,0.44 7.58,1.68 8.44,2.25 v 0.01 z"
   id="path150"
   style="fill:none;stroke:#000000;stroke-width:2;stroke-linecap:round;stroke-linejoin:round" />
		<path
   d="m 190.12,367.75 c -6,-3 -13,-7.75 -13.5,-10.63 -0.5,-2.87 0.13,-8.37 5.38,-13.24 5.25,-4.88 9.25,-8 12.75,-8 3.5,0 8,2.74 8,4.12 0,1.38 -0.37,6.25 -0.13,8.62 0.26,2.38 2.63,-9.5 3.76,-9.62 1.12,-0.12 0.87,10.88 6.62,13 0.25,-4 0.88,-8.25 1.25,-8.25 0.37,0 0.87,-1.13 2,1 1.13,2.13 3.25,7.37 4.63,7.37 -0.13,-2.24 -0.68,-6.75 -0.38,-9.12 0.12,-1 2.5,1.25 2.62,2.25 0.189,1.49 1.76,11.5 7,13"
   id="path152"
   style="fill:none;stroke:#000000;stroke-width:2;stroke-linecap:round;stroke-linejoin:round" />
		<path
   d="m 177,408.67 c 1,8.33 -8.25,45.83 -38.25,54.58 5,3.25 6.75,7.25 6.75,13 0,1.37 -0.13,5.46 -0.32,10.99 -0.41,12.189 -1.13,31.37 -1.39,43.76 -0.01,0.42 -0.02,0.84 -0.03,1.25 -0.02,1.25 -0.04,2.43 -0.06,3.5 -0.04,3.09 -0.03,5.38 0.05,6.5 0.39,5.5 0.48,8.84 2.93,12.45 0.66,0.979 1.5,1.979 2.57,3.05 5,5 19.34,16.7 35.5,23.75 13.67,5.97 28.9,6.99 38.41,-2.51 0.06,-0.05 0.109,-0.101 0.17,-0.16"
   id="path154"
   style="fill:none;stroke:#000000;stroke-width:2;stroke-linecap:round;stroke-linejoin:round" />
		<path
   d="m 218.75,412 c 2.75,11 3,60.5 1,69 3,-4.5 4.75,-21.5 4.5,-36 -0.25,-14.5 -2.25,-31.25 -5.5,-33 z"
   id="path156"
   style="fill:none;stroke:#000000;stroke-width:2;stroke-linecap:round;stroke-linejoin:round" />
		<path
   d="m 243.33,570.33 v 0.01 c -1.51,3.09 -4.58,7.65 -11.07,6.91"
   id="path158"
   style="fill:none;stroke:#000000;stroke-width:2;stroke-linecap:round;stroke-linejoin:round" />
		<path
   d="m 143.75,532.25 c -8.5,-1.75 -15.5,-2.5 -22.75,-9 -2.84,-2.55 -4.3,-3.42 -3.25,0 1,3.25 1.5,3.5 2.5,5.5 1,2 -1.5,1.25 -4,-0.25 -2.5,-1.5 -5.75,-7.25 -6.5,-5.75 -0.75,1.5 0.5,6 -1.75,4.5 -2.25,-1.5 -2,-4.33 -5.5,-4.42"
   id="path160"
   style="fill:none;stroke:#000000;stroke-width:2;stroke-linecap:round;stroke-linejoin:round" />
		<path
   d="m 143.75,531 c -2.25,-3.75 -3.5,-8.25 -3.25,-15.5 0.25,-7.25 0.75,-13.5 1.5,-18.25 0.32,-2.05 0.6,-6.01 0.71,-10.08 0.15,-5.34 0,-10.86 -0.71,-12.42 C 140.75,472 139,466 132.5,465.5 126,465 117.42,462.52 108.75,455.25 99.5,447.5 81.67,422.92 78.83,405.83"
   id="path162"
   style="fill:none;stroke:#000000;stroke-width:2;stroke-linecap:round;stroke-linejoin:round" />
		<path
   d="m 185.76,99.23 c 8.36,5.45 13.36,13.47 11.49,20.52 -2.86,10.76 -18.22,16.99 -34.56,12.64 C 146.35,128.05 135.97,114.71 139,104 c 2.35,-8.34 9.81,-11.51 19.47,-11.7 2.97,-0.06 6.16,0.16 9.47,0.61 0.76,0.1 1.529,0.22 2.31,0.34 3.11,0.5 6.11,1.37 8.89,2.51 2.37,0.97 4.59,2.14 6.62,3.47 z"
   id="path164"
   style="fill:none;stroke:#000000;stroke-width:2;stroke-linecap:round;stroke-linejoin:round" />
		<path
   d="m 169,3.5 c 1,3.25 -0.5,25.25 -1.25,28.5 1.89,-0.15 4.03,0.72 5.64,1.87 1.16,0.82 2.051,1.79 2.36,2.63 -4.25,-1.75 -7.25,-3.5 -9.25,-0.5 -2,3 -6.75,11.5 -9.5,9"
   id="path166"
   style="fill:none;stroke:#000000;stroke-width:2;stroke-linecap:round;stroke-linejoin:round" />
		<path
   d="m 155.5,87.75 c -0.01,-0.04 -0.02,-0.07 -0.03,-0.11 -1.7,-5.32 -0.46,-18.43 0.28,-23.89 0.75,-5.5 3,-11.5 8.25,-16 4.59,-3.94 7.5,-1.25 8.5,1.75 1,3 1.37,20.32 0,26.25 -2,-0.5 -5.19,-0.11 -6.75,3 -1.5,3 -2.25,8.17 2.21,14"
   id="path168"
   style="fill:none;stroke:#000000;stroke-width:2;stroke-linecap:round;stroke-linejoin:round" />
		<path
   d="m 185,97.5 c 1.29,-0.66 2.45,-1.41 3.52,-2.22 5.75,-4.37 8.53,-10.7 11.48,-17.03 3.5,-7.5 5.25,-16.5 3.25,-23.25 -1.03,-3.49 -6.28,-0.72 -10.25,3.25 -5,5 -9,13 -12.25,21.5 3.25,-0.75 4.95,-0.18 5.75,2.5 0.75,2.5 1,9 -7.25,13.25"
   id="path170"
   style="fill:none;stroke:#000000;stroke-width:2;stroke-linecap:round;stroke-linejoin:round" />
		<path
   d="m 210.62,547.38 c 6.26,-0.13 17.97,1.09 19.63,12.5 1,6.86 -0.5,10.24 -1.49,12.61 l -0.01,0.01"
   id="path172"
   style="fill:none;stroke:#000000;stroke-width:2;stroke-linecap:round;stroke-linejoin:round" />
		<path
   d="m 250.88,552.25 c -0.02,-0.08 -0.05,-0.16 -0.07,-0.24 -1.77,-5.8 -6.55,-16.16 -24.31,-14.84"
   id="path174"
   style="fill:none;stroke:#000000;stroke-width:2;stroke-linecap:round;stroke-linejoin:round" />
		<path
   d="m 188.62,525.38 c -0.12,-1.63 -0.87,-4 -3.62,-2.13 -2.75,1.87 -9.62,7.25 -11.25,8.13 1,-4 0.8,-6.189 -1,-4 -2.37,2.87 -11.13,8.5 -21.5,10.74 -3.54,0.77 -1.24,-1.65 0,-3.37 1.63,-2.25 4.25,-8 1,-5.75 -3.25,2.25 -6.87,5.38 -8.5,6.75"
   id="path176"
   style="fill:none;stroke:#000000;stroke-width:2;stroke-linecap:round;stroke-linejoin:round" />
		<path
   d="m 243.33,570.34 c -1.47,-0.28 -2.78,-0.79 -2.66,-2.17 0.16,-1.92 2.16,-6.17 3.75,-5.75 0.811,0.29 2.39,0.89 3.99,2.42 2.05,1.98 4.12,5.5 4.59,11.91 -3,-3.33 -6.08,-5.92 -8,-6.17 -0.53,-0.07 -1.11,-0.14 -1.67,-0.24 z"
   id="path178"
   style="fill:none;stroke:#000000;stroke-width:2;stroke-linecap:round;stroke-linejoin:round" />
		<path
   d="m 223.16,578.99 c -0.62,0.05 -1.28,0.16 -1.99,0.34 -0.59,-2.58 0.33,-8.75 4.33,-8.91 1.07,0.37 2.19,1.08 3.26,2.07 1.311,1.21 2.55,2.85 3.49,4.76 h 0.01 c 1.21,2.44 1.96,5.35 1.82,8.42 -4.23,-3.87 -6.55,-6.98 -10.92,-6.68 z"
   id="path180"
   style="fill:none;stroke:#000000;stroke-width:2;stroke-linecap:round;stroke-linejoin:round" />
		<path
   d="m 56.02,570.22 c 1.27,-0.47 2.57,-0.8 3.86,-0.97 0,-4 -2.87,-8.03 -5.63,-7 -0.94,0.35 -1.93,0.96 -2.91,1.79 -0.98,0.82 -1.93,1.85 -2.81,3.06 -1.98,2.75 -3.51,6.41 -3.78,10.521 2.72,-2.721 6.86,-5.801 11.27,-7.401 z"
   id="path182"
   style="fill:none;stroke:#000000;stroke-width:2;stroke-linecap:round;stroke-linejoin:round" />
		<path
   d="m 39.97,559.56 c 0.93,-0.43 1.87,-0.68 2.78,-0.68 -0.63,-4.26 -2.25,-6.63 -4.63,-6.88 -0.48,0.39 -0.96,0.81 -1.42,1.28 -2.51,2.56 -4.5,6.479 -4.08,13.34 0.98,-1.95 4.08,-5.56 7.35,-7.06 z"
   id="path184"
   style="fill:none;stroke:#000000;stroke-width:2;stroke-linecap:round;stroke-linejoin:round" />
		<path
   d="m 202.7,26.53 c -2.41,3.25 -5.46,7 -6.7,8.14"
   id="path186"
   style="fill:none;stroke:#000000;stroke-width:2;stroke-linecap:round;stroke-linejoin:round" />
		
			<line
   x1="196"
   y1="34.669998"
   x2="202.7"
   y2="26.530001"
   id="line188"
   style="fill:none;stroke:#000000;stroke-width:2;stroke-linecap:round;stroke-linejoin:round" />
		<path
   d="m 203.88,35.5 c -0.03,0.05 -0.07,0.1 -0.1,0.15 -1.351,2.07 -2.82,3.89 -4.36,5.27"
   id="path190"
   style="fill:none;stroke:#000000;stroke-width:2;stroke-linecap:round;stroke-linejoin:round" />
		<path
   d="m 209.45,24.68 c -1.37,3.24 -3,6.65 -4.84,9.67"
   id="path192"
   style="fill:none;stroke:#000000;stroke-width:2;stroke-linecap:round;stroke-linejoin:round" />
		<path
   d="m 214.17,12 c -0.35,0.8 -1.56,4.73 -3.45,9.56"
   id="path194"
   style="fill:none;stroke:#000000;stroke-width:2;stroke-linecap:round;stroke-linejoin:round" />
		<path
   d="m 257.38,602.75 c 7.74,-0.63 15.12,-1.5 16.24,-1.25 1.13,0.25 1.399,1.96 -1.5,4.5 -3,2.62 -3.5,2.62 -4.74,3.62 2.87,-0.37 14.5,-3.37 18.24,-4.12 3.76,-0.75 6,0.75 2.38,3.12 -3.62,2.38 -12.5,5.63 -14.38,6.5 5,-1 16.26,-3.62 18,-2.24 1.76,1.37 0.76,3.5 -0.37,3.87"
   id="path196"
   style="fill:none;stroke:#000000;stroke-width:2;stroke-linecap:round;stroke-linejoin:round" />
	</g>
</g>
</svg>