<?xml version="1.0" encoding="UTF-8" standalone="no"?>
<svg
   xmlns:dc="http://purl.org/dc/elements/1.1/"
   xmlns:cc="http://creativecommons.org/ns#"
   xmlns:rdf="http://www.w3.org/1999/02/22-rdf-syntax-ns#"
   xmlns:svg="http://www.w3.org/2000/svg"
   xmlns="http://www.w3.org/2000/svg"
   version="1.1"
   id="svg4432"
   viewBox="0 0 199.99999 359.13869"
   height="101.35692mm"
   width="56.444443mm">
  <defs
     id="defs4434" />
  <metadata
     id="metadata4437">
    <rdf:RDF>
      <cc:Work
         rdf:about="">
        <dc:format>image/svg+xml</dc:format>
        <dc:type
           rdf:resource="http://purl.org/dc/dcmitype/StillImage" />
        <dc:title></dc:title>
      </cc:Work>
    </rdf:RDF>
  </metadata>
  <g
     transform="translate(-14.285714,-784.22143)"
     id="layer1">
    <g
       id="g4307"
       transform="translate(14.28581,784.22141)">
      <path
         id="path26566"
         style="fill:#ffe512;fill-opacity:1;fill-rule:nonzero;stroke:none"
         d="m 163.13215,270.28874 c 0,0 -7.73689,-7.76145 -9.05142,-12.15796 l 0.87439,-3.95441 c 0,0 4.99778,4.4702 6.97548,7.4053 1.98948,2.93511 2.33334,4.31055 2.33334,4.31055 l -1.12983,4.39652 z m 15.85398,-3.193 c 0.25544,-1.28948 -1.46092,-2.493 -1.46092,-2.493 0,0 -0.34386,-1.03158 -0.43228,-1.63334 -0.0983,-0.61404 -1.90303,-1.73159 -1.90303,-1.73159 0,0 -0.17684,-1.20351 -0.43228,-1.80527 -0.25544,-0.61404 -2.67721,-0.78597 -2.67721,-0.78597 0,0 -0.5993,-0.24562 -0.6779,-0.51579 -0.0983,-0.25839 -1.81755,-1.03159 -1.81755,-1.03159 0,0 -2.05138,-3.16844 -2.56718,-4.64213 -0.53053,-1.46141 -7.1474,-15.25271 -11.03992,-21.97029 -3.86893,-6.71758 -9.1251,-6.97548 -9.55444,-6.97548 -0.43228,0 -0.77614,-0.41755 -1.03158,-2.57896 -0.27509,-2.16142 0.25544,-9.91058 0.25544,-9.91058 0,0 2.83735,-2.84914 5.32985,-3.79476 2.50528,-0.94513 11.12638,-5.84565 16.46901,-9.03865 5.32985,-3.18071 8.35092,-10.77023 8.35092,-10.77023 1.20351,-7.9211 -4.13911,-14.98254 -4.66669,-15.84219 -0.52071,-0.85966 6.04214,-24.29136 7.93337,-35.66336 1.89124,-11.35971 6.18951,-32.55631 -3.62331,-47.02306 C 165.62858,74.410474 142.71267,55.289316 110.67165,53.741939 78.631615,52.194563 60.210461,67.692893 47.622182,79.064885 35.059447,90.436877 22.986959,117.47913 27.641862,139.36346 c 4.666692,21.87205 18.715892,42.39322 33.207199,50.25291 14.503097,7.84741 23.443497,10.68427 23.443497,10.68427 0,0 1.314534,7.41758 5.452662,12.53866 4.13911,5.12108 9.603561,6.53337 17.65975,5.77196 8.06895,-0.7614 12.98126,-2.28422 14.18477,-2.51755 1.19075,-0.20927 3.05743,0.1228 5.45267,2.41931 2.39426,2.28422 5.01055,6.75442 5.01055,6.75442 0,0 -2.68998,0.0491 -4.75315,2.2965 -2.06317,2.22282 -3.26668,9.64041 -3.78248,16.44395 -0.53052,6.81583 -3.20479,12.14568 -3.20479,12.14568 0,0 -4.56844,-0.7614 -11.18827,1.71931 -6.63161,2.50528 -7.31934,7.67548 -7.31934,7.67548 0,0 -0.0982,-1.38772 -0.5993,-5.51406 -0.5207,-4.13862 -3.451384,-9.64041 -9.223345,-16.2843 -5.75919,-6.63162 -6.71709,-12.31761 -6.71709,-12.31761 0,0 -2.922823,4.74037 -4.126338,10.51233 -1.203516,5.77197 0.432283,15.68255 4.224584,21.2703 3.782477,5.60003 13.950954,8.79303 13.950954,8.79303 0,0 0.157194,0.93334 0.09825,3.79475 -0.09825,2.82458 1.118035,8.95269 1.118035,8.95269 0,0 -4.126332,2.32106 -4.322824,5.42809 -0.157194,3.09476 1.473692,8.9404 9.136884,9.64041 7.6632,0.68772 9.30883,-3.79476 9.30883,-3.79476 l 2.4925,0.51579 c 0.17684,1.20352 1.38822,4.13862 4.31104,4.91231 2.93462,0.78597 6.11583,0.94513 9.91009,-1.28948 3.79525,-2.24738 3.43862,-6.80355 3.43862,-6.80355 0,0 2.16141,0 7.83513,-5.85792 5.69827,-5.84565 7.76144,-14.46675 7.76144,-14.46675 0,0 3.79525,2.66493 5.50179,3.43862 1.71931,0.78597 6.80354,4.99827 10.25493,4.22458 3.43862,-0.7732 5.16971,-3.62283 5.16971,-3.62283 0,0 2.06317,0.9579 3.86894,0 1.81755,-0.94512 2.66443,-4.04037 2.66443,-4.04037 0,0 0.78597,-0.42933 1.31454,-1.28948 0.50105,-0.87243 -0.60913,-2.41931 -0.78597,-2.76317 -0.16702,-0.34386 0.35368,-0.60225 0.5993,-1.89124" />
      <path
         id="path26570"
         style="fill:#fbaf34;fill-opacity:1;fill-rule:nonzero;stroke:none"
         d="m 119.37822,193.70714 c 0,0 1.89124,-5.25617 5.77197,-8.00706 3.88072,-2.75089 7.67597,-1.80527 9.56622,-1.2158 1.90401,0.61404 5.85842,2.50528 5.85842,2.50528 l 0.7565,3.53686 c 0,0 -2.7509,6.63162 -7.23387,8.26496 -4.46921,1.63334 -8.17899,0.0884 -10.49956,-1.11755 -2.33335,-1.20352 -3.79427,-2.50528 -3.79427,-2.50528 l -0.43228,-1.46141 z" />
      <path
         id="path26574"
         style="fill:#ffffff;fill-opacity:1;fill-rule:nonzero;stroke:none"
         d="m 95.265671,190.01309 c 0,0 -7.233864,-3.10704 -15.412856,-17.65975 -8.190782,-14.55271 -10.782516,-29.71946 -7.060951,-35.66335 3.68423,-5.9439 10.684269,-6.54565 18.249222,0.94512 7.589516,7.49127 12.845684,18.00361 14.306604,25.83874 1.47369,7.84741 0.94316,22.65802 -0.16702,23.86154 -1.12983,1.20351 -8.436394,1.9772 -9.910087,2.6772" />
      <path
         id="path26578"
         style="fill:#ffffff;fill-opacity:1;fill-rule:nonzero;stroke:none"
         d="m 152.62963,171.40025 c 0,0 4.38375,-4.39651 2.92283,-20.93871 -1.4737,-16.52991 -7.14741,-30.99666 -13.0913,-33.75983 -5.94389,-2.75089 -10.84441,-0.33109 -12.91937,8.19127 -2.07594,8.52286 -1.12983,18.69133 1.38723,26.78436 2.48072,8.09303 6.03035,16.97202 8.78125,19.12116 2.75089,2.14913 5.77196,3.45089 5.77196,3.45089 l 7.1474,-2.84914 z" />
      <path
         id="path26582"
         style="fill:#6caddf;fill-opacity:1;fill-rule:nonzero;stroke:none"
         d="m 132.21114,155.98425 c 0,0 -2.30879,-7.57723 -1.2772,-14.29481 1.01979,-6.71758 4.4702,-9.12461 7.65141,-7.58952 3.193,1.55966 9.56622,10.43866 11.1136,18.44572 1.55917,8.00706 0.96281,15.0685 0.34386,17.21764 -0.58947,2.16141 -0.93334,2.50527 -0.93334,2.50527 l -3.6351,1.97721 c 0,0 -11.10182,-12.05972 -13.26323,-18.26151" />
      <path
         id="path26586"
         style="fill:#6caddf;fill-opacity:1;fill-rule:nonzero;stroke:none"
         d="m 104.47625,161.66779 c 0,0 -4.72859,-12.66147 -11.371994,-13.0913 -6.631616,-0.42933 -8.007062,11.80182 -5.24438,21.11065 2.750892,9.29654 8.449169,14.72464 10.083003,16.01412 1.621061,1.28948 4.126341,2.2351 4.126341,2.2351 l 2.84914,-0.7732 c 0,0 2.48071,-17.14395 -0.44211,-25.49488" />
      <path
         id="path26590"
         style="fill:#fbaf34;fill-opacity:1;fill-rule:nonzero;stroke:none"
         d="m 98.815304,295.68409 c 0,0 -10.021107,17.58606 -21.602363,18.74046 -11.593046,1.14211 -32.052808,-4.86319 -43.780451,-5.29302 -11.728625,-0.42933 -21.897102,3.43862 -27.7545377,9.86146 -5.87020754,6.44741 -4.99876417,11.45796 -4.2864796,15.16675 0.6975477,3.73336 4.7285873,7.45443 5.2807307,7.73689 0.5796523,0.28294 2.1368538,10.29128 15.8913146,13.86498 13.7299,3.58599 23.603639,-0.28294 37.763856,-4.56844 14.172008,-4.28599 22.179069,-6.58249 27.042254,-13.88955 4.874974,-7.2825 8.583766,-15.86676 10.438653,-20.01766 1.866677,-4.15089 9.148679,-17.16851 9.148679,-17.16851 0,0 -6.0048,0.1346 -8.141656,-4.43336" />
      <path
         id="path26594"
         style="fill:#fbaf34;fill-opacity:1;fill-rule:nonzero;stroke:none"
         d="m 119.40475,300.55229 c 0,0 -8.00706,14.58955 -10.70883,18.31062 -2.72633,3.7088 -6.16495,7.44215 -4.59301,12.72288 1.57194,5.29301 9.16146,20.1773 36.62126,24.61066 27.47158,4.43336 40.20723,0 48.07871,-4.1509 7.87247,-4.13862 9.579,-8.71934 9.87374,-13.87727 0.28492,-5.14564 -1.86569,-10.58602 -1.86569,-10.58602 0,0 -1.28997,-11.15094 -13.16597,-14.17201 -11.87501,-2.98422 -25.88786,1.5965 -33.89492,5.30529 -8.00608,3.72108 -18.32193,6.0053 -23.18609,4.71582 -4.8622,-1.2772 -3.72058,-4.99827 -2.99651,-10.02111 0.69755,-4.99827 5.994,-12.29305 5.994,-12.29305 0,0 -6.42334,1.1544 -10.15669,-0.56491" />
      <path
         id="path26598"
         style="fill:#000000;fill-opacity:1;fill-rule:nonzero;stroke:none"
         d="m 80.202571,57.879281 c 0,0 -12.932141,-26.35453 -3.795249,-57.879263932768 0,0 -12.746456,23.603637932768 2.2351,58.051194932768" />
      <path
         id="path26602"
         style="fill:#000000;fill-opacity:1;fill-rule:nonzero;stroke:none"
         d="m 64.695398,65.287041 c 0,0 -11.384764,-12.919369 -14.823379,-36.694938 0,0 -0.687723,20.324673 13.779023,37.0388" />
      <path
         id="path26606"
         style="fill:#000000;fill-opacity:1;fill-rule:nonzero;stroke:none"
         d="M 58.582523,67.945877 C 41.401236,79.96875 29.587136,97.260072 26.29589,116.86018 c -3.045631,18.16326 1.142603,36.79318 11.519361,51.10028 20.890079,28.7984 45.83183,32.8879 46.863415,33.07211 l -0.157194,-1.28948 C 84.275856,199.70379 60.37748,194.96587 40.003193,166.87975 29.957524,153.01476 25.893081,134.96203 28.852255,117.35141 32.058027,98.291657 43.037034,81.344196 59.763441,69.640623 76.280585,58.084419 94.223279,53.14755 113.09833,54.965104 c 16.2843,1.547377 32.36032,8.14215 46.54411,19.035192 26.5019,20.373796 23.64098,43.351114 17.02115,69.324944 -5.87021,23.06328 -5.99301,27.86506 -6.02937,28.07383 l 0.77615,0.88422 c 0,-0.0589 0.97264,-5.35442 6.80354,-28.28261 6.79176,-26.68611 10.78252,-50.351154 -16.71363,-71.486357 C 147.02076,61.387946 129.95049,54.498435 113.31054,52.901935 93.931488,51.047539 75.510335,56.107216 58.587435,67.945877" />
      <path
         id="path26610"
         style="fill:#000000;fill-opacity:1;fill-rule:nonzero;stroke:none"
         d="m 92.945097,64.079891 c -0.835092,-2.087731 -6.718072,-20.496604 4.997782,-42.540584 0,0 -14.822397,20.324673 -5.857436,43.056376 0.402809,1.019304 1.203515,0.343862 0.854742,-0.515792" />
      <path
         id="path26614"
         style="fill:#000000;fill-opacity:1;fill-rule:nonzero;stroke:none"
         d="m 43.500756,129.1999 c 0,0 -0.520705,-10.68427 8.793031,-14.99482 0,0 -10.512339,1.55966 -8.793031,14.99482" />
      <path
         id="path26618"
         style="fill:#000000;fill-opacity:1;fill-rule:nonzero;stroke:none"
         d="m 142.03575,84.235089 c 0,0 11.88779,-0.687723 17.57329,10.512338 0,0 -3.63511,-12.919369 -17.57329,-10.512338" />
      <path
         id="path26622"
         style="fill:#6caddf;fill-opacity:1;fill-rule:nonzero;stroke:none"
         d="m 90.994911,147.86549 c -1.41278,0.45488 -2.567172,1.54737 -3.438616,3.2544 -2.259661,4.43336 -1.9158,12.46498 0.550179,20.0545 2.431592,7.56495 6.828107,13.81586 11.335641,16.12465 1.706535,0.85965 3.266685,1.0807 4.666695,0.62582 l 0,-0.60225 c -1.11804,0.35566 -2.40703,0.15916 -3.86894,-0.57768 -4.273704,-2.18598 -8.743904,-8.57198 -11.101812,-15.89132 -2.382469,-7.33162 -2.517066,-14.79832 -0.38316,-19.01063 0.736847,-1.44913 1.694747,-2.37019 2.836367,-2.73861 4.543884,-1.47369 10.831635,6.14038 14.147445,16.35798 l -0.10807,-1.32632 c -3.53686,-10.95444 -9.419841,-17.9422 -14.589554,-16.27202" />
      <path
         id="path26626"
         style="fill:#6caddf;fill-opacity:1;fill-rule:nonzero;stroke:none"
         d="m 134.9748,133.03641 c -5.1088,1.35088 -6.20228,11.66673 -3.10753,23.50539 l 0.7958,0.0688 c -2.86191,-10.9176 -1.56015,-21.09836 2.84914,-22.26503 1.00702,-0.25741 2.13685,-0.0393 3.34037,0.67593 3.9544,2.29651 7.90881,9.10005 10.05745,17.32817 2.08774,7.95794 2.05138,15.71938 -0.0982,19.74747 l 0.50105,0.1965 c 2.25967,-4.23687 2.7509,-12.0106 0.58948,-20.21415 -2.22331,-8.47373 -6.63161,-15.84219 -10.80708,-18.28606 -1.44913,-0.84787 -2.83734,-1.10527 -4.12633,-0.76141" />
      <path
         id="path26630"
         style="fill:#000000;fill-opacity:1;fill-rule:nonzero;stroke:none"
         d="m 75.758897,132.36588 c -4.630341,2.56668 -6.398771,9.86146 -4.728587,19.52642 3.107526,17.97905 16.382546,31.52474 16.382546,31.52474 -0.09825,-0.12281 -11.825889,-14.27026 -14.85973,-31.78263 -1.547377,-8.98953 -0.09825,-15.68255 3.954407,-17.90537 3.561423,-1.96492 8.670223,-0.22105 14.405833,4.92459 13.631654,12.20709 15.228154,30.44403 15.952224,37.70196 l 0.74667,1.8544 c -0.74667,-7.41759 -1.5965,-28.0984 -15.658467,-40.71075 -6.263192,-5.62459 -12.022381,-7.44215 -16.197843,-5.13336" />
      <path
         id="path26634"
         style="fill:#000000;fill-opacity:1;fill-rule:nonzero;stroke:none"
         d="m 136.59881,114.76262 c -5.24438,1.2772 -8.71935,7.68777 -8.85394,16.32115 -0.27509,16.2843 3.75693,25.33522 7.47849,33.34228 l -0.24561,-2.71405 c -3.8316,-8.20355 -5.9321,-14.63867 -5.69828,-30.60367 0.13755,-7.90882 3.15665,-13.7299 7.68776,-14.84745 3.85616,-0.94513 8.03163,1.94036 11.15094,7.71232 7.55317,13.97552 7.67499,33.79668 7.6632,33.99317 0,0 2.06317,-18.72817 -6.30052,-34.7423 -3.37673,-6.47196 -8.28903,-9.59128 -12.88204,-8.46145" />
      <path
         id="path26638"
         style="fill:#000000;fill-opacity:1;fill-rule:nonzero;stroke:none"
         d="m 133.55613,117.39562 c 0,0 5.03511,-11.37199 0.25544,-30.35806 0,0 6.07947,14.58955 1.15439,29.20367" />
      <path
         id="path26642"
         style="fill:#000000;fill-opacity:1;fill-rule:nonzero;stroke:none"
         d="m 137.16765,115.84333 c 0,0 12.28077,-13.55797 11.23642,-35.65107 0,0 3.23033,20.54573 -9.30883,35.27037" />
      <path
         id="path26646"
         style="fill:#000000;fill-opacity:1;fill-rule:nonzero;stroke:none"
         d="m 142.19884,116.87983 c 0,0 13.18955,-6.97548 15.12991,-30.615958 0,0 2.18597,18.863258 -13.57074,31.131748" />
      <path
         id="path26650"
         style="fill:#000000;fill-opacity:1;fill-rule:nonzero;stroke:none"
         d="m 80.455064,131.60693 c 0,0 -13.569759,-0.7732 -16.665495,-23.76329 0,0 -1.559167,18.98607 14.332148,24.53698" />
      <path
         id="path26654"
         style="fill:#000000;fill-opacity:1;fill-rule:nonzero;stroke:none"
         d="m 74.124082,134.71151 c 0,0 -18.617646,-1.28949 -25.335718,-23.00188 0,0 2.333346,20.42291 24.426941,23.89837" />
      <path
         id="path26658"
         style="fill:#000000;fill-opacity:1;fill-rule:nonzero;stroke:none"
         d="m 71.658103,139.35973 c 0,0 -14.073761,5.68599 -28.553279,-8.40005 0,0 10.598795,14.99482 28.430471,9.68953" />
      <path
         id="path26662"
         style="fill:#004b8d;fill-opacity:1;fill-rule:nonzero;stroke:none"
         d="m 97.379928,158.61234 c 10.204832,-2.32107 13.422392,29.70718 6.717092,29.58437 -6.717092,-0.12281 -15.056225,-27.68085 -6.717092,-29.58437" />
      <path
         id="path26666"
         style="fill:#004b8d;fill-opacity:1;fill-rule:nonzero;stroke:none"
         d="m 134.19767,147.75977 c 7.68777,-4.12633 17.4387,21.44223 11.50659,26.35453 -5.95568,4.90003 -18.48206,-22.60889 -11.50659,-26.35453" />
      <path
         id="path26670"
         style="fill:#000000;fill-opacity:1;fill-rule:nonzero;stroke:none"
         d="m 91.301439,192.84867 c 0,0 6.607053,-5.80881 19.256241,-4.12634 0,0 -10.733388,-5.56319 -19.256241,4.12634" />
      <path
         id="path26674"
         style="fill:#000000;fill-opacity:1;fill-rule:nonzero;stroke:none"
         d="m 141.94635,178.50718 c 0,0 3.36493,-6.0667 14.85973,-7.61407 0,0 -10.34041,-1.81756 -14.85973,7.61407" />
      <path
         id="path26678"
         style="fill:#000000;fill-opacity:1;fill-rule:nonzero;stroke:none"
         d="m 127.39707,183.89235 c -6.27596,2.39475 -8.4246,9.68953 -8.53562,9.98427 l 0.88421,0.46666 c 0,-0.0688 2.26065,-6.85266 7.94615,-9.02636 3.58599,-1.37545 7.81057,-0.6386 12.55095,2.13685 l 0.50105,-0.71228 c -5.10978,-3.00879 -9.37071,-4.35967 -13.34968,-2.84914" />
      <path
         id="path26682"
         style="fill:#000000;fill-opacity:1;fill-rule:nonzero;stroke:none"
         d="m 132.56286,198.39584 c -5.8093,1.5351 -12.17074,-3.2544 -12.23165,-3.30353 l -0.43228,0.68773 c 0.25544,0.20926 6.74263,5.72283 13.17776,4.05265 3.69602,-0.96969 6.15217,-3.97897 8.16622,-8.79303 l -0.57966,-0.77418 c -1.87945,4.42108 -4.81406,7.2825 -8.1053,8.12987" />
      <path
         id="path26686"
         style="fill:#000000;fill-opacity:1;fill-rule:nonzero;stroke:none"
         d="m 119.58552,193.49218 -0.12772,0.73684 c 0.13755,0.0491 12.61186,6.05442 21.11015,-5.51406 l -0.25544,-0.85965 c -8.25267,10.48777 -20.2387,5.84564 -20.72993,5.63687" />
      <path
         id="path26690"
         style="fill:#000000;fill-opacity:1;fill-rule:nonzero;stroke:none"
         d="m 95.184127,218.16798 c 8.190783,3.36493 17.463253,1.10527 25.334733,-0.98246 3.78248,-1.00703 9.37072,-3.36494 12.39179,-3.53687 0,0 -4.7895,-0.49123 -13.57074,2.21054 -7.4785,2.28423 -15.461,3.59827 -22.989602,0.45488 -10.941673,-4.56844 -12.035153,-19.31765 -12.035153,-19.46502 0,0 -2.185977,15.98956 10.868972,21.31942" />
      <path
         id="path26694"
         style="fill:#000000;fill-opacity:1;fill-rule:nonzero;stroke:none"
         d="m 166.37427,167.78853 c 7.0865,5.55091 9.2597,12.32989 8.70657,17.52466 -0.62877,5.8088 -5.7474,11.60532 -15.68205,16.45623 -14.45495,7.04916 -17.70886,12.14568 -17.70886,12.14568 0,0 3.88072,-3.50002 18.15097,-10.43866 10.62238,-5.18248 17.3768,-11.65445 17.64698,-18.24922 0.50105,-12.91937 -11.11361,-17.43869 -11.11361,-17.43869" />
      <path
         id="path26698"
         style="fill:#000000;fill-opacity:1;fill-rule:nonzero;stroke:none"
         d="m 147.11999,209.51613 c 0,0 -2.57896,6.85266 0,17.05798 0,0 -3.86893,-5.44038 -2.19875,-15.63342" />
      <path
         id="path26702"
         style="fill:#000000;fill-opacity:1;fill-rule:nonzero;stroke:none"
         d="m 123.21572,215.58892 c 0,0 6.0667,0.6386 9.43163,9.55444 l -1.16716,0.27017 c 0,0 -3.22936,-7.38074 -10.59782,-8.67022" />
      <path
         id="path26706"
         style="fill:#000000;fill-opacity:1;fill-rule:nonzero;stroke:none"
         d="m 145.96462,234.19674 c 0,0 3.48773,3.09475 4.00353,11.2369 0,0 1.15439,-8.00706 -4.00353,-11.2369" />
      <path
         id="path26710"
         style="fill:#000000;fill-opacity:1;fill-rule:nonzero;stroke:none"
         d="m 147.80673,270.96782 c 10.04567,9.28426 16.66451,12.04743 20.44699,9.76321 2.13685,-1.2772 3.52507,-3.63511 4.53209,-5.34214 0.48141,-0.8233 0.99426,-2.21053 1.28899,-2.28422 l 0.94317,0.01 c 1.37544,0.0589 3.34037,0.30652 4.22458,-0.33109 0.6779,-0.49124 1.03159,-1.42457 0.87439,-2.37019 -0.15719,-1.10527 -1.35088,-1.52282 -2.68899,-1.94036 l -0.40281,0.83509 c 0.84491,0.27017 1.37544,0.74863 1.47369,1.37544 0.0982,0.49123 -0.13755,0.92057 -0.37334,1.09299 -0.5207,0.38022 -1.82934,0.33109 -2.86092,0.29474 l -1.00703,-0.0197 c -1.00702,0 -1.67018,1.12983 -2.57896,2.68949 -0.99523,1.67018 -2.2351,3.78248 -4.10178,4.88775 -3.16843,1.9158 -9.55443,-1.5351 -18.98607,-10.24217 -11.6176,-10.74567 -16.41987,-21.56503 -16.469,-21.66327 0,0 3.81981,12.28077 15.68304,23.24749" />
      <path
         id="path26714"
         style="fill:#000000;fill-opacity:1;fill-rule:nonzero;stroke:none"
         d="m 178.91736,268.8347 z m -5.46544,-0.33109 c -0.25544,-0.1965 -0.29473,-0.62583 -0.28491,-0.94513 0,-0.52857 0.34386,-1.03159 0.88422,-1.46141 0.80561,-0.62583 1.94036,-0.89699 2.89826,-0.69952 0.55018,0.12281 0.91369,0.39299 1.10527,0.8351 0.0982,0.22105 0.11789,0.46667 0.11789,0.69951 0,0.39298 -0.10807,0.77418 -0.28491,1.05615 -0.22597,0.0589 -0.76632,0.13558 -1.17896,0.1847 -0.74667,0.0982 -1.52281,0.19649 -2.06317,0.38021 -0.4814,0.16014 -0.95298,0.13558 -1.20351,-0.0491 m -0.19649,-3.42634 c -0.8351,0.65039 -1.46092,1.80528 -1.49826,2.71405 -0.0982,1.1544 0.39299,1.73159 0.78597,2.03861 0.58948,0.45488 1.60927,0.24562 2.50528,-0.0491 0.43228,-0.14737 1.16716,-0.24562 1.84211,-0.3193 1.30177,-0.15916 1.76844,-0.24562 2.02682,-0.62583 0.30457,-0.46667 0.58948,-1.42457 0.58948,-2.1737 0,-0.38021 -0.0982,-0.78597 -0.23579,-1.17895 -0.34386,-0.82232 -1.05615,-1.40001 -2.01405,-1.5965 -1.33811,-0.28295 -2.89826,0.33109 -4.00353,1.19123" />
      <path
         id="path26718"
         style="fill:#000000;fill-opacity:1;fill-rule:nonzero;stroke:none"
         d="m 163.70984,265.07305 c -0.93334,6.00529 -1.43735,7.44214 -1.43735,7.44214 0,0 1.11805,0 2.70177,-7.19653 0.78597,-3.56142 2.45616,-4.67897 3.64788,-5.02283 -0.29474,0.66316 -0.58947,1.57194 -0.58947,2.24738 0,0.40477 0.0982,0.78597 0.19649,1.10527 0.25544,0.66316 0.80562,1.05614 1.48548,1.09299 1.6584,0.0884 2.78823,-1.05615 3.43862,-1.69475 l 0.32421,-0.29474 c 0.49123,-0.44211 1.41278,-0.70049 2.4198,-0.11102 0.83509,0.50401 1.11706,1.86668 1.15439,2.35791 l 0.90387,0.19649 c 0,-0.0982 0.15719,-2.71405 -1.40001,-3.64738 -1.5965,-0.9579 -3.11932,-0.46667 -3.94262,0.24561 l -0.34386,0.3193 c -0.58948,0.56492 -1.2772,1.20352 -2.38247,1.14211 -0.15719,0 -0.26526,-0.0491 -0.35369,-0.28295 -0.30456,-0.73684 0.0983,-2.27194 0.7958,-3.00878 l 0.6386,-0.54036 -1.25264,-0.14737 c 0,-0.01 -4.94866,-0.9579 -6.0048,5.79653" />
      <path
         id="path26722"
         style="fill:#000000;fill-opacity:1;fill-rule:nonzero;stroke:none"
         d="m 169.25485,259.4289 0.68772,0.78597 c 0.5993,-0.34386 2.61531,-1.21579 3.6469,-0.6386 0.58948,0.3193 0.90386,1.06843 0.97264,2.21054 l 0.98246,0.14737 c -0.0983,-1.63334 0,-2.94738 -1.04436,-3.46318 -2.71356,-1.3386 -5.12059,0.89699 -5.2434,0.9579" />
      <path
         id="path26726"
         style="fill:#000000;fill-opacity:1;fill-rule:nonzero;stroke:none"
         d="m 164.76598,259.12424 c -0.19649,0.60225 -0.0982,1.05615 0.0982,1.33861 0.36351,0.67495 1.62106,0.57768 1.73109,0.60225 l 0.0983,-0.87243 c -0.25544,-0.0884 -0.55018,-0.27018 -0.43228,-0.65039 0.23579,-0.79874 1.89124,-1.75615 3.67244,-1.44913 0.75649,0.12281 0.89404,0.3193 0.89404,0.3193 l 0.50105,0.93334 c 0.1965,-0.28295 0.88422,-0.61404 0.69755,-1.12983 -0.24561,-0.57671 -0.86456,-1.22808 -1.87846,-1.40001 -2.39525,-0.39298 -4.94965,0.87243 -5.37898,2.30878" />
      <path
         id="path26730"
         style="fill:#000000;fill-opacity:1;fill-rule:nonzero;stroke:none"
         d="m 131.52538,224.37704 c -6.39779,0.42933 -7.58952,10.05794 -8.7557,19.82116 l -0.32421,2.66492 c -1.22808,9.84918 -5.51456,13.65622 -5.56368,13.68078 0,0 5.52635,-3.00879 6.8399,-13.52113 l 0.33403,-2.66492 c 1.10527,-9.23514 2.13686,-17.95449 7.46671,-18.31063 5.80831,-0.39298 9.65269,7.01232 15.33819,20.3738 5.32985,12.55094 14.27124,23.02644 16.37076,24.46329 l 0.26526,-0.87243 c -1.62106,-1.11755 -9.91107,-11.99831 -15.36275,-24.78259 -5.06066,-11.88778 -9.41984,-21.3317 -16.61637,-20.85275" />
      <path
         id="path26734"
         style="fill:#000000;fill-opacity:1;fill-rule:nonzero;stroke:none"
         d="m 154.4354,254.60865 c 0.0982,0.0589 6.26319,5.55091 9.27149,11.34743 l 0.92351,-0.47845 c -3.89349,-7.84742 -9.56721,-11.87551 -9.84918,-12.10884 l -0.34386,1.24035 z" />
      <path
         id="path26738"
         style="fill:#000000;fill-opacity:1;fill-rule:nonzero;stroke:none"
         d="m 171.48602,276.47952 c 0,0 3.36493,2.14914 6.04214,-3.53686 l 1.10527,-0.0786 c 0,0 -2.82458,8.00706 -7.30755,4.39651" />
      <path
         id="path26742"
         style="fill:#000000;fill-opacity:1;fill-rule:nonzero;stroke:none"
         d="m 145.91058,222.99677 0.0982,0.84787 c 0.0982,-0.01 5.60003,-0.87243 11.75318,11.47024 2.65265,5.37897 4.88775,9.52987 6.61885,13.17726 3.00928,6.33688 5.02332,8.67023 5.67371,9.22286 l 0,-0.94513 c -0.47158,-0.45488 -2.17419,-4.02809 -4.3356,-8.57197 -1.7311,-3.64739 -3.90529,-8.19128 -6.56972,-13.57025 -6.74263,-13.55797 -12.91937,-11.6913 -13.18955,-11.62989" />
      <path
         id="path26746"
         style="fill:#000000;fill-opacity:1;fill-rule:nonzero;stroke:none"
         d="m 129.8994,294.44138 c -14.89706,5.26845 -24.30413,-2.86142 -24.64799,-3.22985 0,0 10.2176,10.18076 26.10891,4.56845 14.87251,-5.26845 18.37204,-17.48781 19.71113,-22.65802 l -1.17895,-0.62583 c -1.28998,4.92459 -5.83386,16.93518 -19.9931,21.94574" />
      <path
         id="path26750"
         style="fill:#000000;fill-opacity:1;fill-rule:nonzero;stroke:none"
         d="m 148.24,229.19601 c 0,0.0491 4.44563,6.16494 5.51357,14.56499 1.09348,8.49829 -0.30456,13.59481 -0.32421,13.64394 l 1.09348,1.06842 c 0.0982,-0.20828 1.90303,-6.31231 0.75649,-15.15447 -1.12983,-8.92812 -7.04916,-14.12288 -7.04916,-14.12288" />
      <path
         id="path26754"
         style="fill:#000000;fill-opacity:1;fill-rule:nonzero;stroke:none"
         d="m 99.438185,268.17645 c -3.50051,11.58076 2.934615,20.52116 2.934615,20.52116 0,-0.0688 -4.445641,-8.79303 -1.22808,-19.40361 3.21756,-10.65971 13.64443,-13.74218 18.81414,-12.36674 l 0.69755,-1.28948 c -6.68074,-1.76843 -17.72164,0.99474 -21.221172,12.53867" />
      <path
         id="path26758"
         style="fill:#000000;fill-opacity:1;fill-rule:nonzero;stroke:none"
         d="m 82.33353,259.15499 c 5.378977,13.07902 16.996584,13.0913 17.463253,13.12815 l -0.157193,-1.24036 c -0.108071,-0.01 -10.646936,-1.19124 -16.014123,-13.26323 -1.60829,-3.61055 -2.210539,-7.20881 -2.210539,-10.52462 0,-6.57021 2.357908,-12.072 3.856162,-14.72464 0.599301,2.77545 2.22331,7.94565 6.816318,12.85796 6.25042,6.7053 9.050432,12.55095 9.050432,18.92467 l 1.10527,0.58947 c 0,-6.7053 -2.07496,-13.25095 -9.038643,-20.57028 -6.201297,-6.5825 -6.827125,-15.79307 -6.827125,-15.79307 0,0 -11.078237,13.49656 -4.040865,30.61595" />
      <path
         id="path26762"
         style="fill:#000000;fill-opacity:1;fill-rule:nonzero;stroke:none"
         d="m 93.117028,324.47395 -3.97897,8.41232 c -4.175461,8.47374 -10.72062,13.38604 -38.463368,20.07906 -16.78732,4.06494 -29.965076,3.11932 -37.112484,-2.70177 -3.6970027,-2.9965 -5.5017845,-7.09828 -5.3298537,-12.1948 0.4421077,-13.88955 15.8785427,-16.39483 16.4925817,-16.45623 0,0 -17.6843075,0.23284 -19.0106306,16.78781 -0.4617569,5.67372 1.9040104,10.48778 6.0794716,13.87727 7.6632,6.22635 21.933454,6.91407 39.359374,2.71405 28.565068,-6.91407 35.025735,-12.79656 39.494953,-21.87205 l 4.298269,-9.10005 c 4.4702,-9.579 10.451429,-20.15274 13.508849,-23.76329 l -2.30781,-0.51579 c -3.36493,4.01581 -8.732113,15.49833 -13.030382,24.73347" />
      <path
         id="path26766"
         style="fill:#000000;fill-opacity:1;fill-rule:nonzero;stroke:none"
         d="m 86.126814,309.93971 c -6.656177,5.5509 -14.172008,4.55616 -35.700687,0 -24.242238,-5.09652 -42.9944808,-0.45488 -48.6072835,13.22639 -6.2877537,15.28955 5.7356103,20.44748 5.845646,20.4966 l 0.6680739,-0.94513 c -0.4028093,-0.18372 -9.8982998,-4.7281 -4.3965153,-18.11413 6.2514029,-15.16675 27.8773459,-16.46851 46.0774449,-12.62463 20.950992,4.42107 29.0563,5.89477 36.7195,-0.54036 7.233864,-6.02986 12.059715,-14.98254 12.244418,-15.3264 l -1.388219,-0.51579 c 0,0.0884 -4.568446,8.5597 -11.457466,14.34394" />
      <path
         id="path26770"
         style="fill:#000000;fill-opacity:1;fill-rule:nonzero;stroke:none"
         d="m 110.75319,314.27472 c -1.37544,2.18598 -2.71355,3.95441 -3.91805,5.53863 -3.57321,4.69125 -5.93112,7.81057 -3.56143,14.35622 4.77772,13.17726 26.85854,23.16153 54.95694,24.81943 17.37679,1.05615 31.97912,-3.5123 38.40245,-12.55095 3.61055,-5.07195 4.43287,-11.05269 1.90303,-16.62816 -7.20832,-15.86675 -27.05404,-6.64389 -27.05404,-6.64389 0.68772,-0.28295 19.14523,-6.22635 24.76982,7.19653 2.08773,4.96143 1.48548,10.15619 -1.67019,14.60183 -6.0048,8.48601 -19.56375,12.95621 -36.22826,11.96147 -31.51246,-1.86668 -49.39326,-13.12814 -53.13938,-23.45627 -1.98851,-5.50178 -0.22597,-7.81057 3.26668,-12.41586 1.21629,-1.62106 2.66542,-4.24914 4.10178,-6.49652 5.28171,-8.31408 6.87821,-13.0299 7.06193,-13.95096 l -1.05615,-0.30652 c -0.16701,0.65039 -2.48071,5.56318 -7.83513,13.97551" />
      <path
         id="path26774"
         style="fill:#000000;fill-opacity:1;fill-rule:nonzero;stroke:none"
         d="m 121.96898,318.39742 c 0.0982,2.1123 0.89404,3.73336 2.34513,4.75266 3.5742,2.52984 10.43865,1.19124 19.61288,-1.58422 2.18598,-0.66316 4.64213,-1.58422 7.24565,-2.5544 9.54167,-3.5737 21.41766,-8.03162 32.59316,-4.71581 13.55797,4.00353 12.1334,14.00007 12.05972,14.44218 l 1.33811,0.62583 c 0,-0.12281 2.9356,-12.85797 -12.40357,-17.40185 -11.86323,-3.50002 -24.48786,1.43685 -34.31247,5.1088 -2.56619,0.96969 -4.986,1.87896 -7.11008,2.493 -7.45491,2.25966 -15.03166,4.60528 -18.07729,2.45615 -0.93334,-0.66316 -1.42457,-1.68247 -1.48646,-3.15616 -0.33404,-7.17197 6.81631,-17.64746 6.89,-17.75799 l -1.20352,-0.34386 c -0.29473,0.41754 -7.8479,9.73865 -7.49126,17.63518" />
      <path
         id="path26778"
         style="fill:#000000;fill-opacity:1;fill-rule:nonzero;stroke:none"
         d="m 95.735288,291.16359 c 0.245615,2.80002 1.76843,5.4895 4.162689,7.35618 2.456153,1.90352 5.539123,2.72633 8.449173,2.24738 6.21407,-1.00702 6.77996,-4.32283 6.81631,-4.45792 l -1.11804,-0.28295 c 0,0.0197 -0.64842,2.44388 -5.69827,3.26669 -2.50528,0.40477 -5.14515,-0.29474 -7.24468,-1.94036 -2.075936,-1.60878 -3.377698,-3.89301 -3.57419,-6.27548 -0.402809,-4.66669 3.04563,-5.83336 3.20479,-5.85792 l -0.23579,-0.85966 c 0,0.01 -5.293504,0.84787 -4.76494,6.80355" />
      <path
         id="path26782"
         style="fill:#000000;fill-opacity:1;fill-rule:nonzero;stroke:none"
         d="m 131.81324,298.89438 c -2.16142,1.76843 -5.53912,2.45616 -9.02686,1.80528 -2.24689,-0.39299 -3.80704,-1.17896 -4.50655,-2.2351 -0.54035,-0.84787 -0.39298,-1.58422 -0.39298,-1.62106 l -0.97264,-0.18471 c 0,0.14737 -0.43228,1.31404 0.45193,2.70177 0.94317,1.47369 2.39426,2.37019 5.14515,2.86142 3.94262,0.72407 7.77422,-0.0589 10.29129,-2.12457 1.85489,-1.51054 2.33334,-3.96669 2.38247,-6.36144 l -1.00703,0.3193 c 0,1.94036 -0.85474,3.62283 -2.36969,4.83862" />
      <path
         id="path26786"
         style="fill:#000000;fill-opacity:1;fill-rule:nonzero;stroke:none"
         d="m 141.43154,182.12382 c 0,0 -1.80478,9.43163 3.88072,13.70534 0,0 -8.52285,-3.63511 -3.88072,-13.70534" />
      <path
         id="path26790"
         style="fill:#000000;fill-opacity:1;fill-rule:nonzero;stroke:none"
         d="m 114.30185,190.13589 c 0,0 6.97547,2.06317 5.82108,13.43516 0,0 4.12634,-10.46321 -5.82108,-13.43516" />
    </g>
  </g>
</svg>
